<svg xmlns="http://www.w3.org/2000/svg" width="200" height="200" viewBox="0 0 200 200">
<rect width="200" height="200" fill="white"/>
<path d="M 38.8900,111.6600 L 44.9900,110.0000 L 48.7200,104.7800 L 38.8900,111.6600 Z" fill="#ff0000" fill-opacity="0.13" stroke="#770000" stroke-width="2"/>
<path d="M 48.7200,104.7800 L 45.0000,110.0000 L 38.8900,111.6600 L 48.7200,104.7800 Z" fill="#ff0000" fill-opacity="0.13" stroke="#770000" stroke-width="2"/>
<path d="M 80.9900,140.0000 L 75.0000,116.0000 L 67.8000,127.2900 L 80.9900,140.0000 Z" fill="#ff0000" fill-opacity="0.13" stroke="#770000" stroke-width="2"/>
<path d="M 75.0000,116.0000 L 80.9900,140.0000 L 85.2900,128.7900 L 75.0000,116.0000 Z" fill="#ff0000" fill-opacity="0.13" stroke="#770000" stroke-width="2"/>
<path d="M 53.0000,182.0100 L 55.1700,174.3100 L 42.7700,181.2700 L 53.0000,182.0100 Z" fill="#ff0000" fill-opacity="0.13" stroke="#770000" stroke-width="2"/>
<path d="M 53.0000,182.0000 L 53.0000,182.0100 L 42.7700,181.2700 L 53.0000,182.0000 Z" fill="#ff0000" fill-opacity="0.13" stroke="#770000" stroke-width="2"/>
<path d="M 70.0100,180.0000 L 61.9900,178.0000 L 64.9900,184.3500 L 70.0100,180.0000 Z" fill="#ff0000" fill-opacity="0.13" stroke="#770000" stroke-width="2"/>
<path d="M 43.2600,120.2400 L 44.9900,110.0000 L 31.0100,121.0000 L 43.2600,120.2400 Z" fill="#ff0000" fill-opacity="0.13" stroke="#770000" stroke-width="2"/>
<path d="M 49.9900,114.0000 L 44.9900,110.0000 L 43.2600,120.2400 L 49.9900,114.0000 Z" fill="#ff0000" fill-opacity="0.13" stroke="#770000" stroke-width="2"/>
<path d="M 26.9700,146.0300 L 26.0000,155.9900 L 25.6500,155.9300 L 26.9700,146.0300 Z" fill="#ff0000" fill-opacity="0.13" stroke="#770000" stroke-width="2"/>
<path d="M 31.0100,121.0000 L 43.2600,120.2400 L 36.0000,132.0000 L 31.0100,121.0000 Z" fill="#ff0000" fill-opacity="0.13" stroke="#770000" stroke-width="2"/>
<path d="M 36.0000,132.0000 L 43.2600,120.2400 L 36.0000,132.0000 L 36.0000,132.0000 Z" fill="#ff0000" fill-opacity="0.13" stroke="#770000" stroke-width="2"/>
<path d="M 22.6800,140.1500 L 31.0000,141.0100 L 26.9700,146.0300 L 22.6800,140.1500 Z" fill="#ff0000" fill-opacity="0.13" stroke="#770000" stroke-width="2"/>
<path d="M 22.6800,140.1500 L 23.9300,132.9900 L 31.0000,141.0100 L 22.6800,140.1500 Z" fill="#ff0000" fill-opacity="0.13" stroke="#770000" stroke-width="2"/>
<path d="M 44.0700,157.9500 L 38.0000,153.9900 L 44.0200,158.0200 L 44.0700,157.9500 Z" fill="#ff0000" fill-opacity="0.13" stroke="#770000" stroke-width="2"/>
<path d="M 88.0000,171.0000 L 83.9800,164.9800 L 81.0100,171.3600 L 88.0000,171.0000 Z" fill="#ff0000" fill-opacity="0.13" stroke="#770000" stroke-width="2"/>
<path d="M 75.9800,172.9800 L 81.0100,171.3600 L 83.9800,164.9800 L 75.9800,172.9800 Z" fill="#ff0000" fill-opacity="0.13" stroke="#770000" stroke-width="2"/>
<path d="M 48.7200,104.7800 L 44.9900,110.0000 L 49.9900,114.0000 L 48.7200,104.7800 Z" fill="#ff0000" fill-opacity="0.13" stroke="#770000" stroke-width="2"/>
<path d="M 59.9900,109.9900 L 48.7200,104.7800 L 49.9900,114.0000 L 59.9900,109.9900 Z" fill="#ff0000" fill-opacity="0.13" stroke="#770000" stroke-width="2"/>
<path d="M 30.9900,140.9800 L 26.9800,146.0000 L 32.0000,149.0300 L 30.9900,140.9800 Z" fill="#ff0000" fill-opacity="0.13" stroke="#770000" stroke-width="2"/>
<path d="M 23.9300,132.9900 L 23.6700,132.9600 L 23.6500,117.9700 L 23.9300,132.9900 Z" fill="#ff0000" fill-opacity="0.13" stroke="#770000" stroke-width="2"/>
<path d="M 79.0000,179.0000 L 87.9700,171.0000 L 84.2800,181.2200 L 79.0000,179.0000 Z" fill="#ff0000" fill-opacity="0.13" stroke="#770000" stroke-width="2"/>
<path d="M 91.3400,149.9200 L 86.9900,158.0000 L 77.9800,157.0000 L 91.3400,149.9200 Z" fill="#ff0000" fill-opacity="0.13" stroke="#770000" stroke-width="2"/>
<path d="M 91.3400,149.9200 L 77.9800,157.0000 L 81.0000,140.0000 L 91.3400,149.9200 Z" fill="#ff0000" fill-opacity="0.13" stroke="#770000" stroke-width="2"/>
<path d="M 64.9900,184.3500 L 61.9900,178.0000 L 53.0000,182.0100 L 64.9900,184.3500 Z" fill="#ff0000" fill-opacity="0.13" stroke="#770000" stroke-width="2"/>
<path d="M 81.0000,140.0000 L 88.2700,141.7700 L 91.3400,149.9200 L 81.0000,140.0000 Z" fill="#ff0000" fill-opacity="0.13" stroke="#770000" stroke-width="2"/>
<path d="M 91.3400,149.9200 L 88.2700,141.7700 L 80.9900,140.0000 L 91.3400,149.9200 Z" fill="#ff0000" fill-opacity="0.13" stroke="#770000" stroke-width="2"/>
<path d="M 23.6500,117.9700 L 31.0100,121.0000 L 23.9300,132.9900 L 23.6500,117.9700 Z" fill="#ff0000" fill-opacity="0.13" stroke="#770000" stroke-width="2"/>
<path d="M 75.0000,116.0000 L 69.0000,113.9700 L 76.3300,111.8700 L 75.0000,116.0000 Z" fill="#ff0000" fill-opacity="0.13" stroke="#770000" stroke-width="2"/>
<path d="M 75.0000,116.0000 L 76.3300,111.8700 L 75.0000,116.0000 L 75.0000,116.0000 Z" fill="#ff0000" fill-opacity="0.13" stroke="#770000" stroke-width="2"/>
<path d="M 59.9700,119.0400 L 59.9800,119.0000 L 43.2600,120.2400 L 59.9700,119.0400 Z" fill="#ff0000" fill-opacity="0.13" stroke="#770000" stroke-width="2"/>
<path d="M 59.9700,119.0400 L 67.8000,127.2900 L 59.9800,119.0000 L 59.9700,119.0400 Z" fill="#ff0000" fill-opacity="0.13" stroke="#770000" stroke-width="2"/>
<path d="M 77.9800,157.0000 L 84.0100,165.0100 L 75.9800,173.0000 L 77.9800,157.0000 Z" fill="#ff0000" fill-opacity="0.13" stroke="#770000" stroke-width="2"/>
<path d="M 23.6500,117.9700 L 31.0100,121.0000 L 26.0300,114.6500 L 23.6500,117.9700 Z" fill="#ff0000" fill-opacity="0.13" stroke="#770000" stroke-width="2"/>
<path d="M 75.0000,116.0000 L 85.2900,128.7900 L 67.8000,127.2900 L 75.0000,116.0000 Z" fill="#ff0000" fill-opacity="0.13" stroke="#770000" stroke-width="2"/>
<path d="M 75.0000,116.0000 L 75.0000,116.0000 L 85.2900,128.7900 L 75.0000,116.0000 Z" fill="#ff0000" fill-opacity="0.13" stroke="#770000" stroke-width="2"/>
<path d="M 29.8300,178.3100 L 42.7700,181.2700 L 40.0000,168.0000 L 29.8300,178.3100 Z" fill="#ff0000" fill-opacity="0.13" stroke="#770000" stroke-width="2"/>
<path d="M 63.0100,116.0200 L 75.0000,116.0000 L 59.9700,119.0400 L 63.0100,116.0200 Z" fill="#ff0000" fill-opacity="0.13" stroke="#770000" stroke-width="2"/>
<path d="M 83.9800,164.9800 L 88.0000,171.0000 L 90.3600,169.9900 L 83.9800,164.9800 Z" fill="#ff0000" fill-opacity="0.13" stroke="#770000" stroke-width="2"/>
<path d="M 26.0400,156.0800 L 32.0000,149.0300 L 26.9800,146.0000 L 26.0400,156.0800 Z" fill="#ff0000" fill-opacity="0.13" stroke="#770000" stroke-width="2"/>
<path d="M 72.3500,104.9400 L 69.0000,113.9700 L 64.0400,102.6500 L 72.3500,104.9400 Z" fill="#ff0000" fill-opacity="0.13" stroke="#770000" stroke-width="2"/>
<path d="M 60.0000,110.0000 L 64.0400,102.6500 L 69.0000,113.9700 L 60.0000,110.0000 Z" fill="#ff0000" fill-opacity="0.13" stroke="#770000" stroke-width="2"/>
<path d="M 63.0100,116.0200 L 69.0000,113.9700 L 75.0000,116.0000 L 63.0100,116.0200 Z" fill="#ff0000" fill-opacity="0.13" stroke="#770000" stroke-width="2"/>
<path d="M 64.9900,184.3500 L 53.0000,182.0100 L 53.0000,182.0000 L 64.9900,184.3500 Z" fill="#ff0000" fill-opacity="0.13" stroke="#770000" stroke-width="2"/>
<path d="M 64.0400,102.6500 L 52.0500,101.6500 L 59.9900,109.9900 L 64.0400,102.6500 Z" fill="#ff0000" fill-opacity="0.13" stroke="#770000" stroke-width="2"/>
<path d="M 52.0500,101.6500 L 64.0400,102.6500 L 60.0000,110.0000 L 52.0500,101.6500 Z" fill="#ff0000" fill-opacity="0.13" stroke="#770000" stroke-width="2"/>
<path d="M 42.7700,181.2700 L 47.9900,165.9900 L 40.0000,168.0000 L 42.7700,181.2700 Z" fill="#ff0000" fill-opacity="0.13" stroke="#770000" stroke-width="2"/>
<path d="M 72.3500,104.9400 L 76.3300,111.8700 L 69.0000,113.9700 L 72.3500,104.9400 Z" fill="#ff0000" fill-opacity="0.13" stroke="#770000" stroke-width="2"/>
<path d="M 76.3300,111.8700 L 72.3500,104.9400 L 68.9800,113.9800 L 76.3300,111.8700 Z" fill="#ff0000" fill-opacity="0.13" stroke="#770000" stroke-width="2"/>
<path d="M 79.0000,179.0000 L 70.0000,180.0100 L 75.9800,173.0000 L 79.0000,179.0000 Z" fill="#ff0000" fill-opacity="0.13" stroke="#770000" stroke-width="2"/>
<path d="M 54.0100,167.9800 L 62.0200,177.9800 L 54.0200,167.9800 L 54.0100,167.9800 Z" fill="#ff0000" fill-opacity="0.13" stroke="#770000" stroke-width="2"/>
<path d="M 59.9700,119.0400 L 50.0000,114.0300 L 60.0000,110.0000 L 59.9700,119.0400 Z" fill="#ff0000" fill-opacity="0.13" stroke="#770000" stroke-width="2"/>
<path d="M 59.9700,119.0400 L 60.0000,110.0000 L 63.0100,116.0200 L 59.9700,119.0400 Z" fill="#ff0000" fill-opacity="0.13" stroke="#770000" stroke-width="2"/>
<path d="M 40.0000,168.0000 L 34.9800,165.0200 L 29.8300,178.3100 L 40.0000,168.0000 Z" fill="#ff0000" fill-opacity="0.13" stroke="#770000" stroke-width="2"/>
<path d="M 22.6800,140.1500 L 23.6700,132.9600 L 23.9300,132.9900 L 22.6800,140.1500 Z" fill="#ff0000" fill-opacity="0.13" stroke="#770000" stroke-width="2"/>
<path d="M 31.0000,141.0100 L 23.9300,132.9900 L 36.0000,132.0000 L 31.0000,141.0100 Z" fill="#ff0000" fill-opacity="0.13" stroke="#770000" stroke-width="2"/>
<path d="M 26.0300,114.6500 L 31.0100,121.0000 L 23.6500,117.9700 L 26.0300,114.6500 Z" fill="#ff0000" fill-opacity="0.13" stroke="#770000" stroke-width="2"/>
<path d="M 53.0000,182.0100 L 61.9900,178.0000 L 54.0100,167.9800 L 53.0000,182.0100 Z" fill="#ff0000" fill-opacity="0.13" stroke="#770000" stroke-width="2"/>
<path d="M 53.0000,182.0100 L 54.0100,167.9800 L 55.1700,174.3100 L 53.0000,182.0100 Z" fill="#ff0000" fill-opacity="0.13" stroke="#770000" stroke-width="2"/>
<path d="M 44.0700,157.9500 L 54.0100,167.9800 L 54.0200,167.9800 L 44.0700,157.9500 Z" fill="#ff0000" fill-opacity="0.13" stroke="#770000" stroke-width="2"/>
<path d="M 84.2800,181.2200 L 87.9700,171.0000 L 90.3600,169.9900 L 84.2800,181.2200 Z" fill="#ff0000" fill-opacity="0.13" stroke="#770000" stroke-width="2"/>
<path d="M 67.8000,127.2900 L 81.0000,140.0000 L 80.9900,140.0000 L 67.8000,127.2900 Z" fill="#ff0000" fill-opacity="0.13" stroke="#770000" stroke-width="2"/>
<path d="M 85.2900,128.7900 L 81.0000,140.0000 L 67.8000,127.2900 L 85.2900,128.7900 Z" fill="#ff0000" fill-opacity="0.13" stroke="#770000" stroke-width="2"/>
<path d="M 70.0100,180.0000 L 64.9900,184.3500 L 78.0000,184.3600 L 70.0100,180.0000 Z" fill="#ff0000" fill-opacity="0.13" stroke="#770000" stroke-width="2"/>
<path d="M 84.0100,165.0100 L 86.9900,158.0000 L 90.3600,169.9900 L 84.0100,165.0100 Z" fill="#ff0000" fill-opacity="0.13" stroke="#770000" stroke-width="2"/>
<path d="M 90.3600,169.9900 L 86.9900,158.0000 L 87.3500,158.0600 L 90.3600,169.9900 Z" fill="#ff0000" fill-opacity="0.13" stroke="#770000" stroke-width="2"/>
<path d="M 78.0000,184.3600 L 79.0000,178.9900 L 70.0100,180.0000 L 78.0000,184.3600 Z" fill="#ff0000" fill-opacity="0.13" stroke="#770000" stroke-width="2"/>
<path d="M 36.0000,132.0000 L 30.9900,140.9800 L 36.3300,139.1400 L 36.0000,132.0000 Z" fill="#ff0000" fill-opacity="0.13" stroke="#770000" stroke-width="2"/>
<path d="M 84.2800,181.2200 L 88.0000,171.0000 L 79.0000,178.9900 L 84.2800,181.2200 Z" fill="#ff0000" fill-opacity="0.13" stroke="#770000" stroke-width="2"/>
<path d="M 88.0000,171.0000 L 81.0100,171.3600 L 79.0000,178.9900 L 88.0000,171.0000 Z" fill="#ff0000" fill-opacity="0.13" stroke="#770000" stroke-width="2"/>
<path d="M 44.0700,157.9500 L 44.0200,158.0200 L 54.0100,167.9800 L 44.0700,157.9500 Z" fill="#ff0000" fill-opacity="0.13" stroke="#770000" stroke-width="2"/>
<path d="M 77.9800,156.9900 L 87.0000,157.9900 L 91.3400,149.9200 L 77.9800,156.9900 Z" fill="#ff0000" fill-opacity="0.13" stroke="#770000" stroke-width="2"/>
<path d="M 81.0000,140.0000 L 77.9800,157.0000 L 77.9800,156.9900 L 81.0000,140.0000 Z" fill="#ff0000" fill-opacity="0.13" stroke="#770000" stroke-width="2"/>
<path d="M 43.2600,120.2400 L 31.0100,121.0000 L 36.0000,132.0000 L 43.2600,120.2400 Z" fill="#ff0000" fill-opacity="0.13" stroke="#770000" stroke-width="2"/>
<path d="M 32.0000,149.0300 L 26.0400,156.0800 L 38.0000,153.9900 L 32.0000,149.0300 Z" fill="#ff0000" fill-opacity="0.13" stroke="#770000" stroke-width="2"/>
<path d="M 35.9800,160.0000 L 38.0000,153.9900 L 26.0400,156.0800 L 35.9800,160.0000 Z" fill="#ff0000" fill-opacity="0.13" stroke="#770000" stroke-width="2"/>
<path d="M 80.9900,140.0000 L 81.0000,140.0000 L 77.9800,156.9900 L 80.9900,140.0000 Z" fill="#ff0000" fill-opacity="0.13" stroke="#770000" stroke-width="2"/>
<path d="M 77.9800,156.9900 L 91.3400,149.9200 L 80.9900,140.0000 L 77.9800,156.9900 Z" fill="#ff0000" fill-opacity="0.13" stroke="#770000" stroke-width="2"/>
<path d="M 36.3300,139.1400 L 32.0200,148.9900 L 31.0000,141.0100 L 36.3300,139.1400 Z" fill="#ff0000" fill-opacity="0.13" stroke="#770000" stroke-width="2"/>
<path d="M 37.9900,153.9800 L 32.0200,148.9900 L 36.3300,139.1400 L 37.9900,153.9800 Z" fill="#ff0000" fill-opacity="0.13" stroke="#770000" stroke-width="2"/>
<path d="M 36.0000,132.0000 L 36.0000,132.0000 L 36.3300,139.1400 L 36.0000,132.0000 Z" fill="#ff0000" fill-opacity="0.13" stroke="#770000" stroke-width="2"/>
<path d="M 68.9800,113.9800 L 72.3500,104.9400 L 64.0400,102.6500 L 68.9800,113.9800 Z" fill="#ff0000" fill-opacity="0.13" stroke="#770000" stroke-width="2"/>
<path d="M 54.0100,167.9800 L 47.9900,165.9900 L 55.1700,174.3100 L 54.0100,167.9800 Z" fill="#ff0000" fill-opacity="0.13" stroke="#770000" stroke-width="2"/>
<path d="M 29.8300,178.3100 L 34.9800,165.0200 L 27.9700,167.3500 L 29.8300,178.3100 Z" fill="#ff0000" fill-opacity="0.13" stroke="#770000" stroke-width="2"/>
<path d="M 29.8300,178.3100 L 27.9700,167.3500 L 35.0000,165.0000 L 29.8300,178.3100 Z" fill="#ff0000" fill-opacity="0.13" stroke="#770000" stroke-width="2"/>
<path d="M 47.9600,166.1900 L 40.0100,168.0300 L 44.0700,157.9500 L 47.9600,166.1900 Z" fill="#ff0000" fill-opacity="0.13" stroke="#770000" stroke-width="2"/>
<path d="M 47.9600,166.1900 L 44.0700,157.9500 L 54.0200,167.9800 L 47.9600,166.1900 Z" fill="#ff0000" fill-opacity="0.13" stroke="#770000" stroke-width="2"/>
<path d="M 44.0200,158.0200 L 47.9900,165.9900 L 54.0100,167.9800 L 44.0200,158.0200 Z" fill="#ff0000" fill-opacity="0.13" stroke="#770000" stroke-width="2"/>
<path d="M 53.0000,182.0000 L 54.0200,167.9800 L 62.0200,177.9800 L 53.0000,182.0000 Z" fill="#ff0000" fill-opacity="0.13" stroke="#770000" stroke-width="2"/>
<path d="M 78.0000,184.3600 L 64.9900,184.3500 L 70.0000,180.0100 L 78.0000,184.3600 Z" fill="#ff0000" fill-opacity="0.13" stroke="#770000" stroke-width="2"/>
<path d="M 68.9800,113.9800 L 64.0400,102.6500 L 59.9900,109.9900 L 68.9800,113.9800 Z" fill="#ff0000" fill-opacity="0.13" stroke="#770000" stroke-width="2"/>
<path d="M 75.9800,173.0000 L 62.0200,177.9800 L 75.9800,172.9800 L 75.9800,173.0000 Z" fill="#ff0000" fill-opacity="0.13" stroke="#770000" stroke-width="2"/>
<path d="M 62.0200,177.9800 L 64.9900,184.3500 L 53.0000,182.0000 L 62.0200,177.9800 Z" fill="#ff0000" fill-opacity="0.13" stroke="#770000" stroke-width="2"/>
<path d="M 26.9800,146.0000 L 26.9700,146.0300 L 25.6500,155.9300 L 26.9800,146.0000 Z" fill="#ff0000" fill-opacity="0.13" stroke="#770000" stroke-width="2"/>
<path d="M 26.9800,146.0000 L 22.6800,140.1500 L 26.9700,146.0300 L 26.9800,146.0000 Z" fill="#ff0000" fill-opacity="0.13" stroke="#770000" stroke-width="2"/>
<path d="M 60.0000,110.0000 L 69.0000,113.9700 L 63.0100,116.0200 L 60.0000,110.0000 Z" fill="#ff0000" fill-opacity="0.13" stroke="#770000" stroke-width="2"/>
<path d="M 40.0000,168.0000 L 47.9900,165.9900 L 44.0200,158.0200 L 40.0000,168.0000 Z" fill="#ff0000" fill-opacity="0.13" stroke="#770000" stroke-width="2"/>
<path d="M 87.0000,157.9900 L 90.3600,169.9900 L 87.3500,158.0600 L 87.0000,157.9900 Z" fill="#ff0000" fill-opacity="0.13" stroke="#770000" stroke-width="2"/>
<path d="M 87.0000,157.9900 L 87.3500,158.0600 L 91.3400,149.9200 L 87.0000,157.9900 Z" fill="#ff0000" fill-opacity="0.13" stroke="#770000" stroke-width="2"/>
<path d="M 84.2800,181.2200 L 79.0000,178.9900 L 78.0000,184.3600 L 84.2800,181.2200 Z" fill="#ff0000" fill-opacity="0.13" stroke="#770000" stroke-width="2"/>
<path d="M 83.9800,164.9800 L 90.3600,169.9900 L 87.0000,157.9900 L 83.9800,164.9800 Z" fill="#ff0000" fill-opacity="0.13" stroke="#770000" stroke-width="2"/>
<path d="M 59.9900,109.9900 L 52.0500,101.6500 L 48.7200,104.7800 L 59.9900,109.9900 Z" fill="#ff0000" fill-opacity="0.13" stroke="#770000" stroke-width="2"/>
<path d="M 52.0500,101.6500 L 60.0000,110.0000 L 48.7200,104.7800 L 52.0500,101.6500 Z" fill="#ff0000" fill-opacity="0.13" stroke="#770000" stroke-width="2"/>
<path d="M 23.6700,132.9600 L 30.9900,140.9800 L 24.1000,132.6600 L 23.6700,132.9600 Z" fill="#ff0000" fill-opacity="0.13" stroke="#770000" stroke-width="2"/>
<path d="M 75.0000,116.0000 L 59.9800,119.0000 L 67.8000,127.2900 L 75.0000,116.0000 Z" fill="#ff0000" fill-opacity="0.13" stroke="#770000" stroke-width="2"/>
<path d="M 79.0000,178.9900 L 75.9800,172.9800 L 70.0100,180.0000 L 79.0000,178.9900 Z" fill="#ff0000" fill-opacity="0.13" stroke="#770000" stroke-width="2"/>
<path d="M 90.3600,169.9900 L 88.0000,171.0000 L 84.2800,181.2200 L 90.3600,169.9900 Z" fill="#ff0000" fill-opacity="0.13" stroke="#770000" stroke-width="2"/>
<path d="M 67.8000,127.2900 L 59.9700,119.0400 L 75.0000,116.0000 L 67.8000,127.2900 Z" fill="#ff0000" fill-opacity="0.13" stroke="#770000" stroke-width="2"/>
<path d="M 78.0000,184.3600 L 70.0000,180.0100 L 79.0000,179.0000 L 78.0000,184.3600 Z" fill="#ff0000" fill-opacity="0.13" stroke="#770000" stroke-width="2"/>
<path d="M 38.8900,111.6600 L 45.0000,110.0000 L 39.1100,112.3400 L 38.8900,111.6600 Z" fill="#ff0000" fill-opacity="0.13" stroke="#770000" stroke-width="2"/>
<path d="M 39.1100,112.3400 L 31.0100,121.0000 L 44.9900,110.0000 L 39.1100,112.3400 Z" fill="#ff0000" fill-opacity="0.13" stroke="#770000" stroke-width="2"/>
<path d="M 59.9800,119.0000 L 75.0000,116.0000 L 63.0100,115.9700 L 59.9800,119.0000 Z" fill="#ff0000" fill-opacity="0.13" stroke="#770000" stroke-width="2"/>
<path d="M 83.9800,164.9800 L 87.0000,157.9900 L 77.9800,156.9900 L 83.9800,164.9800 Z" fill="#ff0000" fill-opacity="0.13" stroke="#770000" stroke-width="2"/>
<path d="M 77.9800,156.9900 L 75.9800,172.9800 L 83.9800,164.9800 L 77.9800,156.9900 Z" fill="#ff0000" fill-opacity="0.13" stroke="#770000" stroke-width="2"/>
<path d="M 86.9900,158.0000 L 84.0100,165.0100 L 77.9800,157.0000 L 86.9900,158.0000 Z" fill="#ff0000" fill-opacity="0.13" stroke="#770000" stroke-width="2"/>
<path d="M 85.2900,128.7900 L 88.2700,141.7700 L 81.0000,140.0000 L 85.2900,128.7900 Z" fill="#ff0000" fill-opacity="0.13" stroke="#770000" stroke-width="2"/>
<path d="M 85.2900,128.7900 L 80.9900,140.0000 L 88.2700,141.7700 L 85.2900,128.7900 Z" fill="#ff0000" fill-opacity="0.13" stroke="#770000" stroke-width="2"/>
<path d="M 76.3300,111.8700 L 68.9800,113.9800 L 75.0000,116.0000 L 76.3300,111.8700 Z" fill="#ff0000" fill-opacity="0.13" stroke="#770000" stroke-width="2"/>
<path d="M 39.1100,112.3400 L 45.0000,110.0000 L 43.2600,120.2400 L 39.1100,112.3400 Z" fill="#ff0000" fill-opacity="0.13" stroke="#770000" stroke-width="2"/>
<path d="M 44.0200,158.0200 L 35.9800,160.0000 L 40.0000,168.0000 L 44.0200,158.0200 Z" fill="#ff0000" fill-opacity="0.13" stroke="#770000" stroke-width="2"/>
<path d="M 78.0000,184.3600 L 79.0000,179.0000 L 84.2800,181.2200 L 78.0000,184.3600 Z" fill="#ff0000" fill-opacity="0.13" stroke="#770000" stroke-width="2"/>
<path d="M 75.9800,173.0000 L 70.0000,180.0100 L 62.0200,177.9800 L 75.9800,173.0000 Z" fill="#ff0000" fill-opacity="0.13" stroke="#770000" stroke-width="2"/>
<path d="M 84.0100,165.0100 L 90.3600,169.9900 L 87.9700,171.0000 L 84.0100,165.0100 Z" fill="#ff0000" fill-opacity="0.13" stroke="#770000" stroke-width="2"/>
<path d="M 36.3300,139.1400 L 31.0000,141.0100 L 36.0000,132.0000 L 36.3300,139.1400 Z" fill="#ff0000" fill-opacity="0.13" stroke="#770000" stroke-width="2"/>
<path d="M 31.0100,121.0000 L 39.1100,112.3400 L 43.2600,120.2400 L 31.0100,121.0000 Z" fill="#ff0000" fill-opacity="0.13" stroke="#770000" stroke-width="2"/>
<path d="M 39.1100,112.3400 L 44.9900,110.0000 L 38.8900,111.6600 L 39.1100,112.3400 Z" fill="#ff0000" fill-opacity="0.13" stroke="#770000" stroke-width="2"/>
<path d="M 81.0100,171.3600 L 75.9800,172.9800 L 79.0000,178.9900 L 81.0100,171.3600 Z" fill="#ff0000" fill-opacity="0.13" stroke="#770000" stroke-width="2"/>
<path d="M 91.3400,149.9200 L 87.3500,158.0600 L 86.9900,158.0000 L 91.3400,149.9200 Z" fill="#ff0000" fill-opacity="0.13" stroke="#770000" stroke-width="2"/>
<path d="M 54.0100,167.9800 L 61.9900,178.0000 L 62.0200,177.9800 L 54.0100,167.9800 Z" fill="#ff0000" fill-opacity="0.13" stroke="#770000" stroke-width="2"/>
<path d="M 75.9800,172.9800 L 62.0200,177.9800 L 61.9900,178.0000 L 75.9800,172.9800 Z" fill="#ff0000" fill-opacity="0.13" stroke="#770000" stroke-width="2"/>
<path d="M 27.9700,167.3500 L 26.0400,156.0800 L 22.6500,163.9800 L 27.9700,167.3500 Z" fill="#ff0000" fill-opacity="0.13" stroke="#770000" stroke-width="2"/>
<path d="M 34.9800,165.0200 L 26.0400,156.0800 L 27.9700,167.3500 L 34.9800,165.0200 Z" fill="#ff0000" fill-opacity="0.13" stroke="#770000" stroke-width="2"/>
<path d="M 35.9800,160.0000 L 34.9800,165.0200 L 40.0000,168.0000 L 35.9800,160.0000 Z" fill="#ff0000" fill-opacity="0.13" stroke="#770000" stroke-width="2"/>
<path d="M 75.9800,172.9800 L 61.9900,178.0000 L 70.0100,180.0000 L 75.9800,172.9800 Z" fill="#ff0000" fill-opacity="0.13" stroke="#770000" stroke-width="2"/>
<path d="M 77.9800,156.9900 L 77.9800,157.0000 L 75.9800,172.9800 L 77.9800,156.9900 Z" fill="#ff0000" fill-opacity="0.13" stroke="#770000" stroke-width="2"/>
<path d="M 75.9800,172.9800 L 77.9800,157.0000 L 75.9800,173.0000 L 75.9800,172.9800 Z" fill="#ff0000" fill-opacity="0.13" stroke="#770000" stroke-width="2"/>
<path d="M 47.9600,166.1900 L 54.0200,167.9800 L 53.0000,182.0000 L 47.9600,166.1900 Z" fill="#ff0000" fill-opacity="0.13" stroke="#770000" stroke-width="2"/>
<path d="M 47.9600,166.1900 L 53.0000,182.0000 L 42.7700,181.2700 L 47.9600,166.1900 Z" fill="#ff0000" fill-opacity="0.13" stroke="#770000" stroke-width="2"/>
<path d="M 84.0100,165.0100 L 87.9700,171.0000 L 75.9800,173.0000 L 84.0100,165.0100 Z" fill="#ff0000" fill-opacity="0.13" stroke="#770000" stroke-width="2"/>
<path d="M 75.9800,173.0000 L 87.9700,171.0000 L 79.0000,179.0000 L 75.9800,173.0000 Z" fill="#ff0000" fill-opacity="0.13" stroke="#770000" stroke-width="2"/>
<path d="M 62.0200,177.9800 L 70.0000,180.0100 L 64.9900,184.3500 L 62.0200,177.9800 Z" fill="#ff0000" fill-opacity="0.13" stroke="#770000" stroke-width="2"/>
<path d="M 36.3300,139.1400 L 38.0000,153.9900 L 37.9900,153.9800 L 36.3300,139.1400 Z" fill="#ff0000" fill-opacity="0.13" stroke="#770000" stroke-width="2"/>
<path d="M 44.0700,157.9500 L 37.9900,153.9800 L 38.0000,153.9900 L 44.0700,157.9500 Z" fill="#ff0000" fill-opacity="0.13" stroke="#770000" stroke-width="2"/>
<path d="M 24.1000,132.6600 L 30.9900,140.9800 L 36.0000,132.0000 L 24.1000,132.6600 Z" fill="#ff0000" fill-opacity="0.13" stroke="#770000" stroke-width="2"/>
<path d="M 27.9700,167.3500 L 22.6500,163.9800 L 26.0000,155.9900 L 27.9700,167.3500 Z" fill="#ff0000" fill-opacity="0.13" stroke="#770000" stroke-width="2"/>
<path d="M 24.1000,132.6600 L 36.0000,132.0000 L 31.0100,121.0000 L 24.1000,132.6600 Z" fill="#ff0000" fill-opacity="0.13" stroke="#770000" stroke-width="2"/>
<path d="M 36.3300,139.1400 L 30.9900,140.9800 L 32.0000,149.0300 L 36.3300,139.1400 Z" fill="#ff0000" fill-opacity="0.13" stroke="#770000" stroke-width="2"/>
<path d="M 36.3300,139.1400 L 32.0000,149.0300 L 38.0000,153.9900 L 36.3300,139.1400 Z" fill="#ff0000" fill-opacity="0.13" stroke="#770000" stroke-width="2"/>
<path d="M 30.9900,140.9800 L 22.6800,140.1500 L 26.9800,146.0000 L 30.9900,140.9800 Z" fill="#ff0000" fill-opacity="0.13" stroke="#770000" stroke-width="2"/>
<path d="M 30.9900,140.9800 L 23.6700,132.9600 L 22.6800,140.1500 L 30.9900,140.9800 Z" fill="#ff0000" fill-opacity="0.13" stroke="#770000" stroke-width="2"/>
<path d="M 44.0200,158.0200 L 38.0000,153.9900 L 35.9800,160.0000 L 44.0200,158.0200 Z" fill="#ff0000" fill-opacity="0.13" stroke="#770000" stroke-width="2"/>
<path d="M 43.2600,120.2400 L 45.0000,110.0000 L 50.0000,114.0300 L 43.2600,120.2400 Z" fill="#ff0000" fill-opacity="0.13" stroke="#770000" stroke-width="2"/>
<path d="M 68.9800,113.9800 L 63.0100,115.9700 L 75.0000,116.0000 L 68.9800,113.9800 Z" fill="#ff0000" fill-opacity="0.13" stroke="#770000" stroke-width="2"/>
<path d="M 59.9900,109.9900 L 59.9800,119.0000 L 63.0100,115.9700 L 59.9900,109.9900 Z" fill="#ff0000" fill-opacity="0.13" stroke="#770000" stroke-width="2"/>
<path d="M 26.0300,114.6500 L 39.1100,112.3400 L 31.0100,121.0000 L 26.0300,114.6500 Z" fill="#ff0000" fill-opacity="0.13" stroke="#770000" stroke-width="2"/>
<path d="M 26.0300,114.6500 L 31.0100,121.0000 L 39.1100,112.3400 L 26.0300,114.6500 Z" fill="#ff0000" fill-opacity="0.13" stroke="#770000" stroke-width="2"/>
<path d="M 26.9700,146.0300 L 31.0000,141.0100 L 32.0200,148.9900 L 26.9700,146.0300 Z" fill="#ff0000" fill-opacity="0.13" stroke="#770000" stroke-width="2"/>
<path d="M 23.9300,132.9900 L 31.0100,121.0000 L 36.0000,132.0000 L 23.9300,132.9900 Z" fill="#ff0000" fill-opacity="0.13" stroke="#770000" stroke-width="2"/>
<path d="M 59.9800,119.0000 L 49.9900,114.0000 L 43.2600,120.2400 L 59.9800,119.0000 Z" fill="#ff0000" fill-opacity="0.13" stroke="#770000" stroke-width="2"/>
<path d="M 68.9800,113.9800 L 59.9900,109.9900 L 63.0100,115.9700 L 68.9800,113.9800 Z" fill="#ff0000" fill-opacity="0.13" stroke="#770000" stroke-width="2"/>
<path d="M 26.0000,155.9900 L 37.9900,153.9800 L 35.9500,159.9800 L 26.0000,155.9900 Z" fill="#ff0000" fill-opacity="0.13" stroke="#770000" stroke-width="2"/>
<path d="M 23.6700,132.9600 L 24.1000,132.6600 L 23.6500,117.9700 L 23.6700,132.9600 Z" fill="#ff0000" fill-opacity="0.13" stroke="#770000" stroke-width="2"/>
<path d="M 55.1700,174.3100 L 47.9900,165.9900 L 42.7700,181.2700 L 55.1700,174.3100 Z" fill="#ff0000" fill-opacity="0.13" stroke="#770000" stroke-width="2"/>
<path d="M 59.9900,109.9900 L 49.9900,114.0000 L 59.9800,119.0000 L 59.9900,109.9900 Z" fill="#ff0000" fill-opacity="0.13" stroke="#770000" stroke-width="2"/>
<path d="M 26.9700,146.0300 L 32.0200,148.9900 L 26.0000,155.9900 L 26.9700,146.0300 Z" fill="#ff0000" fill-opacity="0.13" stroke="#770000" stroke-width="2"/>
<path d="M 26.0000,155.9900 L 32.0200,148.9900 L 37.9900,153.9800 L 26.0000,155.9900 Z" fill="#ff0000" fill-opacity="0.13" stroke="#770000" stroke-width="2"/>
<path d="M 35.9500,159.9800 L 40.0100,168.0300 L 35.0000,165.0000 L 35.9500,159.9800 Z" fill="#ff0000" fill-opacity="0.13" stroke="#770000" stroke-width="2"/>
<path d="M 35.9500,159.9800 L 44.0700,157.9500 L 40.0100,168.0300 L 35.9500,159.9800 Z" fill="#ff0000" fill-opacity="0.13" stroke="#770000" stroke-width="2"/>
<path d="M 35.9500,159.9800 L 37.9900,153.9800 L 44.0700,157.9500 L 35.9500,159.9800 Z" fill="#ff0000" fill-opacity="0.13" stroke="#770000" stroke-width="2"/>
<path d="M 27.9700,167.3500 L 26.0000,155.9900 L 35.0000,165.0000 L 27.9700,167.3500 Z" fill="#ff0000" fill-opacity="0.13" stroke="#770000" stroke-width="2"/>
<path d="M 35.9800,160.0000 L 26.0400,156.0800 L 34.9800,165.0200 L 35.9800,160.0000 Z" fill="#ff0000" fill-opacity="0.13" stroke="#770000" stroke-width="2"/>
<path d="M 26.9800,146.0000 L 25.6500,155.9300 L 26.0400,156.0800 L 26.9800,146.0000 Z" fill="#ff0000" fill-opacity="0.13" stroke="#770000" stroke-width="2"/>
<path d="M 24.1000,132.6600 L 31.0100,121.0000 L 23.6500,117.9700 L 24.1000,132.6600 Z" fill="#ff0000" fill-opacity="0.13" stroke="#770000" stroke-width="2"/>
<path d="M 26.0400,156.0800 L 25.6500,155.9300 L 22.6500,163.9800 L 26.0400,156.0800 Z" fill="#ff0000" fill-opacity="0.13" stroke="#770000" stroke-width="2"/>
<path d="M 26.0000,155.9900 L 22.6500,163.9800 L 25.6500,155.9300 L 26.0000,155.9900 Z" fill="#ff0000" fill-opacity="0.13" stroke="#770000" stroke-width="2"/>
<path d="M 35.0000,165.0000 L 26.0000,155.9900 L 35.9500,159.9800 L 35.0000,165.0000 Z" fill="#ff0000" fill-opacity="0.13" stroke="#770000" stroke-width="2"/>
<path d="M 47.9600,166.1900 L 42.7700,181.2700 L 40.0100,168.0300 L 47.9600,166.1900 Z" fill="#ff0000" fill-opacity="0.13" stroke="#770000" stroke-width="2"/>
<path d="M 42.7700,181.2700 L 29.8300,178.3100 L 40.0100,168.0300 L 42.7700,181.2700 Z" fill="#ff0000" fill-opacity="0.13" stroke="#770000" stroke-width="2"/>
<path d="M 35.0000,165.0000 L 40.0100,168.0300 L 29.8300,178.3100 L 35.0000,165.0000 Z" fill="#ff0000" fill-opacity="0.13" stroke="#770000" stroke-width="2"/>
<path d="M 43.2600,120.2400 L 50.0000,114.0300 L 59.9700,119.0400 L 43.2600,120.2400 Z" fill="#ff0000" fill-opacity="0.13" stroke="#770000" stroke-width="2"/>
<path d="M 60.0000,110.0000 L 50.0000,114.0300 L 48.7200,104.7800 L 60.0000,110.0000 Z" fill="#ff0000" fill-opacity="0.13" stroke="#770000" stroke-width="2"/>
<path d="M 45.0000,110.0000 L 48.7200,104.7800 L 50.0000,114.0300 L 45.0000,110.0000 Z" fill="#ff0000" fill-opacity="0.13" stroke="#770000" stroke-width="2"/>
<circle cx="63.00" cy="116.00" r="3" fill="#6495ED"/>
<circle cx="76.00" cy="112.00" r="3" fill="#6495ED"/>
<circle cx="68.00" cy="127.00" r="3" fill="#6495ED"/>
<circle cx="53.00" cy="182.00" r="3" fill="#6495ED"/>
<circle cx="91.00" cy="150.00" r="3" fill="#6495ED"/>
<circle cx="81.00" cy="130.00" r="3" fill="#6495ED"/>
<circle cx="88.00" cy="171.00" r="3" fill="#6495ED"/>
<circle cx="24.00" cy="118.00" r="3" fill="#6495ED"/>
<circle cx="32.00" cy="149.00" r="3" fill="#6495ED"/>
<circle cx="37.00" cy="177.00" r="3" fill="#6495ED"/>
<circle cx="27.00" cy="146.00" r="3" fill="#6495ED"/>
<circle cx="84.00" cy="181.00" r="3" fill="#6495ED"/>
<circle cx="75.00" cy="113.00" r="3" fill="#6495ED"/>
<circle cx="44.00" cy="158.00" r="3" fill="#6495ED"/>
<circle cx="77.00" cy="133.00" r="3" fill="#6495ED"/>
<circle cx="90.00" cy="170.00" r="3" fill="#6495ED"/>
<circle cx="36.00" cy="139.00" r="3" fill="#6495ED"/>
<circle cx="32.00" cy="135.00" r="3" fill="#6495ED"/>
<circle cx="81.00" cy="153.00" r="3" fill="#6495ED"/>
<circle cx="88.00" cy="142.00" r="3" fill="#6495ED"/>
<circle cx="68.00" cy="127.00" r="3" fill="#6495ED"/>
<circle cx="49.00" cy="105.00" r="3" fill="#6495ED"/>
<circle cx="81.00" cy="140.00" r="3" fill="#6495ED"/>
<circle cx="87.00" cy="150.00" r="3" fill="#6495ED"/>
<circle cx="78.00" cy="184.00" r="3" fill="#6495ED"/>
<circle cx="79.00" cy="179.00" r="3" fill="#6495ED"/>
<circle cx="30.00" cy="178.00" r="3" fill="#6495ED"/>
<circle cx="78.00" cy="157.00" r="3" fill="#6495ED"/>
<circle cx="26.00" cy="115.00" r="3" fill="#6495ED"/>
<circle cx="48.00" cy="166.00" r="3" fill="#6495ED"/>
<circle cx="35.00" cy="165.00" r="3" fill="#6495ED"/>
<circle cx="36.00" cy="160.00" r="3" fill="#6495ED"/>
<circle cx="31.00" cy="121.00" r="3" fill="#6495ED"/>
<circle cx="83.00" cy="171.00" r="3" fill="#6495ED"/>
<circle cx="27.00" cy="116.00" r="3" fill="#6495ED"/>
<circle cx="52.00" cy="102.00" r="3" fill="#6495ED"/>
<circle cx="72.00" cy="105.00" r="3" fill="#6495ED"/>
<circle cx="85.00" cy="129.00" r="3" fill="#6495ED"/>
<circle cx="75.00" cy="116.00" r="3" fill="#6495ED"/>
<circle cx="75.00" cy="123.00" r="3" fill="#6495ED"/>
<circle cx="81.00" cy="171.00" r="3" fill="#6495ED"/>
<circle cx="77.00" cy="127.00" r="3" fill="#6495ED"/>
<circle cx="41.00" cy="158.00" r="3" fill="#6495ED"/>
<circle cx="83.00" cy="128.00" r="3" fill="#6495ED"/>
<circle cx="23.00" cy="164.00" r="3" fill="#6495ED"/>
<circle cx="89.00" cy="147.00" r="3" fill="#6495ED"/>
<circle cx="27.00" cy="143.00" r="3" fill="#6495ED"/>
<circle cx="57.00" cy="103.00" r="3" fill="#6495ED"/>
<circle cx="27.00" cy="123.00" r="3" fill="#6495ED"/>
<circle cx="39.00" cy="112.00" r="3" fill="#6495ED"/>
<circle cx="60.00" cy="119.00" r="3" fill="#6495ED"/>
<circle cx="80.00" cy="128.00" r="3" fill="#6495ED"/>
<circle cx="54.00" cy="168.00" r="3" fill="#6495ED"/>
<circle cx="55.00" cy="174.00" r="3" fill="#6495ED"/>
<circle cx="62.00" cy="178.00" r="3" fill="#6495ED"/>
<circle cx="70.00" cy="180.00" r="3" fill="#6495ED"/>
<circle cx="76.00" cy="173.00" r="3" fill="#6495ED"/>
<circle cx="84.00" cy="165.00" r="3" fill="#6495ED"/>
<circle cx="87.00" cy="158.00" r="3" fill="#6495ED"/>
<circle cx="82.00" cy="146.00" r="3" fill="#6495ED"/>
<circle cx="83.00" cy="136.00" r="3" fill="#6495ED"/>
<circle cx="69.00" cy="114.00" r="3" fill="#6495ED"/>
<circle cx="60.00" cy="110.00" r="3" fill="#6495ED"/>
<circle cx="50.00" cy="114.00" r="3" fill="#6495ED"/>
<circle cx="43.00" cy="120.00" r="3" fill="#6495ED"/>
<circle cx="36.00" cy="127.00" r="3" fill="#6495ED"/>
<circle cx="36.00" cy="132.00" r="3" fill="#6495ED"/>
<circle cx="40.00" cy="125.00" r="3" fill="#6495ED"/>
<circle cx="24.00" cy="133.00" r="3" fill="#6495ED"/>
<circle cx="23.00" cy="140.00" r="3" fill="#6495ED"/>
<circle cx="26.00" cy="156.00" r="3" fill="#6495ED"/>
<circle cx="28.00" cy="167.00" r="3" fill="#6495ED"/>
<circle cx="40.00" cy="168.00" r="3" fill="#6495ED"/>
<circle cx="43.00" cy="181.00" r="3" fill="#6495ED"/>
<circle cx="65.00" cy="184.00" r="3" fill="#6495ED"/>
<circle cx="73.00" cy="184.00" r="3" fill="#6495ED"/>
<circle cx="38.00" cy="154.00" r="3" fill="#6495ED"/>
<circle cx="31.00" cy="141.00" r="3" fill="#6495ED"/>
<circle cx="34.00" cy="114.00" r="3" fill="#6495ED"/>
<circle cx="45.00" cy="110.00" r="3" fill="#6495ED"/>
<circle cx="64.00" cy="103.00" r="3" fill="#6495ED"/>
</svg>
