<svg xmlns="http://www.w3.org/2000/svg" width="200" height="200" viewBox="0 0 200 200">
<rect width="200" height="200" fill="white"/>
<path d="M 125.9300,117.7100 L 120.4800,103.9100 L 129.9800,102.1300 L 125.9300,117.7100 Z" fill="#ff0000" fill-opacity="0.13" stroke="#770000" stroke-width="2"/>
<path d="M 150.6600,115.7800 L 145.8600,127.1700 L 158.9100,129.9600 L 150.6600,115.7800 Z" fill="#ff0000" fill-opacity="0.13" stroke="#770000" stroke-width="2"/>
<path d="M 83.0100,69.0400 L 81.0700,91.0000 L 63.0100,81.9500 L 83.0100,69.0400 Z" fill="#ff0000" fill-opacity="0.13" stroke="#770000" stroke-width="2"/>
<path d="M 145.8600,127.1700 L 131.8000,135.9500 L 141.3600,138.2000 L 145.8600,127.1700 Z" fill="#ff0000" fill-opacity="0.13" stroke="#770000" stroke-width="2"/>
<path d="M 87.9900,76.1000 L 92.5300,62.2300 L 82.3900,68.7200 L 87.9900,76.1000 Z" fill="#ff0000" fill-opacity="0.13" stroke="#770000" stroke-width="2"/>
<path d="M 41.2100,130.2600 L 38.1800,144.5200 L 38.1200,144.6100 L 41.2100,130.2600 Z" fill="#ff0000" fill-opacity="0.13" stroke="#770000" stroke-width="2"/>
<path d="M 42.5100,130.9700 L 38.1800,144.5200 L 41.2100,130.2600 L 42.5100,130.9700 Z" fill="#ff0000" fill-opacity="0.13" stroke="#770000" stroke-width="2"/>
<path d="M 154.1000,146.8100 L 145.8600,127.1700 L 141.3600,138.2000 L 154.1000,146.8100 Z" fill="#ff0000" fill-opacity="0.13" stroke="#770000" stroke-width="2"/>
<path d="M 142.5200,164.0600 L 154.7900,147.6000 L 158.8200,163.5500 L 142.5200,164.0600 Z" fill="#ff0000" fill-opacity="0.13" stroke="#770000" stroke-width="2"/>
<path d="M 138.7000,151.1400 L 141.3600,138.2000 L 131.8000,135.9500 L 138.7000,151.1400 Z" fill="#ff0000" fill-opacity="0.13" stroke="#770000" stroke-width="2"/>
<path d="M 145.8600,127.1700 L 154.1000,146.8100 L 158.9100,129.9600 L 145.8600,127.1700 Z" fill="#ff0000" fill-opacity="0.13" stroke="#770000" stroke-width="2"/>
<path d="M 83.3600,116.8500 L 83.1700,118.3100 L 81.0700,91.0000 L 83.3600,116.8500 Z" fill="#ff0000" fill-opacity="0.13" stroke="#770000" stroke-width="2"/>
<path d="M 98.8000,117.0000 L 83.1700,118.3100 L 83.3600,116.8500 L 98.8000,117.0000 Z" fill="#ff0000" fill-opacity="0.13" stroke="#770000" stroke-width="2"/>
<path d="M 41.2100,130.2600 L 49.7400,115.9000 L 49.5200,115.7500 L 41.2100,130.2600 Z" fill="#ff0000" fill-opacity="0.13" stroke="#770000" stroke-width="2"/>
<path d="M 81.0700,91.0000 L 83.1700,118.3100 L 68.5100,104.9000 L 81.0700,91.0000 Z" fill="#ff0000" fill-opacity="0.13" stroke="#770000" stroke-width="2"/>
<path d="M 123.5000,128.8200 L 113.9900,136.0200 L 111.7700,117.6000 L 123.5000,128.8200 Z" fill="#ff0000" fill-opacity="0.13" stroke="#770000" stroke-width="2"/>
<path d="M 148.0000,180.8600 L 173.3300,182.0700 L 166.0200,173.0100 L 148.0000,180.8600 Z" fill="#ff0000" fill-opacity="0.13" stroke="#770000" stroke-width="2"/>
<path d="M 158.8200,163.5500 L 166.1000,173.0600 L 150.1500,167.8100 L 158.8200,163.5500 Z" fill="#ff0000" fill-opacity="0.13" stroke="#770000" stroke-width="2"/>
<path d="M 176.0100,179.1700 L 170.1500,163.6600 L 166.0200,173.0100 L 176.0100,179.1700 Z" fill="#ff0000" fill-opacity="0.13" stroke="#770000" stroke-width="2"/>
<path d="M 176.0100,179.1700 L 166.0200,173.0100 L 173.3300,182.0700 L 176.0100,179.1700 Z" fill="#ff0000" fill-opacity="0.13" stroke="#770000" stroke-width="2"/>
<path d="M 63.0000,135.8800 L 45.8200,142.3300 L 42.5100,130.9700 L 63.0000,135.8800 Z" fill="#ff0000" fill-opacity="0.13" stroke="#770000" stroke-width="2"/>
<path d="M 103.1100,36.3200 L 91.9900,28.8500 L 86.6000,40.5200 L 103.1100,36.3200 Z" fill="#ff0000" fill-opacity="0.13" stroke="#770000" stroke-width="2"/>
<path d="M 87.9900,76.1000 L 67.9600,86.9500 L 81.2700,91.3000 L 87.9900,76.1000 Z" fill="#ff0000" fill-opacity="0.13" stroke="#770000" stroke-width="2"/>
<path d="M 81.0600,136.0000 L 58.8400,152.1300 L 81.0500,136.0000 L 81.0600,136.0000 Z" fill="#ff0000" fill-opacity="0.13" stroke="#770000" stroke-width="2"/>
<path d="M 81.0600,136.0000 L 81.0500,136.0000 L 99.2300,136.6300 L 81.0600,136.0000 Z" fill="#ff0000" fill-opacity="0.13" stroke="#770000" stroke-width="2"/>
<path d="M 112.2300,66.6700 L 103.0600,61.6600 L 109.8800,77.9400 L 112.2300,66.6700 Z" fill="#ff0000" fill-opacity="0.13" stroke="#770000" stroke-width="2"/>
<path d="M 99.2300,136.6300 L 98.9000,136.3500 L 113.6700,138.1500 L 99.2300,136.6300 Z" fill="#ff0000" fill-opacity="0.13" stroke="#770000" stroke-width="2"/>
<path d="M 126.5500,72.7200 L 117.6100,78.7300 L 131.8000,87.1900 L 126.5500,72.7200 Z" fill="#ff0000" fill-opacity="0.13" stroke="#770000" stroke-width="2"/>
<path d="M 38.1200,144.6100 L 33.5900,154.2300 L 34.4300,154.9300 L 38.1200,144.6100 Z" fill="#ff0000" fill-opacity="0.13" stroke="#770000" stroke-width="2"/>
<path d="M 60.9500,116.0400 L 63.0000,135.8800 L 49.5200,115.7500 L 60.9500,116.0400 Z" fill="#ff0000" fill-opacity="0.13" stroke="#770000" stroke-width="2"/>
<path d="M 146.4400,127.2000 L 140.7200,137.5600 L 131.4500,136.7600 L 146.4400,127.2000 Z" fill="#ff0000" fill-opacity="0.13" stroke="#770000" stroke-width="2"/>
<path d="M 146.4400,127.2000 L 131.4500,136.7600 L 123.5000,128.8200 L 146.4400,127.2000 Z" fill="#ff0000" fill-opacity="0.13" stroke="#770000" stroke-width="2"/>
<path d="M 141.9100,164.5700 L 142.5200,164.0600 L 148.0000,180.8600 L 141.9100,164.5700 Z" fill="#ff0000" fill-opacity="0.13" stroke="#770000" stroke-width="2"/>
<path d="M 98.9000,136.3500 L 113.9900,136.0200 L 113.6700,138.1500 L 98.9000,136.3500 Z" fill="#ff0000" fill-opacity="0.13" stroke="#770000" stroke-width="2"/>
<path d="M 29.8300,163.8300 L 34.4300,154.9300 L 33.5900,154.2300 L 29.8300,163.8300 Z" fill="#ff0000" fill-opacity="0.13" stroke="#770000" stroke-width="2"/>
<path d="M 63.0000,135.8800 L 57.2200,151.1000 L 45.8200,142.3300 L 63.0000,135.8800 Z" fill="#ff0000" fill-opacity="0.13" stroke="#770000" stroke-width="2"/>
<path d="M 100.7600,124.3200 L 98.9000,136.3500 L 81.0500,136.0000 L 100.7600,124.3200 Z" fill="#ff0000" fill-opacity="0.13" stroke="#770000" stroke-width="2"/>
<path d="M 158.9100,129.9600 L 164.9200,148.0800 L 154.7900,147.6000 L 158.9100,129.9600 Z" fill="#ff0000" fill-opacity="0.13" stroke="#770000" stroke-width="2"/>
<path d="M 158.9100,129.9600 L 154.1000,146.8100 L 164.9200,148.0800 L 158.9100,129.9600 Z" fill="#ff0000" fill-opacity="0.13" stroke="#770000" stroke-width="2"/>
<path d="M 118.8800,57.3700 L 99.2300,48.6500 L 119.2200,47.0100 L 118.8800,57.3700 Z" fill="#ff0000" fill-opacity="0.13" stroke="#770000" stroke-width="2"/>
<path d="M 118.8800,57.3700 L 102.9900,62.0000 L 99.2300,48.6500 L 118.8800,57.3700 Z" fill="#ff0000" fill-opacity="0.13" stroke="#770000" stroke-width="2"/>
<path d="M 143.1000,100.2100 L 150.6600,115.7800 L 143.2900,99.8600 L 143.1000,100.2100 Z" fill="#ff0000" fill-opacity="0.13" stroke="#770000" stroke-width="2"/>
<path d="M 143.1000,100.2100 L 143.2900,99.8600 L 140.8200,85.8000 L 143.1000,100.2100 Z" fill="#ff0000" fill-opacity="0.13" stroke="#770000" stroke-width="2"/>
<path d="M 119.8600,35.5800 L 117.5900,47.3800 L 127.8100,49.7800 L 119.8600,35.5800 Z" fill="#ff0000" fill-opacity="0.13" stroke="#770000" stroke-width="2"/>
<path d="M 99.2300,48.6500 L 86.0000,40.2500 L 102.7000,36.1300 L 99.2300,48.6500 Z" fill="#ff0000" fill-opacity="0.13" stroke="#770000" stroke-width="2"/>
<path d="M 166.1000,173.0600 L 158.8200,163.5500 L 170.1500,163.6600 L 166.1000,173.0600 Z" fill="#ff0000" fill-opacity="0.13" stroke="#770000" stroke-width="2"/>
<path d="M 173.3300,182.0700 L 166.1000,173.0600 L 176.0100,179.1700 L 173.3300,182.0700 Z" fill="#ff0000" fill-opacity="0.13" stroke="#770000" stroke-width="2"/>
<path d="M 119.2200,47.0100 L 102.7000,36.1300 L 118.7200,36.1900 L 119.2200,47.0100 Z" fill="#ff0000" fill-opacity="0.13" stroke="#770000" stroke-width="2"/>
<path d="M 149.8800,116.0100 L 125.9300,117.7100 L 129.9800,102.1300 L 149.8800,116.0100 Z" fill="#ff0000" fill-opacity="0.13" stroke="#770000" stroke-width="2"/>
<path d="M 126.3900,117.8200 L 130.1100,101.6700 L 119.9700,104.4500 L 126.3900,117.8200 Z" fill="#ff0000" fill-opacity="0.13" stroke="#770000" stroke-width="2"/>
<path d="M 112.0900,118.3700 L 126.3900,117.8200 L 119.9700,104.4500 L 112.0900,118.3700 Z" fill="#ff0000" fill-opacity="0.13" stroke="#770000" stroke-width="2"/>
<path d="M 170.1500,163.6600 L 176.0100,179.1700 L 166.1000,173.0600 L 170.1500,163.6600 Z" fill="#ff0000" fill-opacity="0.13" stroke="#770000" stroke-width="2"/>
<path d="M 83.3600,116.8500 L 81.0600,136.0000 L 99.2400,117.8900 L 83.3600,116.8500 Z" fill="#ff0000" fill-opacity="0.13" stroke="#770000" stroke-width="2"/>
<path d="M 99.2300,136.6300 L 99.2400,117.8900 L 81.0600,136.0000 L 99.2300,136.6300 Z" fill="#ff0000" fill-opacity="0.13" stroke="#770000" stroke-width="2"/>
<path d="M 56.6600,150.7800 L 52.2200,164.1000 L 58.8400,152.1300 L 56.6600,150.7800 Z" fill="#ff0000" fill-opacity="0.13" stroke="#770000" stroke-width="2"/>
<path d="M 114.0900,135.6500 L 99.2300,136.6300 L 113.6700,138.1500 L 114.0900,135.6500 Z" fill="#ff0000" fill-opacity="0.13" stroke="#770000" stroke-width="2"/>
<path d="M 125.9300,117.7100 L 111.7700,117.6000 L 120.4800,103.9100 L 125.9300,117.7100 Z" fill="#ff0000" fill-opacity="0.13" stroke="#770000" stroke-width="2"/>
<path d="M 132.2800,68.8900 L 112.2100,67.0000 L 118.8800,57.3700 L 132.2800,68.8900 Z" fill="#ff0000" fill-opacity="0.13" stroke="#770000" stroke-width="2"/>
<path d="M 81.2700,91.3000 L 83.3600,116.8500 L 81.0700,91.0000 L 81.2700,91.3000 Z" fill="#ff0000" fill-opacity="0.13" stroke="#770000" stroke-width="2"/>
<path d="M 25.5700,182.1400 L 42.5300,168.1300 L 24.0000,179.1200 L 25.5700,182.1400 Z" fill="#ff0000" fill-opacity="0.13" stroke="#770000" stroke-width="2"/>
<path d="M 24.0000,179.1200 L 43.1000,168.8700 L 25.5700,182.1400 L 24.0000,179.1200 Z" fill="#ff0000" fill-opacity="0.13" stroke="#770000" stroke-width="2"/>
<path d="M 132.2800,68.8900 L 132.9200,68.6500 L 140.8200,85.8000 L 132.2800,68.8900 Z" fill="#ff0000" fill-opacity="0.13" stroke="#770000" stroke-width="2"/>
<path d="M 142.5200,164.0600 L 150.1500,167.8100 L 148.0000,180.8600 L 142.5200,164.0600 Z" fill="#ff0000" fill-opacity="0.13" stroke="#770000" stroke-width="2"/>
<path d="M 52.2200,164.1000 L 42.5300,168.1300 L 47.0500,181.9100 L 52.2200,164.1000 Z" fill="#ff0000" fill-opacity="0.13" stroke="#770000" stroke-width="2"/>
<path d="M 99.2300,136.6300 L 81.0500,136.0000 L 98.9000,136.3500 L 99.2300,136.6300 Z" fill="#ff0000" fill-opacity="0.13" stroke="#770000" stroke-width="2"/>
<path d="M 83.3600,116.8500 L 81.2700,91.3000 L 69.7600,118.1000 L 83.3600,116.8500 Z" fill="#ff0000" fill-opacity="0.13" stroke="#770000" stroke-width="2"/>
<path d="M 138.1600,151.0600 L 131.4500,136.7600 L 140.7200,137.5600 L 138.1600,151.0600 Z" fill="#ff0000" fill-opacity="0.13" stroke="#770000" stroke-width="2"/>
<path d="M 170.1500,163.6600 L 164.9200,148.0800 L 159.2100,163.4100 L 170.1500,163.6600 Z" fill="#ff0000" fill-opacity="0.13" stroke="#770000" stroke-width="2"/>
<path d="M 170.1500,163.6600 L 159.2100,163.4100 L 166.0200,173.0100 L 170.1500,163.6600 Z" fill="#ff0000" fill-opacity="0.13" stroke="#770000" stroke-width="2"/>
<path d="M 60.9300,115.1000 L 69.7600,118.1000 L 56.7300,99.8500 L 60.9300,115.1000 Z" fill="#ff0000" fill-opacity="0.13" stroke="#770000" stroke-width="2"/>
<path d="M 60.9300,115.1000 L 56.7300,99.8500 L 49.7400,115.9000 L 60.9300,115.1000 Z" fill="#ff0000" fill-opacity="0.13" stroke="#770000" stroke-width="2"/>
<path d="M 120.4800,103.9100 L 111.7700,117.6000 L 112.1700,92.1800 L 120.4800,103.9100 Z" fill="#ff0000" fill-opacity="0.13" stroke="#770000" stroke-width="2"/>
<path d="M 112.1700,92.1800 L 109.2000,78.5800 L 117.1500,78.0000 L 112.1700,92.1800 Z" fill="#ff0000" fill-opacity="0.13" stroke="#770000" stroke-width="2"/>
<path d="M 113.6700,138.1500 L 131.4500,136.7600 L 138.1600,151.0600 L 113.6700,138.1500 Z" fill="#ff0000" fill-opacity="0.13" stroke="#770000" stroke-width="2"/>
<path d="M 113.6700,138.1500 L 138.1600,151.0600 L 138.7000,151.1400 L 113.6700,138.1500 Z" fill="#ff0000" fill-opacity="0.13" stroke="#770000" stroke-width="2"/>
<path d="M 70.5500,118.2500 L 63.7500,97.4200 L 68.5100,104.9000 L 70.5500,118.2500 Z" fill="#ff0000" fill-opacity="0.13" stroke="#770000" stroke-width="2"/>
<path d="M 81.0700,91.0000 L 68.5100,104.9000 L 63.7500,97.4200 L 81.0700,91.0000 Z" fill="#ff0000" fill-opacity="0.13" stroke="#770000" stroke-width="2"/>
<path d="M 149.9100,166.9900 L 138.7000,151.1400 L 141.9100,164.5700 L 149.9100,166.9900 Z" fill="#ff0000" fill-opacity="0.13" stroke="#770000" stroke-width="2"/>
<path d="M 131.8000,135.9500 L 113.6700,138.1500 L 138.7000,151.1400 L 131.8000,135.9500 Z" fill="#ff0000" fill-opacity="0.13" stroke="#770000" stroke-width="2"/>
<path d="M 114.0900,135.6500 L 113.6700,138.1500 L 131.8000,135.9500 L 114.0900,135.6500 Z" fill="#ff0000" fill-opacity="0.13" stroke="#770000" stroke-width="2"/>
<path d="M 25.5700,182.1400 L 43.1000,168.8700 L 47.0500,181.9100 L 25.5700,182.1400 Z" fill="#ff0000" fill-opacity="0.13" stroke="#770000" stroke-width="2"/>
<path d="M 41.2100,130.2600 L 62.8700,136.3100 L 49.7400,115.9000 L 41.2100,130.2600 Z" fill="#ff0000" fill-opacity="0.13" stroke="#770000" stroke-width="2"/>
<path d="M 131.8000,135.9500 L 123.0100,128.9500 L 114.0900,135.6500 L 131.8000,135.9500 Z" fill="#ff0000" fill-opacity="0.13" stroke="#770000" stroke-width="2"/>
<path d="M 37.0200,154.3800 L 45.8200,142.3300 L 57.2200,151.1000 L 37.0200,154.3800 Z" fill="#ff0000" fill-opacity="0.13" stroke="#770000" stroke-width="2"/>
<path d="M 52.8900,164.5600 L 37.0200,154.3800 L 57.2200,151.1000 L 52.8900,164.5600 Z" fill="#ff0000" fill-opacity="0.13" stroke="#770000" stroke-width="2"/>
<path d="M 63.0000,135.8800 L 60.9500,116.0400 L 70.5500,118.2500 L 63.0000,135.8800 Z" fill="#ff0000" fill-opacity="0.13" stroke="#770000" stroke-width="2"/>
<path d="M 173.3300,182.0700 L 148.0000,180.8600 L 166.1000,173.0600 L 173.3300,182.0700 Z" fill="#ff0000" fill-opacity="0.13" stroke="#770000" stroke-width="2"/>
<path d="M 56.1900,99.5000 L 49.5200,115.7500 L 49.7400,115.9000 L 56.1900,99.5000 Z" fill="#ff0000" fill-opacity="0.13" stroke="#770000" stroke-width="2"/>
<path d="M 126.3900,117.8200 L 150.6600,115.7800 L 143.1000,100.2100 L 126.3900,117.8200 Z" fill="#ff0000" fill-opacity="0.13" stroke="#770000" stroke-width="2"/>
<path d="M 145.8600,127.1700 L 150.6600,115.7800 L 126.3900,117.8200 L 145.8600,127.1700 Z" fill="#ff0000" fill-opacity="0.13" stroke="#770000" stroke-width="2"/>
<path d="M 132.2800,68.8900 L 131.6200,86.1100 L 117.1500,78.0000 L 132.2800,68.8900 Z" fill="#ff0000" fill-opacity="0.13" stroke="#770000" stroke-width="2"/>
<path d="M 88.0700,57.8000 L 88.7100,76.3800 L 83.0100,69.0400 L 88.0700,57.8000 Z" fill="#ff0000" fill-opacity="0.13" stroke="#770000" stroke-width="2"/>
<path d="M 113.9900,136.0200 L 98.9000,136.3500 L 100.7600,124.3200 L 113.9900,136.0200 Z" fill="#ff0000" fill-opacity="0.13" stroke="#770000" stroke-width="2"/>
<path d="M 63.0000,135.8800 L 70.5500,118.2500 L 81.0500,136.0000 L 63.0000,135.8800 Z" fill="#ff0000" fill-opacity="0.13" stroke="#770000" stroke-width="2"/>
<path d="M 118.7200,36.1900 L 119.8600,35.5800 L 127.8100,49.7800 L 118.7200,36.1900 Z" fill="#ff0000" fill-opacity="0.13" stroke="#770000" stroke-width="2"/>
<path d="M 109.5200,28.4100 L 119.8600,35.5800 L 114.0400,19.2200 L 109.5200,28.4100 Z" fill="#ff0000" fill-opacity="0.13" stroke="#770000" stroke-width="2"/>
<path d="M 149.8800,116.0100 L 146.4400,127.2000 L 125.9300,117.7100 L 149.8800,116.0100 Z" fill="#ff0000" fill-opacity="0.13" stroke="#770000" stroke-width="2"/>
<path d="M 63.0100,81.9500 L 63.7500,97.4200 L 56.1900,99.5000 L 63.0100,81.9500 Z" fill="#ff0000" fill-opacity="0.13" stroke="#770000" stroke-width="2"/>
<path d="M 61.8400,81.8100 L 63.0100,81.9500 L 56.1900,99.5000 L 61.8400,81.8100 Z" fill="#ff0000" fill-opacity="0.13" stroke="#770000" stroke-width="2"/>
<path d="M 112.0900,118.3700 L 114.0900,135.6500 L 123.0100,128.9500 L 112.0900,118.3700 Z" fill="#ff0000" fill-opacity="0.13" stroke="#770000" stroke-width="2"/>
<path d="M 112.1700,92.1800 L 99.2400,117.8900 L 119.9700,104.4500 L 112.1700,92.1800 Z" fill="#ff0000" fill-opacity="0.13" stroke="#770000" stroke-width="2"/>
<path d="M 149.8800,116.0100 L 143.2900,99.8600 L 150.6600,115.7800 L 149.8800,116.0100 Z" fill="#ff0000" fill-opacity="0.13" stroke="#770000" stroke-width="2"/>
<path d="M 58.8400,152.1300 L 52.8900,164.5600 L 57.2200,151.1000 L 58.8400,152.1300 Z" fill="#ff0000" fill-opacity="0.13" stroke="#770000" stroke-width="2"/>
<path d="M 73.9000,50.9900 L 79.1000,34.9400 L 86.0000,40.2500 L 73.9000,50.9900 Z" fill="#ff0000" fill-opacity="0.13" stroke="#770000" stroke-width="2"/>
<path d="M 73.9000,50.9900 L 73.5300,50.8200 L 79.1000,34.9400 L 73.9000,50.9900 Z" fill="#ff0000" fill-opacity="0.13" stroke="#770000" stroke-width="2"/>
<path d="M 83.0100,69.0400 L 88.7100,76.3800 L 81.0700,91.0000 L 83.0100,69.0400 Z" fill="#ff0000" fill-opacity="0.13" stroke="#770000" stroke-width="2"/>
<path d="M 62.8700,136.3100 L 69.7600,118.1000 L 60.9300,115.1000 L 62.8700,136.3100 Z" fill="#ff0000" fill-opacity="0.13" stroke="#770000" stroke-width="2"/>
<path d="M 62.8700,136.3100 L 60.9300,115.1000 L 49.7400,115.9000 L 62.8700,136.3100 Z" fill="#ff0000" fill-opacity="0.13" stroke="#770000" stroke-width="2"/>
<path d="M 81.0600,136.0000 L 69.7600,118.1000 L 62.8700,136.3100 L 81.0600,136.0000 Z" fill="#ff0000" fill-opacity="0.13" stroke="#770000" stroke-width="2"/>
<path d="M 83.0100,69.0400 L 65.8300,66.7800 L 73.9000,50.9900 L 83.0100,69.0400 Z" fill="#ff0000" fill-opacity="0.13" stroke="#770000" stroke-width="2"/>
<path d="M 112.1700,92.1800 L 117.6100,78.7300 L 109.8800,77.9400 L 112.1700,92.1800 Z" fill="#ff0000" fill-opacity="0.13" stroke="#770000" stroke-width="2"/>
<path d="M 70.5500,118.2500 L 68.5100,104.9000 L 83.1700,118.3100 L 70.5500,118.2500 Z" fill="#ff0000" fill-opacity="0.13" stroke="#770000" stroke-width="2"/>
<path d="M 41.2100,130.2600 L 49.5200,115.7500 L 42.5100,130.9700 L 41.2100,130.2600 Z" fill="#ff0000" fill-opacity="0.13" stroke="#770000" stroke-width="2"/>
<path d="M 111.7700,117.6000 L 113.9900,136.0200 L 100.7600,124.3200 L 111.7700,117.6000 Z" fill="#ff0000" fill-opacity="0.13" stroke="#770000" stroke-width="2"/>
<path d="M 88.0700,57.8000 L 73.9000,50.9900 L 86.0000,40.2500 L 88.0700,57.8000 Z" fill="#ff0000" fill-opacity="0.13" stroke="#770000" stroke-width="2"/>
<path d="M 100.8900,17.8200 L 92.0300,29.0400 L 86.5700,18.3600 L 100.8900,17.8200 Z" fill="#ff0000" fill-opacity="0.13" stroke="#770000" stroke-width="2"/>
<path d="M 126.3900,117.8200 L 131.8000,135.9500 L 145.8600,127.1700 L 126.3900,117.8200 Z" fill="#ff0000" fill-opacity="0.13" stroke="#770000" stroke-width="2"/>
<path d="M 129.9800,102.1300 L 143.2900,99.8600 L 149.8800,116.0100 L 129.9800,102.1300 Z" fill="#ff0000" fill-opacity="0.13" stroke="#770000" stroke-width="2"/>
<path d="M 154.7900,147.6000 L 146.4400,127.2000 L 158.9100,129.9600 L 154.7900,147.6000 Z" fill="#ff0000" fill-opacity="0.13" stroke="#770000" stroke-width="2"/>
<path d="M 146.4400,127.2000 L 154.7900,147.6000 L 140.7200,137.5600 L 146.4400,127.2000 Z" fill="#ff0000" fill-opacity="0.13" stroke="#770000" stroke-width="2"/>
<path d="M 125.9300,117.7100 L 146.4400,127.2000 L 123.5000,128.8200 L 125.9300,117.7100 Z" fill="#ff0000" fill-opacity="0.13" stroke="#770000" stroke-width="2"/>
<path d="M 149.8800,116.0100 L 158.9100,129.9600 L 146.4400,127.2000 L 149.8800,116.0100 Z" fill="#ff0000" fill-opacity="0.13" stroke="#770000" stroke-width="2"/>
<path d="M 117.6100,78.7300 L 126.5500,72.7200 L 112.2300,66.6700 L 117.6100,78.7300 Z" fill="#ff0000" fill-opacity="0.13" stroke="#770000" stroke-width="2"/>
<path d="M 130.1100,101.6700 L 131.8000,87.1900 L 119.9700,104.4500 L 130.1100,101.6700 Z" fill="#ff0000" fill-opacity="0.13" stroke="#770000" stroke-width="2"/>
<path d="M 164.9200,148.0800 L 170.1500,163.6600 L 158.8200,163.5500 L 164.9200,148.0800 Z" fill="#ff0000" fill-opacity="0.13" stroke="#770000" stroke-width="2"/>
<path d="M 154.1000,146.8100 L 159.2100,163.4100 L 164.9200,148.0800 L 154.1000,146.8100 Z" fill="#ff0000" fill-opacity="0.13" stroke="#770000" stroke-width="2"/>
<path d="M 126.3900,117.8200 L 123.0100,128.9500 L 131.8000,135.9500 L 126.3900,117.8200 Z" fill="#ff0000" fill-opacity="0.13" stroke="#770000" stroke-width="2"/>
<path d="M 149.8800,116.0100 L 150.6600,115.7800 L 158.9100,129.9600 L 149.8800,116.0100 Z" fill="#ff0000" fill-opacity="0.13" stroke="#770000" stroke-width="2"/>
<path d="M 123.5000,128.8200 L 111.7700,117.6000 L 125.9300,117.7100 L 123.5000,128.8200 Z" fill="#ff0000" fill-opacity="0.13" stroke="#770000" stroke-width="2"/>
<path d="M 149.9100,166.9900 L 159.2100,163.4100 L 154.1000,146.8100 L 149.9100,166.9900 Z" fill="#ff0000" fill-opacity="0.13" stroke="#770000" stroke-width="2"/>
<path d="M 166.0200,173.0100 L 149.9100,166.9900 L 148.0000,180.8600 L 166.0200,173.0100 Z" fill="#ff0000" fill-opacity="0.13" stroke="#770000" stroke-width="2"/>
<path d="M 126.3900,117.8200 L 112.0900,118.3700 L 123.0100,128.9500 L 126.3900,117.8200 Z" fill="#ff0000" fill-opacity="0.13" stroke="#770000" stroke-width="2"/>
<path d="M 114.0400,19.2200 L 119.8600,35.5800 L 118.7200,36.1900 L 114.0400,19.2200 Z" fill="#ff0000" fill-opacity="0.13" stroke="#770000" stroke-width="2"/>
<path d="M 154.1000,146.8100 L 141.3600,138.2000 L 138.7000,151.1400 L 154.1000,146.8100 Z" fill="#ff0000" fill-opacity="0.13" stroke="#770000" stroke-width="2"/>
<path d="M 138.7000,151.1400 L 149.9100,166.9900 L 154.1000,146.8100 L 138.7000,151.1400 Z" fill="#ff0000" fill-opacity="0.13" stroke="#770000" stroke-width="2"/>
<path d="M 166.1000,173.0600 L 148.0000,180.8600 L 150.1500,167.8100 L 166.1000,173.0600 Z" fill="#ff0000" fill-opacity="0.13" stroke="#770000" stroke-width="2"/>
<path d="M 158.8200,163.5500 L 150.1500,167.8100 L 142.5200,164.0600 L 158.8200,163.5500 Z" fill="#ff0000" fill-opacity="0.13" stroke="#770000" stroke-width="2"/>
<path d="M 38.1200,144.6100 L 38.1800,144.5200 L 33.5900,154.2300 L 38.1200,144.6100 Z" fill="#ff0000" fill-opacity="0.13" stroke="#770000" stroke-width="2"/>
<path d="M 33.5900,154.2300 L 38.1800,144.5200 L 37.0200,154.3800 L 33.5900,154.2300 Z" fill="#ff0000" fill-opacity="0.13" stroke="#770000" stroke-width="2"/>
<path d="M 149.9100,166.9900 L 141.9100,164.5700 L 148.0000,180.8600 L 149.9100,166.9900 Z" fill="#ff0000" fill-opacity="0.13" stroke="#770000" stroke-width="2"/>
<path d="M 47.0500,181.9100 L 42.5300,168.1300 L 25.5700,182.1400 L 47.0500,181.9100 Z" fill="#ff0000" fill-opacity="0.13" stroke="#770000" stroke-width="2"/>
<path d="M 100.8900,17.8200 L 114.0400,19.2200 L 109.5300,28.9400 L 100.8900,17.8200 Z" fill="#ff0000" fill-opacity="0.13" stroke="#770000" stroke-width="2"/>
<path d="M 42.5300,168.1300 L 52.2200,164.1000 L 34.4300,154.9300 L 42.5300,168.1300 Z" fill="#ff0000" fill-opacity="0.13" stroke="#770000" stroke-width="2"/>
<path d="M 42.5300,168.1300 L 29.8300,163.8300 L 24.0000,179.1200 L 42.5300,168.1300 Z" fill="#ff0000" fill-opacity="0.13" stroke="#770000" stroke-width="2"/>
<path d="M 29.8300,163.8300 L 43.1000,168.8700 L 24.0000,179.1200 L 29.8300,163.8300 Z" fill="#ff0000" fill-opacity="0.13" stroke="#770000" stroke-width="2"/>
<path d="M 34.4300,154.9300 L 52.2200,164.1000 L 56.6600,150.7800 L 34.4300,154.9300 Z" fill="#ff0000" fill-opacity="0.13" stroke="#770000" stroke-width="2"/>
<path d="M 63.0000,135.8800 L 81.0500,136.0000 L 58.8400,152.1300 L 63.0000,135.8800 Z" fill="#ff0000" fill-opacity="0.13" stroke="#770000" stroke-width="2"/>
<path d="M 63.0000,135.8800 L 58.8400,152.1300 L 57.2200,151.1000 L 63.0000,135.8800 Z" fill="#ff0000" fill-opacity="0.13" stroke="#770000" stroke-width="2"/>
<path d="M 62.8700,136.3100 L 58.8400,152.1300 L 81.0600,136.0000 L 62.8700,136.3100 Z" fill="#ff0000" fill-opacity="0.13" stroke="#770000" stroke-width="2"/>
<path d="M 88.0700,57.8000 L 86.0000,40.2500 L 99.2300,48.6500 L 88.0700,57.8000 Z" fill="#ff0000" fill-opacity="0.13" stroke="#770000" stroke-width="2"/>
<path d="M 38.1200,144.6100 L 56.6600,150.7800 L 46.4500,141.5800 L 38.1200,144.6100 Z" fill="#ff0000" fill-opacity="0.13" stroke="#770000" stroke-width="2"/>
<path d="M 38.1200,144.6100 L 34.4300,154.9300 L 56.6600,150.7800 L 38.1200,144.6100 Z" fill="#ff0000" fill-opacity="0.13" stroke="#770000" stroke-width="2"/>
<path d="M 45.8200,142.3300 L 37.0200,154.3800 L 38.1800,144.5200 L 45.8200,142.3300 Z" fill="#ff0000" fill-opacity="0.13" stroke="#770000" stroke-width="2"/>
<path d="M 37.0200,154.3800 L 43.1000,168.8700 L 33.5900,154.2300 L 37.0200,154.3800 Z" fill="#ff0000" fill-opacity="0.13" stroke="#770000" stroke-width="2"/>
<path d="M 29.8300,163.8300 L 33.5900,154.2300 L 43.1000,168.8700 L 29.8300,163.8300 Z" fill="#ff0000" fill-opacity="0.13" stroke="#770000" stroke-width="2"/>
<path d="M 164.9200,148.0800 L 158.8200,163.5500 L 154.7900,147.6000 L 164.9200,148.0800 Z" fill="#ff0000" fill-opacity="0.13" stroke="#770000" stroke-width="2"/>
<path d="M 42.5300,168.1300 L 34.4300,154.9300 L 29.8300,163.8300 L 42.5300,168.1300 Z" fill="#ff0000" fill-opacity="0.13" stroke="#770000" stroke-width="2"/>
<path d="M 81.2700,91.3000 L 67.9600,86.9500 L 56.7300,99.8500 L 81.2700,91.3000 Z" fill="#ff0000" fill-opacity="0.13" stroke="#770000" stroke-width="2"/>
<path d="M 81.2700,91.3000 L 56.7300,99.8500 L 69.7600,118.1000 L 81.2700,91.3000 Z" fill="#ff0000" fill-opacity="0.13" stroke="#770000" stroke-width="2"/>
<path d="M 87.9900,76.1000 L 82.3900,68.7200 L 67.9600,86.9500 L 87.9900,76.1000 Z" fill="#ff0000" fill-opacity="0.13" stroke="#770000" stroke-width="2"/>
<path d="M 56.6600,150.7800 L 58.8400,152.1300 L 62.8700,136.3100 L 56.6600,150.7800 Z" fill="#ff0000" fill-opacity="0.13" stroke="#770000" stroke-width="2"/>
<path d="M 117.5900,47.3800 L 103.0600,61.6600 L 119.4500,56.2800 L 117.5900,47.3800 Z" fill="#ff0000" fill-opacity="0.13" stroke="#770000" stroke-width="2"/>
<path d="M 79.1000,34.9400 L 86.5700,18.3600 L 92.0300,29.0400 L 79.1000,34.9400 Z" fill="#ff0000" fill-opacity="0.13" stroke="#770000" stroke-width="2"/>
<path d="M 56.1900,99.5000 L 63.7500,97.4200 L 60.9500,116.0400 L 56.1900,99.5000 Z" fill="#ff0000" fill-opacity="0.13" stroke="#770000" stroke-width="2"/>
<path d="M 114.0400,19.2200 L 100.8900,17.8200 L 109.5200,28.4100 L 114.0400,19.2200 Z" fill="#ff0000" fill-opacity="0.13" stroke="#770000" stroke-width="2"/>
<path d="M 83.3600,116.8500 L 69.7600,118.1000 L 81.0600,136.0000 L 83.3600,116.8500 Z" fill="#ff0000" fill-opacity="0.13" stroke="#770000" stroke-width="2"/>
<path d="M 70.5500,118.2500 L 83.1700,118.3100 L 81.0500,136.0000 L 70.5500,118.2500 Z" fill="#ff0000" fill-opacity="0.13" stroke="#770000" stroke-width="2"/>
<path d="M 42.5100,130.9700 L 49.5200,115.7500 L 63.0000,135.8800 L 42.5100,130.9700 Z" fill="#ff0000" fill-opacity="0.13" stroke="#770000" stroke-width="2"/>
<path d="M 56.1900,99.5000 L 60.9500,116.0400 L 49.5200,115.7500 L 56.1900,99.5000 Z" fill="#ff0000" fill-opacity="0.13" stroke="#770000" stroke-width="2"/>
<path d="M 52.2200,164.1000 L 52.8900,164.5600 L 58.8400,152.1300 L 52.2200,164.1000 Z" fill="#ff0000" fill-opacity="0.13" stroke="#770000" stroke-width="2"/>
<path d="M 81.0500,136.0000 L 83.1700,118.3100 L 100.7600,124.3200 L 81.0500,136.0000 Z" fill="#ff0000" fill-opacity="0.13" stroke="#770000" stroke-width="2"/>
<path d="M 131.8000,87.1900 L 117.6100,78.7300 L 112.1700,92.1800 L 131.8000,87.1900 Z" fill="#ff0000" fill-opacity="0.13" stroke="#770000" stroke-width="2"/>
<path d="M 119.9700,104.4500 L 131.8000,87.1900 L 112.1700,92.1800 L 119.9700,104.4500 Z" fill="#ff0000" fill-opacity="0.13" stroke="#770000" stroke-width="2"/>
<path d="M 143.1000,100.2100 L 130.1100,101.6700 L 126.3900,117.8200 L 143.1000,100.2100 Z" fill="#ff0000" fill-opacity="0.13" stroke="#770000" stroke-width="2"/>
<path d="M 87.9900,76.1000 L 81.2700,91.3000 L 88.7100,76.3800 L 87.9900,76.1000 Z" fill="#ff0000" fill-opacity="0.13" stroke="#770000" stroke-width="2"/>
<path d="M 87.9900,76.1000 L 88.7100,76.3800 L 112.1700,92.1800 L 87.9900,76.1000 Z" fill="#ff0000" fill-opacity="0.13" stroke="#770000" stroke-width="2"/>
<path d="M 112.1700,92.1800 L 109.8800,77.9400 L 87.9900,76.1000 L 112.1700,92.1800 Z" fill="#ff0000" fill-opacity="0.13" stroke="#770000" stroke-width="2"/>
<path d="M 88.7100,76.3800 L 109.2000,78.5800 L 112.1700,92.1800 L 88.7100,76.3800 Z" fill="#ff0000" fill-opacity="0.13" stroke="#770000" stroke-width="2"/>
<path d="M 63.0100,81.9500 L 81.0700,91.0000 L 63.7500,97.4200 L 63.0100,81.9500 Z" fill="#ff0000" fill-opacity="0.13" stroke="#770000" stroke-width="2"/>
<path d="M 47.0500,181.9100 L 52.8900,164.5600 L 52.2200,164.1000 L 47.0500,181.9100 Z" fill="#ff0000" fill-opacity="0.13" stroke="#770000" stroke-width="2"/>
<path d="M 132.9200,68.6500 L 126.5500,72.7200 L 131.8000,87.1900 L 132.9200,68.6500 Z" fill="#ff0000" fill-opacity="0.13" stroke="#770000" stroke-width="2"/>
<path d="M 60.9500,116.0400 L 63.7500,97.4200 L 70.5500,118.2500 L 60.9500,116.0400 Z" fill="#ff0000" fill-opacity="0.13" stroke="#770000" stroke-width="2"/>
<path d="M 117.5900,47.3800 L 99.1400,49.5600 L 103.0600,61.6600 L 117.5900,47.3800 Z" fill="#ff0000" fill-opacity="0.13" stroke="#770000" stroke-width="2"/>
<path d="M 118.8800,57.3700 L 112.2100,67.0000 L 102.9900,62.0000 L 118.8800,57.3700 Z" fill="#ff0000" fill-opacity="0.13" stroke="#770000" stroke-width="2"/>
<path d="M 119.2200,47.0100 L 99.2300,48.6500 L 102.7000,36.1300 L 119.2200,47.0100 Z" fill="#ff0000" fill-opacity="0.13" stroke="#770000" stroke-width="2"/>
<path d="M 65.8300,66.7800 L 73.5300,50.8200 L 73.9000,50.9900 L 65.8300,66.7800 Z" fill="#ff0000" fill-opacity="0.13" stroke="#770000" stroke-width="2"/>
<path d="M 103.1100,36.3200 L 86.6000,40.5200 L 99.1400,49.5600 L 103.1100,36.3200 Z" fill="#ff0000" fill-opacity="0.13" stroke="#770000" stroke-width="2"/>
<path d="M 83.0100,69.0400 L 63.0100,81.9500 L 65.8300,66.7800 L 83.0100,69.0400 Z" fill="#ff0000" fill-opacity="0.13" stroke="#770000" stroke-width="2"/>
<path d="M 83.0100,69.0400 L 73.9000,50.9900 L 88.0700,57.8000 L 83.0100,69.0400 Z" fill="#ff0000" fill-opacity="0.13" stroke="#770000" stroke-width="2"/>
<path d="M 65.8300,66.7800 L 63.0100,81.9500 L 61.8400,81.8100 L 65.8300,66.7800 Z" fill="#ff0000" fill-opacity="0.13" stroke="#770000" stroke-width="2"/>
<path d="M 86.3200,57.0500 L 86.6000,40.5200 L 73.5300,50.8200 L 86.3200,57.0500 Z" fill="#ff0000" fill-opacity="0.13" stroke="#770000" stroke-width="2"/>
<path d="M 118.7200,36.1900 L 109.5300,28.9400 L 114.0400,19.2200 L 118.7200,36.1900 Z" fill="#ff0000" fill-opacity="0.13" stroke="#770000" stroke-width="2"/>
<path d="M 100.8900,17.8200 L 109.5300,28.9400 L 92.0300,29.0400 L 100.8900,17.8200 Z" fill="#ff0000" fill-opacity="0.13" stroke="#770000" stroke-width="2"/>
<path d="M 118.7200,36.1900 L 102.7000,36.1300 L 109.5300,28.9400 L 118.7200,36.1900 Z" fill="#ff0000" fill-opacity="0.13" stroke="#770000" stroke-width="2"/>
<path d="M 73.5300,50.8200 L 82.3900,68.7200 L 86.3200,57.0500 L 73.5300,50.8200 Z" fill="#ff0000" fill-opacity="0.13" stroke="#770000" stroke-width="2"/>
<path d="M 109.5200,28.4100 L 91.9900,28.8500 L 103.1100,36.3200 L 109.5200,28.4100 Z" fill="#ff0000" fill-opacity="0.13" stroke="#770000" stroke-width="2"/>
<path d="M 109.8800,77.9400 L 103.0600,61.6600 L 87.9900,76.1000 L 109.8800,77.9400 Z" fill="#ff0000" fill-opacity="0.13" stroke="#770000" stroke-width="2"/>
<path d="M 61.8400,81.8100 L 56.1900,99.5000 L 56.7300,99.8500 L 61.8400,81.8100 Z" fill="#ff0000" fill-opacity="0.13" stroke="#770000" stroke-width="2"/>
<path d="M 102.9900,62.0000 L 112.2100,67.0000 L 109.2000,78.5800 L 102.9900,62.0000 Z" fill="#ff0000" fill-opacity="0.13" stroke="#770000" stroke-width="2"/>
<path d="M 81.2700,91.3000 L 81.0700,91.0000 L 88.7100,76.3800 L 81.2700,91.3000 Z" fill="#ff0000" fill-opacity="0.13" stroke="#770000" stroke-width="2"/>
<path d="M 86.6000,40.5200 L 91.9900,28.8500 L 79.1000,34.9400 L 86.6000,40.5200 Z" fill="#ff0000" fill-opacity="0.13" stroke="#770000" stroke-width="2"/>
<path d="M 73.5300,50.8200 L 86.6000,40.5200 L 79.1000,34.9400 L 73.5300,50.8200 Z" fill="#ff0000" fill-opacity="0.13" stroke="#770000" stroke-width="2"/>
<path d="M 61.8400,81.8100 L 82.3900,68.7200 L 65.8300,66.7800 L 61.8400,81.8100 Z" fill="#ff0000" fill-opacity="0.13" stroke="#770000" stroke-width="2"/>
<path d="M 67.9600,86.9500 L 82.3900,68.7200 L 61.8400,81.8100 L 67.9600,86.9500 Z" fill="#ff0000" fill-opacity="0.13" stroke="#770000" stroke-width="2"/>
<path d="M 112.2300,66.6700 L 119.4500,56.2800 L 103.0600,61.6600 L 112.2300,66.6700 Z" fill="#ff0000" fill-opacity="0.13" stroke="#770000" stroke-width="2"/>
<path d="M 118.8800,57.3700 L 119.2200,47.0100 L 127.8100,49.7800 L 118.8800,57.3700 Z" fill="#ff0000" fill-opacity="0.13" stroke="#770000" stroke-width="2"/>
<path d="M 117.5900,47.3800 L 119.4500,56.2800 L 127.8100,49.7800 L 117.5900,47.3800 Z" fill="#ff0000" fill-opacity="0.13" stroke="#770000" stroke-width="2"/>
<path d="M 120.4800,103.9100 L 131.6200,86.1100 L 129.9800,102.1300 L 120.4800,103.9100 Z" fill="#ff0000" fill-opacity="0.13" stroke="#770000" stroke-width="2"/>
<path d="M 112.1700,92.1800 L 117.1500,78.0000 L 131.6200,86.1100 L 112.1700,92.1800 Z" fill="#ff0000" fill-opacity="0.13" stroke="#770000" stroke-width="2"/>
<path d="M 112.1700,92.1800 L 131.6200,86.1100 L 120.4800,103.9100 L 112.1700,92.1800 Z" fill="#ff0000" fill-opacity="0.13" stroke="#770000" stroke-width="2"/>
<path d="M 86.5700,18.3600 L 79.1000,34.9400 L 91.9900,28.8500 L 86.5700,18.3600 Z" fill="#ff0000" fill-opacity="0.13" stroke="#770000" stroke-width="2"/>
<path d="M 143.2900,99.8600 L 129.9800,102.1300 L 131.6200,86.1100 L 143.2900,99.8600 Z" fill="#ff0000" fill-opacity="0.13" stroke="#770000" stroke-width="2"/>
<path d="M 140.8200,85.8000 L 143.2900,99.8600 L 131.6200,86.1100 L 140.8200,85.8000 Z" fill="#ff0000" fill-opacity="0.13" stroke="#770000" stroke-width="2"/>
<path d="M 140.8200,85.8000 L 131.6200,86.1100 L 132.2800,68.8900 L 140.8200,85.8000 Z" fill="#ff0000" fill-opacity="0.13" stroke="#770000" stroke-width="2"/>
<path d="M 132.2800,68.8900 L 127.8100,49.7800 L 132.9200,68.6500 L 132.2800,68.8900 Z" fill="#ff0000" fill-opacity="0.13" stroke="#770000" stroke-width="2"/>
<path d="M 99.2400,117.8900 L 98.8000,117.0000 L 83.3600,116.8500 L 99.2400,117.8900 Z" fill="#ff0000" fill-opacity="0.13" stroke="#770000" stroke-width="2"/>
<path d="M 73.5300,50.8200 L 65.8300,66.7800 L 82.3900,68.7200 L 73.5300,50.8200 Z" fill="#ff0000" fill-opacity="0.13" stroke="#770000" stroke-width="2"/>
<path d="M 117.5900,47.3800 L 103.1100,36.3200 L 99.1400,49.5600 L 117.5900,47.3800 Z" fill="#ff0000" fill-opacity="0.13" stroke="#770000" stroke-width="2"/>
<path d="M 119.8600,35.5800 L 103.1100,36.3200 L 117.5900,47.3800 L 119.8600,35.5800 Z" fill="#ff0000" fill-opacity="0.13" stroke="#770000" stroke-width="2"/>
<path d="M 86.3200,57.0500 L 82.3900,68.7200 L 92.5300,62.2300 L 86.3200,57.0500 Z" fill="#ff0000" fill-opacity="0.13" stroke="#770000" stroke-width="2"/>
<path d="M 117.1500,78.0000 L 112.2100,67.0000 L 132.2800,68.8900 L 117.1500,78.0000 Z" fill="#ff0000" fill-opacity="0.13" stroke="#770000" stroke-width="2"/>
<path d="M 118.8800,57.3700 L 127.8100,49.7800 L 132.2800,68.8900 L 118.8800,57.3700 Z" fill="#ff0000" fill-opacity="0.13" stroke="#770000" stroke-width="2"/>
<path d="M 127.8100,49.7800 L 119.2200,47.0100 L 118.7200,36.1900 L 127.8100,49.7800 Z" fill="#ff0000" fill-opacity="0.13" stroke="#770000" stroke-width="2"/>
<path d="M 88.0700,57.8000 L 99.2300,48.6500 L 102.9900,62.0000 L 88.0700,57.8000 Z" fill="#ff0000" fill-opacity="0.13" stroke="#770000" stroke-width="2"/>
<path d="M 102.7000,36.1300 L 86.0000,40.2500 L 92.0300,29.0400 L 102.7000,36.1300 Z" fill="#ff0000" fill-opacity="0.13" stroke="#770000" stroke-width="2"/>
<path d="M 88.0700,57.8000 L 102.9900,62.0000 L 88.7100,76.3800 L 88.0700,57.8000 Z" fill="#ff0000" fill-opacity="0.13" stroke="#770000" stroke-width="2"/>
<path d="M 99.2400,117.8900 L 99.2300,136.6300 L 112.0900,118.3700 L 99.2400,117.8900 Z" fill="#ff0000" fill-opacity="0.13" stroke="#770000" stroke-width="2"/>
<path d="M 114.0900,135.6500 L 112.0900,118.3700 L 99.2300,136.6300 L 114.0900,135.6500 Z" fill="#ff0000" fill-opacity="0.13" stroke="#770000" stroke-width="2"/>
<path d="M 112.0900,118.3700 L 119.9700,104.4500 L 99.2400,117.8900 L 112.0900,118.3700 Z" fill="#ff0000" fill-opacity="0.13" stroke="#770000" stroke-width="2"/>
<path d="M 131.8000,87.1900 L 130.1100,101.6700 L 143.1000,100.2100 L 131.8000,87.1900 Z" fill="#ff0000" fill-opacity="0.13" stroke="#770000" stroke-width="2"/>
<path d="M 86.5700,18.3600 L 91.9900,28.8500 L 100.8900,17.8200 L 86.5700,18.3600 Z" fill="#ff0000" fill-opacity="0.13" stroke="#770000" stroke-width="2"/>
<path d="M 111.7700,117.6000 L 100.7600,124.3200 L 98.8000,117.0000 L 111.7700,117.6000 Z" fill="#ff0000" fill-opacity="0.13" stroke="#770000" stroke-width="2"/>
<path d="M 140.8200,85.8000 L 131.8000,87.1900 L 143.1000,100.2100 L 140.8200,85.8000 Z" fill="#ff0000" fill-opacity="0.13" stroke="#770000" stroke-width="2"/>
<path d="M 132.9200,68.6500 L 131.8000,87.1900 L 140.8200,85.8000 L 132.9200,68.6500 Z" fill="#ff0000" fill-opacity="0.13" stroke="#770000" stroke-width="2"/>
<path d="M 117.6100,78.7300 L 112.2300,66.6700 L 109.8800,77.9400 L 117.6100,78.7300 Z" fill="#ff0000" fill-opacity="0.13" stroke="#770000" stroke-width="2"/>
<path d="M 67.9600,86.9500 L 61.8400,81.8100 L 56.7300,99.8500 L 67.9600,86.9500 Z" fill="#ff0000" fill-opacity="0.13" stroke="#770000" stroke-width="2"/>
<path d="M 109.5200,28.4100 L 103.1100,36.3200 L 119.8600,35.5800 L 109.5200,28.4100 Z" fill="#ff0000" fill-opacity="0.13" stroke="#770000" stroke-width="2"/>
<path d="M 117.1500,78.0000 L 109.2000,78.5800 L 112.2100,67.0000 L 117.1500,78.0000 Z" fill="#ff0000" fill-opacity="0.13" stroke="#770000" stroke-width="2"/>
<path d="M 99.1400,49.5600 L 86.3200,57.0500 L 92.5300,62.2300 L 99.1400,49.5600 Z" fill="#ff0000" fill-opacity="0.13" stroke="#770000" stroke-width="2"/>
<path d="M 99.1400,49.5600 L 86.6000,40.5200 L 86.3200,57.0500 L 99.1400,49.5600 Z" fill="#ff0000" fill-opacity="0.13" stroke="#770000" stroke-width="2"/>
<path d="M 112.1700,92.1800 L 98.8000,117.0000 L 99.2400,117.8900 L 112.1700,92.1800 Z" fill="#ff0000" fill-opacity="0.13" stroke="#770000" stroke-width="2"/>
<path d="M 92.0300,29.0400 L 86.0000,40.2500 L 79.1000,34.9400 L 92.0300,29.0400 Z" fill="#ff0000" fill-opacity="0.13" stroke="#770000" stroke-width="2"/>
<path d="M 127.8100,49.7800 L 119.4500,56.2800 L 132.9200,68.6500 L 127.8100,49.7800 Z" fill="#ff0000" fill-opacity="0.13" stroke="#770000" stroke-width="2"/>
<path d="M 92.5300,62.2300 L 103.0600,61.6600 L 99.1400,49.5600 L 92.5300,62.2300 Z" fill="#ff0000" fill-opacity="0.13" stroke="#770000" stroke-width="2"/>
<path d="M 109.5200,28.4100 L 100.8900,17.8200 L 91.9900,28.8500 L 109.5200,28.4100 Z" fill="#ff0000" fill-opacity="0.13" stroke="#770000" stroke-width="2"/>
<path d="M 92.0300,29.0400 L 109.5300,28.9400 L 102.7000,36.1300 L 92.0300,29.0400 Z" fill="#ff0000" fill-opacity="0.13" stroke="#770000" stroke-width="2"/>
<path d="M 88.7100,76.3800 L 102.9900,62.0000 L 109.2000,78.5800 L 88.7100,76.3800 Z" fill="#ff0000" fill-opacity="0.13" stroke="#770000" stroke-width="2"/>
<path d="M 87.9900,76.1000 L 103.0600,61.6600 L 92.5300,62.2300 L 87.9900,76.1000 Z" fill="#ff0000" fill-opacity="0.13" stroke="#770000" stroke-width="2"/>
<path d="M 112.2300,66.6700 L 126.5500,72.7200 L 119.4500,56.2800 L 112.2300,66.6700 Z" fill="#ff0000" fill-opacity="0.13" stroke="#770000" stroke-width="2"/>
<path d="M 132.9200,68.6500 L 119.4500,56.2800 L 126.5500,72.7200 L 132.9200,68.6500 Z" fill="#ff0000" fill-opacity="0.13" stroke="#770000" stroke-width="2"/>
<path d="M 111.7700,117.6000 L 98.8000,117.0000 L 112.1700,92.1800 L 111.7700,117.6000 Z" fill="#ff0000" fill-opacity="0.13" stroke="#770000" stroke-width="2"/>
<path d="M 100.7600,124.3200 L 83.1700,118.3100 L 98.8000,117.0000 L 100.7600,124.3200 Z" fill="#ff0000" fill-opacity="0.13" stroke="#770000" stroke-width="2"/>
<path d="M 49.7400,115.9000 L 56.7300,99.8500 L 56.1900,99.5000 L 49.7400,115.9000 Z" fill="#ff0000" fill-opacity="0.13" stroke="#770000" stroke-width="2"/>
<path d="M 43.1000,168.8700 L 52.8900,164.5600 L 47.0500,181.9100 L 43.1000,168.8700 Z" fill="#ff0000" fill-opacity="0.13" stroke="#770000" stroke-width="2"/>
<path d="M 37.0200,154.3800 L 52.8900,164.5600 L 43.1000,168.8700 L 37.0200,154.3800 Z" fill="#ff0000" fill-opacity="0.13" stroke="#770000" stroke-width="2"/>
<path d="M 45.8200,142.3300 L 38.1800,144.5200 L 42.5100,130.9700 L 45.8200,142.3300 Z" fill="#ff0000" fill-opacity="0.13" stroke="#770000" stroke-width="2"/>
<path d="M 41.2100,130.2600 L 38.1200,144.6100 L 46.4500,141.5800 L 41.2100,130.2600 Z" fill="#ff0000" fill-opacity="0.13" stroke="#770000" stroke-width="2"/>
<path d="M 62.8700,136.3100 L 46.4500,141.5800 L 56.6600,150.7800 L 62.8700,136.3100 Z" fill="#ff0000" fill-opacity="0.13" stroke="#770000" stroke-width="2"/>
<path d="M 41.2100,130.2600 L 46.4500,141.5800 L 62.8700,136.3100 L 41.2100,130.2600 Z" fill="#ff0000" fill-opacity="0.13" stroke="#770000" stroke-width="2"/>
<path d="M 166.0200,173.0100 L 159.2100,163.4100 L 149.9100,166.9900 L 166.0200,173.0100 Z" fill="#ff0000" fill-opacity="0.13" stroke="#770000" stroke-width="2"/>
<path d="M 140.7200,137.5600 L 154.7900,147.6000 L 138.1600,151.0600 L 140.7200,137.5600 Z" fill="#ff0000" fill-opacity="0.13" stroke="#770000" stroke-width="2"/>
<path d="M 142.5200,164.0600 L 141.9100,164.5700 L 138.1600,151.0600 L 142.5200,164.0600 Z" fill="#ff0000" fill-opacity="0.13" stroke="#770000" stroke-width="2"/>
<path d="M 138.7000,151.1400 L 138.1600,151.0600 L 141.9100,164.5700 L 138.7000,151.1400 Z" fill="#ff0000" fill-opacity="0.13" stroke="#770000" stroke-width="2"/>
<path d="M 142.5200,164.0600 L 138.1600,151.0600 L 154.7900,147.6000 L 142.5200,164.0600 Z" fill="#ff0000" fill-opacity="0.13" stroke="#770000" stroke-width="2"/>
<path d="M 113.9900,136.0200 L 131.4500,136.7600 L 113.6700,138.1500 L 113.9900,136.0200 Z" fill="#ff0000" fill-opacity="0.13" stroke="#770000" stroke-width="2"/>
<path d="M 123.5000,128.8200 L 131.4500,136.7600 L 113.9900,136.0200 L 123.5000,128.8200 Z" fill="#ff0000" fill-opacity="0.13" stroke="#770000" stroke-width="2"/>
<circle cx="132.00" cy="136.00" r="3" fill="#6495ED"/>
<circle cx="114.00" cy="136.00" r="3" fill="#6495ED"/>
<circle cx="99.00" cy="136.00" r="3" fill="#6495ED"/>
<circle cx="81.00" cy="136.00" r="3" fill="#6495ED"/>
<circle cx="63.00" cy="136.00" r="3" fill="#6495ED"/>
<circle cx="57.00" cy="151.00" r="3" fill="#6495ED"/>
<circle cx="52.00" cy="164.00" r="3" fill="#6495ED"/>
<circle cx="46.00" cy="180.00" r="3" fill="#6495ED"/>
<circle cx="37.00" cy="180.00" r="3" fill="#6495ED"/>
<circle cx="26.00" cy="180.00" r="3" fill="#6495ED"/>
<circle cx="32.00" cy="164.00" r="3" fill="#6495ED"/>
<circle cx="39.00" cy="145.00" r="3" fill="#6495ED"/>
<circle cx="43.00" cy="131.00" r="3" fill="#6495ED"/>
<circle cx="50.00" cy="116.00" r="3" fill="#6495ED"/>
<circle cx="57.00" cy="100.00" r="3" fill="#6495ED"/>
<circle cx="63.00" cy="82.00" r="3" fill="#6495ED"/>
<circle cx="68.00" cy="67.00" r="3" fill="#6495ED"/>
<circle cx="74.00" cy="51.00" r="3" fill="#6495ED"/>
<circle cx="81.00" cy="36.00" r="3" fill="#6495ED"/>
<circle cx="88.00" cy="20.00" r="3" fill="#6495ED"/>
<circle cx="101.00" cy="20.00" r="3" fill="#6495ED"/>
<circle cx="112.00" cy="20.00" r="3" fill="#6495ED"/>
<circle cx="119.00" cy="36.00" r="3" fill="#6495ED"/>
<circle cx="126.00" cy="51.00" r="3" fill="#6495ED"/>
<circle cx="132.00" cy="69.00" r="3" fill="#6495ED"/>
<circle cx="139.00" cy="87.00" r="3" fill="#6495ED"/>
<circle cx="143.00" cy="100.00" r="3" fill="#6495ED"/>
<circle cx="150.00" cy="116.00" r="3" fill="#6495ED"/>
<circle cx="157.00" cy="131.00" r="3" fill="#6495ED"/>
<circle cx="163.00" cy="149.00" r="3" fill="#6495ED"/>
<circle cx="168.00" cy="164.00" r="3" fill="#6495ED"/>
<circle cx="174.00" cy="180.00" r="3" fill="#6495ED"/>
<circle cx="163.00" cy="180.00" r="3" fill="#6495ED"/>
<circle cx="150.00" cy="180.00" r="3" fill="#6495ED"/>
<circle cx="143.00" cy="164.00" r="3" fill="#6495ED"/>
<circle cx="139.00" cy="151.00" r="3" fill="#6495ED"/>
<circle cx="132.00" cy="136.00" r="3" fill="#6495ED"/>
<circle cx="99.00" cy="49.00" r="3" fill="#6495ED"/>
<circle cx="92.00" cy="62.00" r="3" fill="#6495ED"/>
<circle cx="88.00" cy="76.00" r="3" fill="#6495ED"/>
<circle cx="81.00" cy="91.00" r="3" fill="#6495ED"/>
<circle cx="74.00" cy="107.00" r="3" fill="#6495ED"/>
<circle cx="70.00" cy="118.00" r="3" fill="#6495ED"/>
<circle cx="83.00" cy="118.00" r="3" fill="#6495ED"/>
<circle cx="99.00" cy="118.00" r="3" fill="#6495ED"/>
<circle cx="112.00" cy="118.00" r="3" fill="#6495ED"/>
<circle cx="126.00" cy="118.00" r="3" fill="#6495ED"/>
<circle cx="121.00" cy="104.00" r="3" fill="#6495ED"/>
<circle cx="114.00" cy="91.00" r="3" fill="#6495ED"/>
<circle cx="110.00" cy="78.00" r="3" fill="#6495ED"/>
<circle cx="103.00" cy="62.00" r="3" fill="#6495ED"/>
<circle cx="99.00" cy="49.00" r="3" fill="#6495ED"/>
<circle cx="34.00" cy="173.00" r="3" fill="#6495ED"/>
<circle cx="43.00" cy="169.00" r="3" fill="#6495ED"/>
<circle cx="48.00" cy="156.00" r="3" fill="#6495ED"/>
<circle cx="46.00" cy="142.00" r="3" fill="#6495ED"/>
<circle cx="52.00" cy="127.00" r="3" fill="#6495ED"/>
<circle cx="63.00" cy="127.00" r="3" fill="#6495ED"/>
<circle cx="61.00" cy="116.00" r="3" fill="#6495ED"/>
<circle cx="72.00" cy="129.00" r="3" fill="#6495ED"/>
<circle cx="90.00" cy="131.00" r="3" fill="#6495ED"/>
<circle cx="101.00" cy="124.00" r="3" fill="#6495ED"/>
<circle cx="123.00" cy="129.00" r="3" fill="#6495ED"/>
<circle cx="141.00" cy="138.00" r="3" fill="#6495ED"/>
<circle cx="166.00" cy="173.00" r="3" fill="#6495ED"/>
<circle cx="150.00" cy="167.00" r="3" fill="#6495ED"/>
<circle cx="159.00" cy="164.00" r="3" fill="#6495ED"/>
<circle cx="146.00" cy="156.00" r="3" fill="#6495ED"/>
<circle cx="154.00" cy="147.00" r="3" fill="#6495ED"/>
<circle cx="152.00" cy="138.00" r="3" fill="#6495ED"/>
<circle cx="146.00" cy="127.00" r="3" fill="#6495ED"/>
<circle cx="134.00" cy="124.00" r="3" fill="#6495ED"/>
<circle cx="143.00" cy="118.00" r="3" fill="#6495ED"/>
<circle cx="141.00" cy="109.00" r="3" fill="#6495ED"/>
<circle cx="130.00" cy="102.00" r="3" fill="#6495ED"/>
<circle cx="126.00" cy="96.00" r="3" fill="#6495ED"/>
<circle cx="132.00" cy="87.00" r="3" fill="#6495ED"/>
<circle cx="128.00" cy="73.00" r="3" fill="#6495ED"/>
<circle cx="117.00" cy="78.00" r="3" fill="#6495ED"/>
<circle cx="112.00" cy="67.00" r="3" fill="#6495ED"/>
<circle cx="119.00" cy="56.00" r="3" fill="#6495ED"/>
<circle cx="108.00" cy="53.00" r="3" fill="#6495ED"/>
<circle cx="119.00" cy="47.00" r="3" fill="#6495ED"/>
<circle cx="110.00" cy="29.00" r="3" fill="#6495ED"/>
<circle cx="103.00" cy="36.00" r="3" fill="#6495ED"/>
<circle cx="92.00" cy="29.00" r="3" fill="#6495ED"/>
<circle cx="86.00" cy="40.00" r="3" fill="#6495ED"/>
<circle cx="88.00" cy="58.00" r="3" fill="#6495ED"/>
<circle cx="79.00" cy="60.00" r="3" fill="#6495ED"/>
<circle cx="72.00" cy="76.00" r="3" fill="#6495ED"/>
<circle cx="83.00" cy="69.00" r="3" fill="#6495ED"/>
<circle cx="79.00" cy="82.00" r="3" fill="#6495ED"/>
<circle cx="68.00" cy="87.00" r="3" fill="#6495ED"/>
<circle cx="63.00" cy="98.00" r="3" fill="#6495ED"/>
<circle cx="68.00" cy="107.00" r="3" fill="#6495ED"/>
<circle cx="35.00" cy="155.00" r="3" fill="#6495ED"/>
</svg>
