<svg xmlns="http://www.w3.org/2000/svg" width="200" height="200" viewBox="0 0 200 200">
<rect width="200" height="200" fill="white"/>
<path d="M 190.0000,10.0000 L 164.0399,35.9601 L 190.0000,60.0000 Z" fill="#C0D0F0" fill-opacity="0.50" stroke="#6495ED" stroke-width="2"/>
<path d="M 10.0000,10.0000 L 40.6971,40.6971 L 164.0399,35.9601 L 190.0000,10.0000 Z" fill="#C0D0F0" fill-opacity="0.50" stroke="#6495ED" stroke-width="2"/>
<path d="M 10.0000,190.0000 L 35.0000,165.0000 L 35.0000,46.8492 L 40.6971,40.6971 L 10.0000,10.0000 Z" fill="#C0D0F0" fill-opacity="0.50" stroke="#6495ED" stroke-width="2"/>
<path d="M 190.0000,190.0000 L 184.1886,184.1886 L 158.3772,180.0000 L 50.0000,180.0000 L 35.0000,165.0000 L 10.0000,190.0000 Z" fill="#C0D0F0" fill-opacity="0.50" stroke="#6495ED" stroke-width="2"/>
<path d="M 190.0000,180.0000 L 184.1886,184.1886 L 190.0000,190.0000 Z" fill="#C0D0F0" fill-opacity="0.50" stroke="#6495ED" stroke-width="2"/>
<path d="M 160.0000,170.0000 L 158.3772,180.0000 L 184.1886,184.1886 L 190.0000,180.0000 Z" fill="#C0D0F0" fill-opacity="0.50" stroke="#6495ED" stroke-width="2"/>
<path d="M 60.0000,170.0000 L 50.0000,180.0000 L 158.3772,180.0000 L 160.0000,170.0000 Z" fill="#C0D0F0" fill-opacity="0.50" stroke="#6495ED" stroke-width="2"/>
<path d="M 60.0000,70.0000 L 35.0000,46.8492 L 35.0000,165.0000 L 50.0000,180.0000 L 60.0000,170.0000 Z" fill="#C0D0F0" fill-opacity="0.50" stroke="#6495ED" stroke-width="2"/>
<path d="M 190.0000,60.0000 L 164.0399,35.9601 L 40.6971,40.6971 L 35.0000,46.8492 L 60.0000,70.0000 Z" fill="#C0D0F0" fill-opacity="0.50" stroke="#6495ED" stroke-width="2"/>
</svg>
