<svg xmlns="http://www.w3.org/2000/svg" width="200" height="200" viewBox="0 0 200 200">
<rect width="200" height="200" fill="white"/>
<path d="M 23.5000,176.5000 L 23.5000,26.5000 L 173.5000,26.5000 L 173.5000,176.5000 L 23.5000,176.5000 ZM 108.0000,102.0000 L 108.0000,164.0000 L 156.0000,163.0000 L 155.0000,101.0000 L 108.0000,102.0000 ZM 107.0000,42.5000 L 107.0000,93.5000 L 135.0000,92.5000 L 133.0000,72.5000 L 143.5000,72.5000 L 143.5000,91.5000 L 153.5000,90.5000 L 151.5000,34.0000 L 107.0000,42.5000 ZM 41.0000,104.5000 L 41.0000,165.0000 L 100.5000,164.0000 L 98.5000,132.0000 L 78.5000,132.0000 L 77.5000,103.5000 L 41.0000,104.5000 ZM 39.0000,50.0000 L 40.0000,96.0000 L 97.5000,93.5000 L 95.5000,48.0000 L 39.0000,50.0000 Z" fill="#C0D0F0" fill-opacity="0.50" stroke="#6495ED" stroke-width="2"/>
</svg>
