<svg xmlns="http://www.w3.org/2000/svg" width="200" height="200" viewBox="0 0 200 200">
<rect width="200" height="200" fill="white"/>
<polyline points="10.00,190.00 100.00,100.00" fill="none" stroke="#6495ED" stroke-width="4" stroke-linecap="round" stroke-linejoin="round"/>
<path d="M 80.0000,150.0000 L 79.4236,155.8527 L 77.7164,161.4805 L 74.9441,166.6671 L 71.2132,171.2132 L 66.6671,174.9441 L 61.4805,177.7164 L 55.8527,179.4236 L 50.0000,180.0000 L 44.1473,179.4236 L 38.5195,177.7164 L 33.3329,174.9441 L 28.7868,171.2132 L 25.0559,166.6671 L 22.2836,161.4805 L 20.5764,155.8527 L 20.0000,150.0000 L 20.5764,144.1473 L 22.2836,138.5195 L 25.0559,133.3329 L 28.7868,128.7868 L 33.3329,125.0559 L 38.5195,122.2836 L 44.1473,120.5764 L 50.0000,120.0000 L 55.8527,120.5764 L 61.4805,122.2836 L 66.6671,125.0559 L 71.2132,128.7868 L 74.9441,133.3329 L 77.7164,138.5195 L 79.4236,144.1473 L 80.0000,150.0000 Z" fill="#00ffa0" fill-opacity="0.25" stroke="#7ACAC4" stroke-width="2"/>
</svg>
