<svg xmlns="http://www.w3.org/2000/svg" width="200" height="200" viewBox="0 0 200 200">
<rect width="200" height="200" fill="white"/>
<path d="M 30.0000,140.0000 L 30.5764,145.8527 L 32.2836,151.4805 L 35.0559,156.6671 L 38.7868,161.2132 L 43.3329,164.9441 L 48.5195,167.7164 L 54.1473,169.4236 L 60.0000,170.0000 L 65.8527,169.4236 L 71.4805,167.7164 L 76.6671,164.9441 L 81.2132,161.2132 L 171.2132,71.2132 L 174.9441,66.6671 L 177.7164,61.4805 L 179.4236,55.8527 L 180.0000,50.0000 L 179.4236,44.1473 L 177.7164,38.5195 L 174.9441,33.3329 L 171.2132,28.7868 L 166.6671,25.0559 L 161.4805,22.2836 L 155.8527,20.5764 L 150.0000,20.0000 L 144.1473,20.5764 L 138.5195,22.2836 L 133.3329,25.0559 L 128.7868,28.7868 L 38.7868,118.7868 L 35.0559,123.3329 L 32.2836,128.5195 L 30.5764,134.1473 L 30.0000,140.0000 Z" fill="#ff0000" fill-opacity="0.13" stroke="#770000" stroke-width="2"/>
</svg>
