<svg xmlns="http://www.w3.org/2000/svg" width="200" height="200" viewBox="0 0 200 200">
<rect width="200" height="200" fill="white"/>
<path d="M 134.0000,120.0000 L 136.0000,125.0000 L 130.0000,137.0000 L 135.0000,155.0000 L 132.0000,156.0000 L 126.0000,172.0000 L 117.0000,176.0000 L 110.0000,176.0000 L 98.0000,176.0000 L 80.0000,173.0000 L 64.0000,172.0000 L 56.0000,166.0000 L 45.0000,167.0000 L 42.0000,150.0000 L 34.0000,146.0000 L 39.0000,134.0000 L 40.0000,119.0000 L 34.0000,110.0000 L 36.0000,100.0000 L 40.0000,84.0000 L 36.0000,77.0000 L 39.0000,72.0000 L 51.0000,71.0000 L 58.0000,68.0000 L 68.0000,65.0000 L 74.0000,58.0000 L 78.0000,53.0000 L 86.0000,54.0000 L 96.0000,54.0000 L 108.0000,58.0000 L 114.0000,68.0000 L 112.0000,74.0000 L 112.0000,84.0000 L 125.0000,92.0000 L 128.0000,94.0000 L 125.0000,104.0000 L 132.0000,113.0000 L 134.0000,120.0000 Z" fill="#ff0000" fill-opacity="0.13" stroke="#770000" stroke-width="2"/>
<circle cx="94.00" cy="74.00" r="3" fill="#6495ED"/>
<circle cx="114.00" cy="68.00" r="3" fill="#6495ED"/>
<circle cx="102.00" cy="90.00" r="3" fill="#6495ED"/>
<circle cx="80.00" cy="173.00" r="3" fill="#6495ED"/>
<circle cx="136.00" cy="125.00" r="3" fill="#6495ED"/>
<circle cx="122.00" cy="95.00" r="3" fill="#6495ED"/>
<circle cx="132.00" cy="156.00" r="3" fill="#6495ED"/>
<circle cx="36.00" cy="77.00" r="3" fill="#6495ED"/>
<circle cx="48.00" cy="124.00" r="3" fill="#6495ED"/>
<circle cx="56.00" cy="166.00" r="3" fill="#6495ED"/>
<circle cx="40.00" cy="119.00" r="3" fill="#6495ED"/>
<circle cx="126.00" cy="172.00" r="3" fill="#6495ED"/>
<circle cx="112.00" cy="70.00" r="3" fill="#6495ED"/>
<circle cx="66.00" cy="137.00" r="3" fill="#6495ED"/>
<circle cx="116.00" cy="100.00" r="3" fill="#6495ED"/>
<circle cx="135.00" cy="155.00" r="3" fill="#6495ED"/>
<circle cx="54.00" cy="108.00" r="3" fill="#6495ED"/>
<circle cx="48.00" cy="102.00" r="3" fill="#6495ED"/>
<circle cx="122.00" cy="130.00" r="3" fill="#6495ED"/>
<circle cx="132.00" cy="113.00" r="3" fill="#6495ED"/>
<circle cx="102.00" cy="90.00" r="3" fill="#6495ED"/>
<circle cx="74.00" cy="58.00" r="3" fill="#6495ED"/>
<circle cx="122.00" cy="110.00" r="3" fill="#6495ED"/>
<circle cx="130.00" cy="125.00" r="3" fill="#6495ED"/>
<circle cx="117.00" cy="176.00" r="3" fill="#6495ED"/>
<circle cx="118.00" cy="168.00" r="3" fill="#6495ED"/>
<circle cx="45.00" cy="167.00" r="3" fill="#6495ED"/>
<circle cx="117.00" cy="136.00" r="3" fill="#6495ED"/>
<circle cx="39.00" cy="72.00" r="3" fill="#6495ED"/>
<circle cx="72.00" cy="149.00" r="3" fill="#6495ED"/>
<circle cx="52.00" cy="148.00" r="3" fill="#6495ED"/>
<circle cx="54.00" cy="140.00" r="3" fill="#6495ED"/>
<circle cx="46.00" cy="82.00" r="3" fill="#6495ED"/>
<circle cx="125.00" cy="156.00" r="3" fill="#6495ED"/>
<circle cx="40.00" cy="74.00" r="3" fill="#6495ED"/>
<circle cx="78.00" cy="53.00" r="3" fill="#6495ED"/>
<circle cx="108.00" cy="58.00" r="3" fill="#6495ED"/>
<circle cx="128.00" cy="94.00" r="3" fill="#6495ED"/>
<circle cx="112.00" cy="74.00" r="3" fill="#6495ED"/>
<circle cx="112.00" cy="84.00" r="3" fill="#6495ED"/>
<circle cx="122.00" cy="156.00" r="3" fill="#6495ED"/>
<circle cx="116.00" cy="90.00" r="3" fill="#6495ED"/>
<circle cx="61.00" cy="137.00" r="3" fill="#6495ED"/>
<circle cx="125.00" cy="92.00" r="3" fill="#6495ED"/>
<circle cx="34.00" cy="146.00" r="3" fill="#6495ED"/>
<circle cx="134.00" cy="120.00" r="3" fill="#6495ED"/>
<circle cx="40.00" cy="114.00" r="3" fill="#6495ED"/>
<circle cx="86.00" cy="54.00" r="3" fill="#6495ED"/>
<circle cx="40.00" cy="84.00" r="3" fill="#6495ED"/>
<circle cx="58.00" cy="68.00" r="3" fill="#6495ED"/>
<circle cx="90.00" cy="78.00" r="3" fill="#6495ED"/>
<circle cx="120.00" cy="92.00" r="3" fill="#6495ED"/>
<circle cx="81.00" cy="152.00" r="3" fill="#6495ED"/>
<circle cx="82.00" cy="161.00" r="3" fill="#6495ED"/>
<circle cx="93.00" cy="167.00" r="3" fill="#6495ED"/>
<circle cx="105.00" cy="170.00" r="3" fill="#6495ED"/>
<circle cx="114.00" cy="160.00" r="3" fill="#6495ED"/>
<circle cx="126.00" cy="148.00" r="3" fill="#6495ED"/>
<circle cx="130.00" cy="137.00" r="3" fill="#6495ED"/>
<circle cx="123.00" cy="119.00" r="3" fill="#6495ED"/>
<circle cx="125.00" cy="104.00" r="3" fill="#6495ED"/>
<circle cx="104.00" cy="71.00" r="3" fill="#6495ED"/>
<circle cx="90.00" cy="65.00" r="3" fill="#6495ED"/>
<circle cx="75.00" cy="71.00" r="3" fill="#6495ED"/>
<circle cx="64.00" cy="80.00" r="3" fill="#6495ED"/>
<circle cx="54.00" cy="90.00" r="3" fill="#6495ED"/>
<circle cx="54.00" cy="98.00" r="3" fill="#6495ED"/>
<circle cx="60.00" cy="88.00" r="3" fill="#6495ED"/>
<circle cx="36.00" cy="100.00" r="3" fill="#6495ED"/>
<circle cx="34.00" cy="110.00" r="3" fill="#6495ED"/>
<circle cx="39.00" cy="134.00" r="3" fill="#6495ED"/>
<circle cx="42.00" cy="150.00" r="3" fill="#6495ED"/>
<circle cx="60.00" cy="152.00" r="3" fill="#6495ED"/>
<circle cx="64.00" cy="172.00" r="3" fill="#6495ED"/>
<circle cx="98.00" cy="176.00" r="3" fill="#6495ED"/>
<circle cx="110.00" cy="176.00" r="3" fill="#6495ED"/>
<circle cx="57.00" cy="131.00" r="3" fill="#6495ED"/>
<circle cx="46.00" cy="112.00" r="3" fill="#6495ED"/>
<circle cx="51.00" cy="71.00" r="3" fill="#6495ED"/>
<circle cx="68.00" cy="65.00" r="3" fill="#6495ED"/>
<circle cx="96.00" cy="54.00" r="3" fill="#6495ED"/>
</svg>
