<svg xmlns="http://www.w3.org/2000/svg" width="200" height="200" viewBox="0 0 200 200">
<rect width="200" height="200" fill="white"/>
<path d="M 89.0000,147.0000 L 91.0000,150.0000 L 87.0000,158.0000 L 90.0000,170.0000 L 88.0000,171.0000 L 84.0000,181.0000 L 78.0000,184.0000 L 73.0000,184.0000 L 65.0000,184.0000 L 53.0000,182.0000 L 43.0000,181.0000 L 37.0000,177.0000 L 30.0000,178.0000 L 28.0000,167.0000 L 23.0000,164.0000 L 26.0000,156.0000 L 27.0000,146.0000 L 23.0000,140.0000 L 24.0000,133.0000 L 27.0000,123.0000 L 24.0000,118.0000 L 26.0000,115.0000 L 34.0000,114.0000 L 39.0000,112.0000 L 45.0000,110.0000 L 49.0000,105.0000 L 52.0000,102.0000 L 57.0000,103.0000 L 64.0000,103.0000 L 72.0000,105.0000 L 76.0000,112.0000 L 75.0000,116.0000 L 75.0000,123.0000 L 83.0000,128.0000 L 85.0000,129.0000 L 83.0000,136.0000 L 88.0000,142.0000 L 89.0000,147.0000 ZM 36.0000,139.0000 L 36.0000,132.0000 L 40.0000,125.0000 L 43.0000,120.0000 L 50.0000,114.0000 L 60.0000,119.0000 L 68.0000,127.0000 L 77.0000,133.0000 L 81.0000,140.0000 L 82.0000,146.0000 L 81.0000,153.0000 L 78.0000,157.0000 L 81.0000,171.0000 L 76.0000,173.0000 L 70.0000,180.0000 L 62.0000,178.0000 L 55.0000,174.0000 L 54.0000,168.0000 L 48.0000,166.0000 L 44.0000,158.0000 L 38.0000,154.0000 L 36.0000,139.0000 Z" fill="#ff0000" fill-opacity="0.13" stroke="#770000" stroke-width="2"/>
<circle cx="63.00" cy="116.00" r="3" fill="#6495ED"/>
<circle cx="76.00" cy="112.00" r="3" fill="#6495ED"/>
<circle cx="68.00" cy="127.00" r="3" fill="#6495ED"/>
<circle cx="53.00" cy="182.00" r="3" fill="#6495ED"/>
<circle cx="91.00" cy="150.00" r="3" fill="#6495ED"/>
<circle cx="81.00" cy="130.00" r="3" fill="#6495ED"/>
<circle cx="88.00" cy="171.00" r="3" fill="#6495ED"/>
<circle cx="24.00" cy="118.00" r="3" fill="#6495ED"/>
<circle cx="32.00" cy="149.00" r="3" fill="#6495ED"/>
<circle cx="37.00" cy="177.00" r="3" fill="#6495ED"/>
<circle cx="27.00" cy="146.00" r="3" fill="#6495ED"/>
<circle cx="84.00" cy="181.00" r="3" fill="#6495ED"/>
<circle cx="75.00" cy="113.00" r="3" fill="#6495ED"/>
<circle cx="44.00" cy="158.00" r="3" fill="#6495ED"/>
<circle cx="77.00" cy="133.00" r="3" fill="#6495ED"/>
<circle cx="90.00" cy="170.00" r="3" fill="#6495ED"/>
<circle cx="36.00" cy="139.00" r="3" fill="#6495ED"/>
<circle cx="32.00" cy="135.00" r="3" fill="#6495ED"/>
<circle cx="81.00" cy="153.00" r="3" fill="#6495ED"/>
<circle cx="88.00" cy="142.00" r="3" fill="#6495ED"/>
<circle cx="68.00" cy="127.00" r="3" fill="#6495ED"/>
<circle cx="49.00" cy="105.00" r="3" fill="#6495ED"/>
<circle cx="81.00" cy="140.00" r="3" fill="#6495ED"/>
<circle cx="87.00" cy="150.00" r="3" fill="#6495ED"/>
<circle cx="78.00" cy="184.00" r="3" fill="#6495ED"/>
<circle cx="79.00" cy="179.00" r="3" fill="#6495ED"/>
<circle cx="30.00" cy="178.00" r="3" fill="#6495ED"/>
<circle cx="78.00" cy="157.00" r="3" fill="#6495ED"/>
<circle cx="26.00" cy="115.00" r="3" fill="#6495ED"/>
<circle cx="48.00" cy="166.00" r="3" fill="#6495ED"/>
<circle cx="35.00" cy="165.00" r="3" fill="#6495ED"/>
<circle cx="36.00" cy="160.00" r="3" fill="#6495ED"/>
<circle cx="31.00" cy="121.00" r="3" fill="#6495ED"/>
<circle cx="83.00" cy="171.00" r="3" fill="#6495ED"/>
<circle cx="27.00" cy="116.00" r="3" fill="#6495ED"/>
<circle cx="52.00" cy="102.00" r="3" fill="#6495ED"/>
<circle cx="72.00" cy="105.00" r="3" fill="#6495ED"/>
<circle cx="85.00" cy="129.00" r="3" fill="#6495ED"/>
<circle cx="75.00" cy="116.00" r="3" fill="#6495ED"/>
<circle cx="75.00" cy="123.00" r="3" fill="#6495ED"/>
<circle cx="81.00" cy="171.00" r="3" fill="#6495ED"/>
<circle cx="77.00" cy="127.00" r="3" fill="#6495ED"/>
<circle cx="41.00" cy="158.00" r="3" fill="#6495ED"/>
<circle cx="83.00" cy="128.00" r="3" fill="#6495ED"/>
<circle cx="23.00" cy="164.00" r="3" fill="#6495ED"/>
<circle cx="89.00" cy="147.00" r="3" fill="#6495ED"/>
<circle cx="27.00" cy="143.00" r="3" fill="#6495ED"/>
<circle cx="57.00" cy="103.00" r="3" fill="#6495ED"/>
<circle cx="27.00" cy="123.00" r="3" fill="#6495ED"/>
<circle cx="39.00" cy="112.00" r="3" fill="#6495ED"/>
<circle cx="60.00" cy="119.00" r="3" fill="#6495ED"/>
<circle cx="80.00" cy="128.00" r="3" fill="#6495ED"/>
<circle cx="54.00" cy="168.00" r="3" fill="#6495ED"/>
<circle cx="55.00" cy="174.00" r="3" fill="#6495ED"/>
<circle cx="62.00" cy="178.00" r="3" fill="#6495ED"/>
<circle cx="70.00" cy="180.00" r="3" fill="#6495ED"/>
<circle cx="76.00" cy="173.00" r="3" fill="#6495ED"/>
<circle cx="84.00" cy="165.00" r="3" fill="#6495ED"/>
<circle cx="87.00" cy="158.00" r="3" fill="#6495ED"/>
<circle cx="82.00" cy="146.00" r="3" fill="#6495ED"/>
<circle cx="83.00" cy="136.00" r="3" fill="#6495ED"/>
<circle cx="69.00" cy="114.00" r="3" fill="#6495ED"/>
<circle cx="60.00" cy="110.00" r="3" fill="#6495ED"/>
<circle cx="50.00" cy="114.00" r="3" fill="#6495ED"/>
<circle cx="43.00" cy="120.00" r="3" fill="#6495ED"/>
<circle cx="36.00" cy="127.00" r="3" fill="#6495ED"/>
<circle cx="36.00" cy="132.00" r="3" fill="#6495ED"/>
<circle cx="40.00" cy="125.00" r="3" fill="#6495ED"/>
<circle cx="24.00" cy="133.00" r="3" fill="#6495ED"/>
<circle cx="23.00" cy="140.00" r="3" fill="#6495ED"/>
<circle cx="26.00" cy="156.00" r="3" fill="#6495ED"/>
<circle cx="28.00" cy="167.00" r="3" fill="#6495ED"/>
<circle cx="40.00" cy="168.00" r="3" fill="#6495ED"/>
<circle cx="43.00" cy="181.00" r="3" fill="#6495ED"/>
<circle cx="65.00" cy="184.00" r="3" fill="#6495ED"/>
<circle cx="73.00" cy="184.00" r="3" fill="#6495ED"/>
<circle cx="38.00" cy="154.00" r="3" fill="#6495ED"/>
<circle cx="31.00" cy="141.00" r="3" fill="#6495ED"/>
<circle cx="34.00" cy="114.00" r="3" fill="#6495ED"/>
<circle cx="45.00" cy="110.00" r="3" fill="#6495ED"/>
<circle cx="64.00" cy="103.00" r="3" fill="#6495ED"/>
</svg>
