<svg xmlns="http://www.w3.org/2000/svg" width="200" height="200" viewBox="0 0 200 200">
<rect width="200" height="200" fill="white"/>
<polyline points="75.00,100.00 75.00,10.00" fill="none" stroke="yellow" stroke-width="3" stroke-linecap="round" stroke-linejoin="round"/>
<circle cx="75.00" cy="100.00" r="5" fill="#6495ED"/>
<circle cx="25.00" cy="155.00" r="5" fill="#7ACAC4"/>
<polyline points="25.00,165.00 25.00,155.00 35.00,155.00" fill="none" stroke="#770000" stroke-width="1" stroke-linecap="round" stroke-linejoin="round"/>
<polyline points="75.00,25.67 82.29,26.03 85.91,26.47 93.06,27.90 100.04,30.02 103.44,31.33 110.04,34.45 113.21,36.25 119.28,40.30 124.92,44.93 130.07,50.09 134.70,55.72 136.80,58.71 138.75,61.79 142.19,68.22 144.98,74.96 147.10,81.94 148.52,89.10 148.97,92.72 149.24,96.35 149.24,103.65 148.52,110.91 147.10,118.06 146.12,121.58 143.67,128.45 140.55,135.04 136.80,141.30 134.70,144.28 132.45,147.16 127.55,152.56 122.15,157.46 119.27,159.70 113.21,163.75 106.77,167.19 100.03,169.98 96.57,171.13 89.49,172.90 82.28,173.97 74.99,174.33 71.35,174.24 64.09,173.52 56.93,172.10 53.42,171.13 46.55,168.67 43.21,167.19 36.78,163.75 30.72,159.70 25.00,155.00" fill="none" stroke="#770000" stroke-width="1" stroke-linecap="round" stroke-linejoin="round"/>
</svg>
