<svg xmlns="http://www.w3.org/2000/svg" width="200" height="200" viewBox="0 0 200 200">
<rect width="200" height="200" fill="white"/>
<path d="M 142.9289,42.9289 L 144.4443,41.6853 L 146.1732,40.7612 L 148.0491,40.1921 L 150.0000,40.0000 L 151.9509,40.1921 L 153.8268,40.7612 L 155.5557,41.6853 L 157.0711,42.9289 L 158.3147,44.4443 L 159.2388,46.1732 L 159.8079,48.0491 L 160.0000,50.0000 L 160.0000,150.0000 L 159.8079,151.9509 L 159.2388,153.8268 L 158.3147,155.5557 L 157.0711,157.0711 L 155.5557,158.3147 L 153.8268,159.2388 L 151.9509,159.8079 L 150.0000,160.0000 L 148.0491,159.8079 L 146.1732,159.2388 L 144.4443,158.3147 L 142.9289,157.0711 L 141.6853,155.5557 L 140.7612,153.8268 L 140.1921,151.9509 L 140.0000,150.0000 L 140.0000,74.1421 L 57.0711,157.0711 L 55.5557,158.3147 L 53.8268,159.2388 L 51.9509,159.8079 L 50.0000,160.0000 L 48.0491,159.8079 L 46.1732,159.2388 L 44.4443,158.3147 L 42.9289,157.0711 L 41.6853,155.5557 L 40.7612,153.8268 L 40.1921,151.9509 L 40.0000,150.0000 L 40.1921,148.0491 L 40.7612,146.1732 L 41.6853,144.4443 L 42.9289,142.9289 L 142.9289,42.9289 Z" fill="#ff0000" fill-opacity="0.13" stroke="#770000" stroke-width="2"/>
<polyline points="50.00,150.00 150.00,50.00 150.00,150.00" fill="none" stroke="#6495ED" stroke-width="4" stroke-linecap="round" stroke-linejoin="round"/>
</svg>
