<svg xmlns="http://www.w3.org/2000/svg" width="200" height="200" viewBox="0 0 200 200">
<rect width="200" height="200" fill="white"/>
<path d="M 150.0000,110.0000 L 149.0393,119.7545 L 146.1940,129.1342 L 141.5735,137.7785 L 135.3553,145.3553 L 127.7785,151.5735 L 119.1342,156.1940 L 109.7545,159.0393 L 100.0000,160.0000 L 90.2455,159.0393 L 80.8658,156.1940 L 72.2215,151.5735 L 64.6447,145.3553 L 58.4265,137.7785 L 53.8060,129.1342 L 50.9607,119.7545 L 50.0000,110.0000 L 50.9607,100.2455 L 53.8060,90.8658 L 58.4265,82.2215 L 64.6447,74.6447 L 72.2215,68.4265 L 80.8658,63.8060 L 90.2455,60.9607 L 100.0000,60.0000 L 109.7545,60.9607 L 119.1342,63.8060 L 127.7785,68.4265 L 135.3553,74.6447 L 141.5735,82.2215 L 146.1940,90.8658 L 149.0393,100.2455 L 150.0000,110.0000 ZM 125.0000,110.0000 L 124.5196,105.1227 L 123.0970,100.4329 L 120.7867,96.1107 L 117.6777,92.3223 L 113.8893,89.2133 L 109.5671,86.9030 L 104.8773,85.4804 L 100.0000,85.0000 L 95.1227,85.4804 L 90.4329,86.9030 L 86.1107,89.2133 L 82.3223,92.3223 L 79.2133,96.1107 L 76.9030,100.4329 L 75.4804,105.1227 L 75.0000,110.0000 L 75.4804,114.8773 L 76.9030,119.5671 L 79.2133,123.8893 L 82.3223,127.6777 L 86.1107,130.7867 L 90.4329,133.0970 L 95.1227,134.5196 L 100.0000,135.0000 L 104.8773,134.5196 L 109.5671,133.0970 L 113.8893,130.7867 L 117.6777,127.6777 L 120.7867,123.8893 L 123.0970,119.5671 L 124.5196,114.8773 L 125.0000,110.0000 Z" fill="#C0D0F0" fill-opacity="0.50" stroke="#6495ED" stroke-width="2"/>
</svg>
