<svg xmlns="http://www.w3.org/2000/svg" width="200" height="200" viewBox="0 0 200 200">
<rect width="200" height="200" fill="white"/>
<path d="M 10.0000,70.0000 L 50.0000,10.0000 L 110.0000,10.0000 L 140.0000,50.0000 L 150.0000,120.0000 L 100.0000,190.0000 L 20.0000,160.0000 L 10.0000,70.0000 ZM 70.0000,160.0000 L 100.0000,150.0000 L 120.0000,120.0000 L 80.0000,90.0000 L 50.0000,110.0000 L 70.0000,160.0000 Z" fill="#C0D0F0" fill-opacity="0.50" stroke="#6495ED" stroke-width="2"/>
<polyline points="10.00,70.00 50.00,10.00 110.00,10.00 140.00,50.00 150.00,120.00 100.00,190.00 20.00,160.00 10.00,70.00" fill="none" stroke="#770000" stroke-width="4" stroke-linecap="round" stroke-linejoin="round"/>
<polyline points="70.00,160.00 100.00,150.00 120.00,120.00 80.00,90.00 50.00,110.00 70.00,160.00" fill="none" stroke="#770000" stroke-width="4" stroke-linecap="round" stroke-linejoin="round"/>
</svg>
