<svg xmlns="http://www.w3.org/2000/svg" width="200" height="200" viewBox="0 0 200 200">
<rect width="200" height="200" fill="white"/>
<path d="M 18.0000,58.0000 L 21.0000,49.0000 L 27.0000,40.0000 L 35.0000,33.0000 L 44.0000,28.0000 L 54.0000,25.0000 L 64.0000,22.0000 L 74.0000,20.0000 L 84.0000,19.0000 L 94.0000,19.0000 L 104.0000,19.0000 L 114.0000,19.0000 L 124.0000,19.0000 L 134.0000,21.0000 L 144.0000,23.0000 L 153.0000,27.0000 L 162.0000,32.0000 L 171.0000,38.0000 L 177.0000,46.0000 L 182.0000,55.0000 L 184.0000,65.0000 L 173.0000,66.0000 L 161.0000,66.0000 L 150.0000,67.0000 L 139.0000,68.0000 L 136.0000,58.0000 L 128.0000,51.0000 L 119.0000,47.0000 L 109.0000,45.0000 L 99.0000,45.0000 L 89.0000,45.0000 L 79.0000,47.0000 L 69.0000,50.0000 L 61.0000,56.0000 L 63.0000,66.0000 L 72.0000,72.0000 L 82.0000,75.0000 L 92.0000,77.0000 L 102.0000,79.0000 L 112.0000,81.0000 L 122.0000,82.0000 L 132.0000,84.0000 L 142.0000,87.0000 L 151.0000,90.0000 L 161.0000,94.0000 L 170.0000,98.0000 L 178.0000,104.0000 L 185.0000,112.0000 L 189.0000,122.0000 L 190.0000,132.0000 L 189.0000,142.0000 L 185.0000,151.0000 L 179.0000,159.0000 L 171.0000,166.0000 L 162.0000,171.0000 L 153.0000,175.0000 L 143.0000,177.0000 L 133.0000,179.0000 L 123.0000,181.0000 L 113.0000,181.0000 L 102.0000,181.0000 L 92.0000,181.0000 L 82.0000,181.0000 L 72.0000,179.0000 L 62.0000,178.0000 L 52.0000,175.0000 L 43.0000,171.0000 L 33.0000,166.0000 L 25.0000,159.0000 L 19.0000,151.0000 L 14.0000,142.0000 L 10.0000,128.0000 L 21.0000,127.0000 L 31.0000,126.0000 L 42.0000,126.0000 L 53.0000,124.0000 L 56.0000,134.0000 L 63.0000,142.0000 L 71.0000,149.0000 L 81.0000,152.0000 L 91.0000,154.0000 L 101.0000,155.0000 L 111.0000,154.0000 L 121.0000,153.0000 L 131.0000,150.0000 L 140.0000,145.0000 L 145.0000,136.0000 L 144.0000,126.0000 L 135.0000,120.0000 L 125.0000,117.0000 L 115.0000,115.0000 L 105.0000,113.0000 L 95.0000,111.0000 L 85.0000,109.0000 L 75.0000,107.0000 L 65.0000,105.0000 L 55.0000,102.0000 L 45.0000,98.0000 L 37.0000,93.0000 L 29.0000,86.0000 L 22.0000,78.0000 L 19.0000,68.0000 L 18.0000,58.0000 Z" fill="#ff0000" fill-opacity="0.13" stroke="#770000" stroke-width="2"/>
<circle cx="10.00" cy="128.00" r="3" fill="#6495ED"/>
<circle cx="53.00" cy="124.00" r="3" fill="#6495ED"/>
<circle cx="56.00" cy="134.00" r="3" fill="#6495ED"/>
<circle cx="63.00" cy="142.00" r="3" fill="#6495ED"/>
<circle cx="71.00" cy="149.00" r="3" fill="#6495ED"/>
<circle cx="81.00" cy="152.00" r="3" fill="#6495ED"/>
<circle cx="91.00" cy="154.00" r="3" fill="#6495ED"/>
<circle cx="101.00" cy="155.00" r="3" fill="#6495ED"/>
<circle cx="111.00" cy="154.00" r="3" fill="#6495ED"/>
<circle cx="121.00" cy="153.00" r="3" fill="#6495ED"/>
<circle cx="131.00" cy="150.00" r="3" fill="#6495ED"/>
<circle cx="140.00" cy="145.00" r="3" fill="#6495ED"/>
<circle cx="145.00" cy="136.00" r="3" fill="#6495ED"/>
<circle cx="144.00" cy="126.00" r="3" fill="#6495ED"/>
<circle cx="135.00" cy="120.00" r="3" fill="#6495ED"/>
<circle cx="125.00" cy="117.00" r="3" fill="#6495ED"/>
<circle cx="115.00" cy="115.00" r="3" fill="#6495ED"/>
<circle cx="105.00" cy="113.00" r="3" fill="#6495ED"/>
<circle cx="95.00" cy="111.00" r="3" fill="#6495ED"/>
<circle cx="85.00" cy="109.00" r="3" fill="#6495ED"/>
<circle cx="75.00" cy="107.00" r="3" fill="#6495ED"/>
<circle cx="65.00" cy="105.00" r="3" fill="#6495ED"/>
<circle cx="55.00" cy="102.00" r="3" fill="#6495ED"/>
<circle cx="45.00" cy="98.00" r="3" fill="#6495ED"/>
<circle cx="37.00" cy="93.00" r="3" fill="#6495ED"/>
<circle cx="29.00" cy="86.00" r="3" fill="#6495ED"/>
<circle cx="22.00" cy="78.00" r="3" fill="#6495ED"/>
<circle cx="19.00" cy="68.00" r="3" fill="#6495ED"/>
<circle cx="18.00" cy="58.00" r="3" fill="#6495ED"/>
<circle cx="21.00" cy="49.00" r="3" fill="#6495ED"/>
<circle cx="27.00" cy="40.00" r="3" fill="#6495ED"/>
<circle cx="35.00" cy="33.00" r="3" fill="#6495ED"/>
<circle cx="44.00" cy="28.00" r="3" fill="#6495ED"/>
<circle cx="54.00" cy="25.00" r="3" fill="#6495ED"/>
<circle cx="64.00" cy="22.00" r="3" fill="#6495ED"/>
<circle cx="74.00" cy="20.00" r="3" fill="#6495ED"/>
<circle cx="84.00" cy="19.00" r="3" fill="#6495ED"/>
<circle cx="94.00" cy="19.00" r="3" fill="#6495ED"/>
<circle cx="104.00" cy="19.00" r="3" fill="#6495ED"/>
<circle cx="114.00" cy="19.00" r="3" fill="#6495ED"/>
<circle cx="124.00" cy="19.00" r="3" fill="#6495ED"/>
<circle cx="134.00" cy="21.00" r="3" fill="#6495ED"/>
<circle cx="144.00" cy="23.00" r="3" fill="#6495ED"/>
<circle cx="153.00" cy="27.00" r="3" fill="#6495ED"/>
<circle cx="162.00" cy="32.00" r="3" fill="#6495ED"/>
<circle cx="171.00" cy="38.00" r="3" fill="#6495ED"/>
<circle cx="177.00" cy="46.00" r="3" fill="#6495ED"/>
<circle cx="182.00" cy="55.00" r="3" fill="#6495ED"/>
<circle cx="184.00" cy="65.00" r="3" fill="#6495ED"/>
<circle cx="139.00" cy="68.00" r="3" fill="#6495ED"/>
<circle cx="136.00" cy="58.00" r="3" fill="#6495ED"/>
<circle cx="128.00" cy="51.00" r="3" fill="#6495ED"/>
<circle cx="119.00" cy="47.00" r="3" fill="#6495ED"/>
<circle cx="109.00" cy="45.00" r="3" fill="#6495ED"/>
<circle cx="99.00" cy="45.00" r="3" fill="#6495ED"/>
<circle cx="89.00" cy="45.00" r="3" fill="#6495ED"/>
<circle cx="79.00" cy="47.00" r="3" fill="#6495ED"/>
<circle cx="69.00" cy="50.00" r="3" fill="#6495ED"/>
<circle cx="61.00" cy="56.00" r="3" fill="#6495ED"/>
<circle cx="63.00" cy="66.00" r="3" fill="#6495ED"/>
<circle cx="72.00" cy="72.00" r="3" fill="#6495ED"/>
<circle cx="82.00" cy="75.00" r="3" fill="#6495ED"/>
<circle cx="92.00" cy="77.00" r="3" fill="#6495ED"/>
<circle cx="102.00" cy="79.00" r="3" fill="#6495ED"/>
<circle cx="112.00" cy="81.00" r="3" fill="#6495ED"/>
<circle cx="122.00" cy="82.00" r="3" fill="#6495ED"/>
<circle cx="132.00" cy="84.00" r="3" fill="#6495ED"/>
<circle cx="142.00" cy="87.00" r="3" fill="#6495ED"/>
<circle cx="151.00" cy="90.00" r="3" fill="#6495ED"/>
<circle cx="161.00" cy="94.00" r="3" fill="#6495ED"/>
<circle cx="170.00" cy="98.00" r="3" fill="#6495ED"/>
<circle cx="178.00" cy="104.00" r="3" fill="#6495ED"/>
<circle cx="185.00" cy="112.00" r="3" fill="#6495ED"/>
<circle cx="189.00" cy="122.00" r="3" fill="#6495ED"/>
<circle cx="190.00" cy="132.00" r="3" fill="#6495ED"/>
<circle cx="189.00" cy="142.00" r="3" fill="#6495ED"/>
<circle cx="185.00" cy="151.00" r="3" fill="#6495ED"/>
<circle cx="179.00" cy="159.00" r="3" fill="#6495ED"/>
<circle cx="171.00" cy="166.00" r="3" fill="#6495ED"/>
<circle cx="162.00" cy="171.00" r="3" fill="#6495ED"/>
<circle cx="153.00" cy="175.00" r="3" fill="#6495ED"/>
<circle cx="143.00" cy="177.00" r="3" fill="#6495ED"/>
<circle cx="133.00" cy="179.00" r="3" fill="#6495ED"/>
<circle cx="123.00" cy="181.00" r="3" fill="#6495ED"/>
<circle cx="113.00" cy="181.00" r="3" fill="#6495ED"/>
<circle cx="102.00" cy="181.00" r="3" fill="#6495ED"/>
<circle cx="92.00" cy="181.00" r="3" fill="#6495ED"/>
<circle cx="82.00" cy="181.00" r="3" fill="#6495ED"/>
<circle cx="72.00" cy="179.00" r="3" fill="#6495ED"/>
<circle cx="62.00" cy="178.00" r="3" fill="#6495ED"/>
<circle cx="52.00" cy="175.00" r="3" fill="#6495ED"/>
<circle cx="43.00" cy="171.00" r="3" fill="#6495ED"/>
<circle cx="33.00" cy="166.00" r="3" fill="#6495ED"/>
<circle cx="25.00" cy="159.00" r="3" fill="#6495ED"/>
<circle cx="19.00" cy="151.00" r="3" fill="#6495ED"/>
<circle cx="14.00" cy="142.00" r="3" fill="#6495ED"/>
<circle cx="21.00" cy="127.00" r="3" fill="#6495ED"/>
<circle cx="31.00" cy="126.00" r="3" fill="#6495ED"/>
<circle cx="42.00" cy="126.00" r="3" fill="#6495ED"/>
<circle cx="173.00" cy="66.00" r="3" fill="#6495ED"/>
<circle cx="161.00" cy="66.00" r="3" fill="#6495ED"/>
<circle cx="150.00" cy="67.00" r="3" fill="#6495ED"/>
<circle cx="97.00" cy="96.00" r="3" fill="#6495ED"/>
<circle cx="52.00" cy="83.00" r="3" fill="#6495ED"/>
<circle cx="157.00" cy="44.00" r="3" fill="#6495ED"/>
<circle cx="94.00" cy="29.00" r="3" fill="#6495ED"/>
<circle cx="112.00" cy="94.00" r="3" fill="#6495ED"/>
<circle cx="169.00" cy="127.00" r="3" fill="#6495ED"/>
<circle cx="58.00" cy="35.00" r="3" fill="#6495ED"/>
<circle cx="149.00" cy="160.00" r="3" fill="#6495ED"/>
<circle cx="70.00" cy="167.00" r="3" fill="#6495ED"/>
<circle cx="147.00" cy="43.00" r="3" fill="#6495ED"/>
<circle cx="48.00" cy="47.00" r="3" fill="#6495ED"/>
<circle cx="140.00" cy="104.00" r="3" fill="#6495ED"/>
<circle cx="47.00" cy="71.00" r="3" fill="#6495ED"/>
<circle cx="173.00" cy="145.00" r="3" fill="#6495ED"/>
<circle cx="144.00" cy="114.00" r="3" fill="#6495ED"/>
<circle cx="159.00" cy="133.00" r="3" fill="#6495ED"/>
<circle cx="150.00" cy="54.00" r="3" fill="#6495ED"/>
<circle cx="38.00" cy="64.00" r="3" fill="#6495ED"/>
<circle cx="111.00" cy="30.00" r="3" fill="#6495ED"/>
<circle cx="124.00" cy="106.00" r="3" fill="#6495ED"/>
<circle cx="26.00" cy="141.00" r="3" fill="#6495ED"/>
<circle cx="60.00" cy="159.00" r="3" fill="#6495ED"/>
<circle cx="71.00" cy="38.00" r="3" fill="#6495ED"/>
<circle cx="41.00" cy="136.00" r="3" fill="#6495ED"/>
<circle cx="88.00" cy="90.00" r="3" fill="#6495ED"/>
<circle cx="122.00" cy="166.00" r="3" fill="#6495ED"/>
<circle cx="151.00" cy="103.00" r="3" fill="#6495ED"/>
<circle cx="157.00" cy="144.00" r="3" fill="#6495ED"/>
<circle cx="39.00" cy="54.00" r="3" fill="#6495ED"/>
<circle cx="88.00" cy="167.00" r="3" fill="#6495ED"/>
<circle cx="159.00" cy="155.00" r="3" fill="#6495ED"/>
<circle cx="47.00" cy="144.00" r="3" fill="#6495ED"/>
<circle cx="138.00" cy="160.00" r="3" fill="#6495ED"/>
<circle cx="129.00" cy="35.00" r="3" fill="#6495ED"/>
<circle cx="33.00" cy="152.00" r="3" fill="#6495ED"/>
<circle cx="106.00" cy="169.00" r="3" fill="#6495ED"/>
<circle cx="169.00" cy="53.00" r="3" fill="#6495ED"/>
<circle cx="37.00" cy="78.00" r="3" fill="#6495ED"/>
<circle cx="71.00" cy="91.00" r="3" fill="#6495ED"/>
<circle cx="163.00" cy="111.00" r="3" fill="#6495ED"/>
<circle cx="37.00" cy="44.00" r="3" fill="#6495ED"/>
<circle cx="82.00" cy="30.00" r="3" fill="#6495ED"/>
<circle cx="180.00" cy="128.00" r="3" fill="#6495ED"/>
<circle cx="29.00" cy="58.00" r="3" fill="#6495ED"/>
<circle cx="46.00" cy="159.00" r="3" fill="#6495ED"/>
<circle cx="59.00" cy="45.00" r="3" fill="#6495ED"/>
<circle cx="124.00" cy="94.00" r="3" fill="#6495ED"/>
<circle cx="157.00" cy="120.00" r="3" fill="#6495ED"/>
<circle cx="175.00" cy="118.00" r="3" fill="#6495ED"/>
<circle cx="56.00" cy="150.00" r="3" fill="#6495ED"/>
<circle cx="62.00" cy="84.00" r="3" fill="#6495ED"/>
<circle cx="113.00" cy="105.00" r="3" fill="#6495ED"/>
<circle cx="144.00" cy="33.00" r="3" fill="#6495ED"/>
</svg>
