<svg xmlns="http://www.w3.org/2000/svg" width="200" height="200" viewBox="0 0 200 200">
<rect width="200" height="200" fill="white"/>
<polyline points="10.00,60.00 80.00,70.00 100.00,10.00 190.00,50.00 140.00,180.00 120.00,80.00 50.00,170.00 30.00,100.00" fill="none" stroke="#6495ED" stroke-width="1" stroke-linecap="round" stroke-linejoin="round"/>
<polyline points="10.00,60.00 49.38,65.62 68.12,64.38 79.38,58.12 87.50,47.50 92.50,32.50 101.88,23.75 115.62,21.25 133.75,25.00 156.25,35.00 170.00,50.62 175.00,71.88 171.25,98.75 158.75,131.25 148.12,149.38 139.38,153.12 132.50,142.50 127.50,117.50 119.38,104.38 108.12,103.12 93.75,113.75 76.25,136.25 61.88,148.75 50.62,151.25 41.25,139.38 30.00,100.00" fill="none" stroke="#770000" stroke-width="4" stroke-linecap="round" stroke-linejoin="round"/>
</svg>
