<svg xmlns="http://www.w3.org/2000/svg" width="200" height="200" viewBox="0 0 200 200">
<rect width="200" height="200" fill="white"/>
<path d="M 160.0000,50.0000 L 110.0000,70.0000 L 90.0000,100.0000 L 90.0000,130.0000 L 60.0000,140.0000 L 50.0000,190.0000 L 30.0000,170.0000 L 40.0000,150.0000 L 25.0000,160.0000 L 10.0000,140.0000 L 30.0000,100.0000 L 30.0000,80.0000 L 20.0000,30.0000 L 60.0000,20.0000 L 90.0000,10.0000 L 130.0000,20.0000 L 130.0000,40.0000 L 160.0000,50.0000 ZM 40.0000,40.0000 L 50.0000,60.0000 L 66.0000,75.0000 L 60.0000,100.0000 L 80.0000,60.0000 L 90.0000,30.0000 L 60.0000,40.0000 L 40.0000,40.0000 Z" fill="#C0D0F0" fill-opacity="0.50" stroke="#6495ED" stroke-width="2"/>
<path d="M 40.0000,40.0000 L 60.0000,40.0000 L 90.0000,30.0000 L 80.0000,60.0000 L 60.0000,100.0000 L 66.0000,75.0000 L 50.0000,60.0000 L 40.0000,40.0000 Z" fill="#C0D0F0" fill-opacity="0.50" stroke="#6495ED" stroke-width="2"/>
<path d="M 110.0000,70.0000 L 160.0000,150.0000 L 140.0000,150.0000 L 120.0000,167.0000 L 90.0000,170.0000 L 50.0000,190.0000 L 60.0000,140.0000 L 90.0000,130.0000 L 90.0000,100.0000 L 110.0000,70.0000 Z" fill="#C0D0F0" fill-opacity="0.50" stroke="#6495ED" stroke-width="2"/>
<path d="M 160.0000,50.0000 L 150.0000,80.0000 L 160.0000,110.0000 L 160.0000,150.0000 L 110.0000,70.0000 L 160.0000,50.0000 Z" fill="#C0D0F0" fill-opacity="0.50" stroke="#6495ED" stroke-width="2"/>
</svg>
