<svg xmlns="http://www.w3.org/2000/svg" width="200" height="200" viewBox="0 0 200 200">
<rect width="200" height="200" fill="white"/>
<path d="M 20.0000,180.0000 L 60.0000,110.0000 L 10.0000,50.0000 L 100.0000,10.0000 L 190.0000,40.0000 L 130.0000,80.0000 L 190.0000,150.0000 L 140.0000,130.0000 L 120.0000,190.0000 L 90.0000,140.0000 L 20.0000,180.0000 Z" fill="#C0D0F0" fill-opacity="0.50" stroke="#6495ED" stroke-width="1"/>
<path d="M 30.0000,162.5000 L 50.0000,127.5000 L 47.5000,95.0000 L 22.5000,65.0000 L 32.5000,40.0000 L 77.5000,20.0000 L 122.5000,17.5000 L 167.5000,32.5000 L 175.0000,50.0000 L 145.0000,70.0000 L 145.0000,97.5000 L 175.0000,132.5000 L 177.5000,145.0000 L 152.5000,135.0000 L 135.0000,145.0000 L 125.0000,175.0000 L 112.5000,177.5000 L 97.5000,152.5000 L 72.5000,150.0000 L 37.5000,170.0000 L 30.0000,162.5000 Z" fill="#ff0000" fill-opacity="0.13" stroke="#770000" stroke-width="2"/>
</svg>
