<svg xmlns="http://www.w3.org/2000/svg" width="200" height="200" viewBox="0 0 200 200">
<rect width="200" height="200" fill="white"/>
<path d="M 43.0000,131.0000 L 50.0000,116.0000 L 57.0000,100.0000 L 63.0000,82.0000 L 68.0000,67.0000 L 74.0000,51.0000 L 81.0000,36.0000 L 88.0000,20.0000 L 101.0000,20.0000 L 112.0000,20.0000 L 119.0000,36.0000 L 126.0000,51.0000 L 132.0000,69.0000 L 139.0000,87.0000 L 143.0000,100.0000 L 150.0000,116.0000 L 157.0000,131.0000 L 163.0000,149.0000 L 168.0000,164.0000 L 174.0000,180.0000 L 163.0000,180.0000 L 150.0000,180.0000 L 143.0000,164.0000 L 139.0000,151.0000 L 132.0000,136.0000 L 114.0000,136.0000 L 99.0000,136.0000 L 81.0000,136.0000 L 63.0000,136.0000 L 57.0000,151.0000 L 52.0000,164.0000 L 46.0000,180.0000 L 37.0000,180.0000 L 26.0000,180.0000 L 32.0000,164.0000 L 35.0000,155.0000 L 39.0000,145.0000 L 43.0000,131.0000 ZM 88.0000,76.0000 L 81.0000,91.0000 L 74.0000,107.0000 L 83.0000,118.0000 L 99.0000,118.0000 L 112.0000,118.0000 L 121.0000,104.0000 L 114.0000,91.0000 L 110.0000,78.0000 L 103.0000,62.0000 L 92.0000,62.0000 L 88.0000,76.0000 Z" fill="#ff0000" fill-opacity="0.13" stroke="#770000" stroke-width="2"/>
<circle cx="132.00" cy="136.00" r="3" fill="#6495ED"/>
<circle cx="114.00" cy="136.00" r="3" fill="#6495ED"/>
<circle cx="99.00" cy="136.00" r="3" fill="#6495ED"/>
<circle cx="81.00" cy="136.00" r="3" fill="#6495ED"/>
<circle cx="63.00" cy="136.00" r="3" fill="#6495ED"/>
<circle cx="57.00" cy="151.00" r="3" fill="#6495ED"/>
<circle cx="52.00" cy="164.00" r="3" fill="#6495ED"/>
<circle cx="46.00" cy="180.00" r="3" fill="#6495ED"/>
<circle cx="37.00" cy="180.00" r="3" fill="#6495ED"/>
<circle cx="26.00" cy="180.00" r="3" fill="#6495ED"/>
<circle cx="32.00" cy="164.00" r="3" fill="#6495ED"/>
<circle cx="39.00" cy="145.00" r="3" fill="#6495ED"/>
<circle cx="43.00" cy="131.00" r="3" fill="#6495ED"/>
<circle cx="50.00" cy="116.00" r="3" fill="#6495ED"/>
<circle cx="57.00" cy="100.00" r="3" fill="#6495ED"/>
<circle cx="63.00" cy="82.00" r="3" fill="#6495ED"/>
<circle cx="68.00" cy="67.00" r="3" fill="#6495ED"/>
<circle cx="74.00" cy="51.00" r="3" fill="#6495ED"/>
<circle cx="81.00" cy="36.00" r="3" fill="#6495ED"/>
<circle cx="88.00" cy="20.00" r="3" fill="#6495ED"/>
<circle cx="101.00" cy="20.00" r="3" fill="#6495ED"/>
<circle cx="112.00" cy="20.00" r="3" fill="#6495ED"/>
<circle cx="119.00" cy="36.00" r="3" fill="#6495ED"/>
<circle cx="126.00" cy="51.00" r="3" fill="#6495ED"/>
<circle cx="132.00" cy="69.00" r="3" fill="#6495ED"/>
<circle cx="139.00" cy="87.00" r="3" fill="#6495ED"/>
<circle cx="143.00" cy="100.00" r="3" fill="#6495ED"/>
<circle cx="150.00" cy="116.00" r="3" fill="#6495ED"/>
<circle cx="157.00" cy="131.00" r="3" fill="#6495ED"/>
<circle cx="163.00" cy="149.00" r="3" fill="#6495ED"/>
<circle cx="168.00" cy="164.00" r="3" fill="#6495ED"/>
<circle cx="174.00" cy="180.00" r="3" fill="#6495ED"/>
<circle cx="163.00" cy="180.00" r="3" fill="#6495ED"/>
<circle cx="150.00" cy="180.00" r="3" fill="#6495ED"/>
<circle cx="143.00" cy="164.00" r="3" fill="#6495ED"/>
<circle cx="139.00" cy="151.00" r="3" fill="#6495ED"/>
<circle cx="132.00" cy="136.00" r="3" fill="#6495ED"/>
<circle cx="99.00" cy="49.00" r="3" fill="#6495ED"/>
<circle cx="92.00" cy="62.00" r="3" fill="#6495ED"/>
<circle cx="88.00" cy="76.00" r="3" fill="#6495ED"/>
<circle cx="81.00" cy="91.00" r="3" fill="#6495ED"/>
<circle cx="74.00" cy="107.00" r="3" fill="#6495ED"/>
<circle cx="70.00" cy="118.00" r="3" fill="#6495ED"/>
<circle cx="83.00" cy="118.00" r="3" fill="#6495ED"/>
<circle cx="99.00" cy="118.00" r="3" fill="#6495ED"/>
<circle cx="112.00" cy="118.00" r="3" fill="#6495ED"/>
<circle cx="126.00" cy="118.00" r="3" fill="#6495ED"/>
<circle cx="121.00" cy="104.00" r="3" fill="#6495ED"/>
<circle cx="114.00" cy="91.00" r="3" fill="#6495ED"/>
<circle cx="110.00" cy="78.00" r="3" fill="#6495ED"/>
<circle cx="103.00" cy="62.00" r="3" fill="#6495ED"/>
<circle cx="99.00" cy="49.00" r="3" fill="#6495ED"/>
<circle cx="34.00" cy="173.00" r="3" fill="#6495ED"/>
<circle cx="43.00" cy="169.00" r="3" fill="#6495ED"/>
<circle cx="48.00" cy="156.00" r="3" fill="#6495ED"/>
<circle cx="46.00" cy="142.00" r="3" fill="#6495ED"/>
<circle cx="52.00" cy="127.00" r="3" fill="#6495ED"/>
<circle cx="63.00" cy="127.00" r="3" fill="#6495ED"/>
<circle cx="61.00" cy="116.00" r="3" fill="#6495ED"/>
<circle cx="72.00" cy="129.00" r="3" fill="#6495ED"/>
<circle cx="90.00" cy="131.00" r="3" fill="#6495ED"/>
<circle cx="101.00" cy="124.00" r="3" fill="#6495ED"/>
<circle cx="123.00" cy="129.00" r="3" fill="#6495ED"/>
<circle cx="141.00" cy="138.00" r="3" fill="#6495ED"/>
<circle cx="166.00" cy="173.00" r="3" fill="#6495ED"/>
<circle cx="150.00" cy="167.00" r="3" fill="#6495ED"/>
<circle cx="159.00" cy="164.00" r="3" fill="#6495ED"/>
<circle cx="146.00" cy="156.00" r="3" fill="#6495ED"/>
<circle cx="154.00" cy="147.00" r="3" fill="#6495ED"/>
<circle cx="152.00" cy="138.00" r="3" fill="#6495ED"/>
<circle cx="146.00" cy="127.00" r="3" fill="#6495ED"/>
<circle cx="134.00" cy="124.00" r="3" fill="#6495ED"/>
<circle cx="143.00" cy="118.00" r="3" fill="#6495ED"/>
<circle cx="141.00" cy="109.00" r="3" fill="#6495ED"/>
<circle cx="130.00" cy="102.00" r="3" fill="#6495ED"/>
<circle cx="126.00" cy="96.00" r="3" fill="#6495ED"/>
<circle cx="132.00" cy="87.00" r="3" fill="#6495ED"/>
<circle cx="128.00" cy="73.00" r="3" fill="#6495ED"/>
<circle cx="117.00" cy="78.00" r="3" fill="#6495ED"/>
<circle cx="112.00" cy="67.00" r="3" fill="#6495ED"/>
<circle cx="119.00" cy="56.00" r="3" fill="#6495ED"/>
<circle cx="108.00" cy="53.00" r="3" fill="#6495ED"/>
<circle cx="119.00" cy="47.00" r="3" fill="#6495ED"/>
<circle cx="110.00" cy="29.00" r="3" fill="#6495ED"/>
<circle cx="103.00" cy="36.00" r="3" fill="#6495ED"/>
<circle cx="92.00" cy="29.00" r="3" fill="#6495ED"/>
<circle cx="86.00" cy="40.00" r="3" fill="#6495ED"/>
<circle cx="88.00" cy="58.00" r="3" fill="#6495ED"/>
<circle cx="79.00" cy="60.00" r="3" fill="#6495ED"/>
<circle cx="72.00" cy="76.00" r="3" fill="#6495ED"/>
<circle cx="83.00" cy="69.00" r="3" fill="#6495ED"/>
<circle cx="79.00" cy="82.00" r="3" fill="#6495ED"/>
<circle cx="68.00" cy="87.00" r="3" fill="#6495ED"/>
<circle cx="63.00" cy="98.00" r="3" fill="#6495ED"/>
<circle cx="68.00" cy="107.00" r="3" fill="#6495ED"/>
<circle cx="35.00" cy="155.00" r="3" fill="#6495ED"/>
</svg>
