<svg xmlns="http://www.w3.org/2000/svg" width="200" height="200" viewBox="0 0 200 200">
<rect width="200" height="200" fill="white"/>
<path d="M 0.0000,140.0000 L 0.0000,87.7372 L 69.9840,87.7372 L 69.9840,164.7300 L 32.8890,140.0000 L 0.0000,140.0000 Z" fill="#00ffa0" fill-opacity="0.25" stroke="#7ACAC4" stroke-width="2"/>
<path d="M 69.9840,164.7300 L 69.9840,126.6036 L 127.6378,126.6036 L 125.7133,128.8440 L 119.7217,133.5882 L 112.9372,137.1063 L 105.6075,139.2699 L 98.0000,140.0000 L 88.0740,140.0000 L 71.0940,165.4700 L 69.9840,164.7300 Z" fill="#00ffa0" fill-opacity="0.25" stroke="#7ACAC4" stroke-width="2"/>
<path d="M 69.9840,126.6036 L 69.9840,87.7372 L 138.5225,87.7372 L 137.9680,101.5987 L 136.9345,109.1709 L 134.4797,116.4084 L 130.6932,123.0468 L 127.6378,126.6036 L 69.9840,126.6036 Z" fill="#ff0000" fill-opacity="0.13" stroke="#770000" stroke-width="2"/>
<path d="M 0.0000,87.7372 L 0.0000,60.0000 L 45.2593,60.0000 L 66.7180,27.8120 L 69.9840,23.8366 L 69.9840,87.7372 L 0.0000,87.7372 Z" fill="#ff0000" fill-opacity="0.13" stroke="#770000" stroke-width="2"/>
<path d="M 69.9840,87.7372 L 69.9840,48.8708 L 139.8048,48.8708 L 139.9680,51.5987 L 138.5225,87.7372 L 69.9840,87.7372 Z" fill="#ff0000" fill-opacity="0.13" stroke="#770000" stroke-width="2"/>
<path d="M 69.9840,48.8708 L 69.9840,23.8366 L 71.7755,21.6561 L 77.9526,16.6247 L 85.0044,12.9172 L 92.6511,10.6809 L 100.5893,10.0043 L 104.9760,10.5088 L 104.9760,48.8708 L 69.9840,48.8708 Z" fill="#C0D0F0" fill-opacity="0.50" stroke="#6495ED" stroke-width="2"/>
<path d="M 104.9760,48.8708 L 104.9760,10.5088 L 108.5041,10.9145 L 116.0816,13.3751 L 123.0211,17.2887 L 129.0473,22.5000 L 133.9212,28.8022 L 137.4495,35.9453 L 139.4921,43.6460 L 139.8048,48.8708 L 104.9760,48.8708 Z" fill="#C0D0F0" fill-opacity="0.50" stroke="#6495ED" stroke-width="2"/>
</svg>
