<svg xmlns="http://www.w3.org/2000/svg" width="200" height="200" viewBox="0 0 200 200">
<rect width="200" height="200" fill="white"/>
<path d="M 20.0000,180.0000 L 60.0000,110.0000 L 10.0000,50.0000 L 100.0000,10.0000 L 190.0000,40.0000 L 130.0000,80.0000 L 190.0000,150.0000 L 140.0000,130.0000 L 120.0000,190.0000 L 90.0000,140.0000 L 20.0000,180.0000 Z" fill="#C0D0F0" fill-opacity="0.50" stroke="#6495ED" stroke-width="1"/>
<path d="M 35.0000,153.7500 L 45.0000,136.2500 L 49.3750,119.3750 L 48.1250,103.1250 L 41.2500,87.5000 L 28.7500,72.5000 L 25.0000,58.7500 L 30.0000,46.2500 L 43.7500,35.0000 L 66.2500,25.0000 L 88.7500,19.3750 L 111.2500,18.1250 L 133.7500,21.2500 L 156.2500,28.7500 L 169.3750,36.8750 L 173.1250,45.6250 L 167.5000,55.0000 L 152.5000,65.0000 L 145.0000,76.8750 L 145.0000,90.6250 L 152.5000,106.2500 L 167.5000,123.7500 L 175.6250,135.6250 L 176.8750,141.8750 L 171.2500,142.5000 L 158.7500,137.5000 L 148.1250,137.5000 L 139.3750,142.5000 L 132.5000,152.5000 L 127.5000,167.5000 L 121.8750,175.6250 L 115.6250,176.8750 L 108.7500,171.2500 L 101.2500,158.7500 L 91.2500,151.8750 L 78.7500,150.6250 L 63.7500,155.0000 L 46.2500,165.0000 L 35.6250,168.1250 L 31.8750,164.3750 L 35.0000,153.7500 Z" fill="#ff0000" fill-opacity="0.13" stroke="#770000" stroke-width="2"/>
</svg>
