<svg xmlns="http://www.w3.org/2000/svg" width="200" height="200" viewBox="0 0 200 200">
<rect width="200" height="200" fill="white"/>
<path d="M 20.0000,180.0000 L 60.0000,110.0000 L 10.0000,50.0000 L 100.0000,10.0000 L 190.0000,40.0000 L 130.0000,80.0000 L 190.0000,150.0000 L 140.0000,130.0000 L 120.0000,190.0000 L 90.0000,140.0000 L 20.0000,180.0000 Z" fill="#C0D0F0" fill-opacity="0.50" stroke="#6495ED" stroke-width="1"/>
<path d="M 37.5000,149.3750 L 42.5000,140.6250 L 46.0938,132.0312 L 48.2812,123.5938 L 49.0625,115.3125 L 48.4375,107.1875 L 46.4062,99.2188 L 42.9688,91.4062 L 38.1250,83.7500 L 31.8750,76.2500 L 27.8125,69.0625 L 25.9375,62.1875 L 26.2500,55.6250 L 28.7500,49.3750 L 33.4375,43.4375 L 40.3125,37.8125 L 49.3750,32.5000 L 60.6250,27.5000 L 71.8750,23.5938 L 83.1250,20.7812 L 94.3750,19.0625 L 105.6250,18.4375 L 116.8750,18.9062 L 128.1250,20.4688 L 139.3750,23.1250 L 150.6250,26.8750 L 159.5312,30.7812 L 166.0938,34.8438 L 170.3125,39.0625 L 172.1875,43.4375 L 171.7188,47.9688 L 168.9062,52.6562 L 163.7500,57.5000 L 156.2500,62.5000 L 150.6250,67.9688 L 146.8750,73.9062 L 145.0000,80.3125 L 145.0000,87.1875 L 146.8750,94.5312 L 150.6250,102.3438 L 156.2500,110.6250 L 163.7500,119.3750 L 169.5312,126.7188 L 173.5938,132.6562 L 175.9375,137.1875 L 176.5625,140.3125 L 175.4688,142.0312 L 172.6562,142.3438 L 168.1250,141.2500 L 161.8750,138.7500 L 156.0938,137.5000 L 150.7812,137.5000 L 145.9375,138.7500 L 141.5625,141.2500 L 137.6562,145.0000 L 134.2188,150.0000 L 131.2500,156.2500 L 128.7500,163.7500 L 126.0938,169.5312 L 123.2812,173.5938 L 120.3125,175.9375 L 117.1875,176.5625 L 113.9062,175.4688 L 110.4688,172.6562 L 106.8750,168.1250 L 103.1250,161.8750 L 98.7500,157.0312 L 93.7500,153.5938 L 88.1250,151.5625 L 81.8750,150.9375 L 75.0000,151.7188 L 67.5000,153.9062 L 59.3750,157.5000 L 50.6250,162.5000 L 43.5938,165.7812 L 38.2812,167.3438 L 34.6875,167.1875 L 32.8125,165.3125 L 32.6562,161.7188 L 34.2188,156.4062 L 37.5000,149.3750 Z" fill="#ff0000" fill-opacity="0.13" stroke="#770000" stroke-width="2"/>
</svg>
