<svg xmlns="http://www.w3.org/2000/svg" width="200" height="200" viewBox="0 0 200 200">
<rect width="200" height="200" fill="white"/>
<polyline points="10.00,60.00 80.00,70.00 100.00,10.00 190.00,50.00 140.00,180.00 120.00,80.00 50.00,170.00 30.00,100.00" fill="none" stroke="#6495ED" stroke-width="1" stroke-linecap="round" stroke-linejoin="round"/>
<polyline points="10.00,60.00 39.53,64.22 54.06,65.31 63.44,64.69 70.94,62.81 76.56,59.69 81.41,55.47 85.47,50.16 88.75,43.75 91.25,36.25 94.84,30.31 99.53,25.94 105.31,23.12 112.19,21.88 120.16,22.19 129.22,24.06 139.38,27.50 150.62,32.50 159.69,38.91 166.56,46.72 171.25,55.94 173.75,66.56 174.06,78.59 172.19,92.03 168.12,106.88 161.88,123.12 156.09,135.78 150.78,144.84 145.94,150.31 141.56,152.19 137.66,150.47 134.22,145.16 131.25,136.25 128.75,123.75 125.47,114.22 121.41,107.66 116.56,104.06 110.94,103.44 104.53,105.78 97.34,111.09 89.38,119.38 80.62,130.62 72.66,139.38 65.47,145.62 59.06,149.38 53.44,150.62 48.28,148.28 43.59,142.34 38.44,129.53 30.00,100.00" fill="none" stroke="#770000" stroke-width="4" stroke-linecap="round" stroke-linejoin="round"/>
</svg>
