<svg xmlns="http://www.w3.org/2000/svg" width="200" height="200" viewBox="0 0 200 200">
<rect width="200" height="200" fill="white"/>
<path d="M 40.0000,80.0000 L 10.0000,10.0000 L 80.0000,10.0000 L 100.0000,10.0000 L 160.0000,30.0000 L 190.0000,90.0000 L 180.0000,110.0000 L 120.0000,130.0000 L 140.0000,180.0000 L 120.0000,190.0000 L 50.0000,190.0000 L 30.0000,170.0000 L 80.0000,150.0000 L 100.0000,140.0000 L 120.0000,70.0000 L 40.0000,80.0000 Z" fill="#ff0000" fill-opacity="0.13" stroke="#770000" stroke-width="2"/>
<path d="M 10.0000,10.0000 L 80.0000,10.0000 L 120.0000,70.0000 L 100.0000,10.0000 L 160.0000,30.0000 L 190.0000,90.0000 L 40.0000,80.0000 L 180.0000,110.0000 L 140.0000,180.0000 L 120.0000,130.0000 L 120.0000,190.0000 L 100.0000,140.0000 L 80.0000,150.0000 L 50.0000,190.0000 L 30.0000,170.0000 L 10.0000,10.0000 Z" fill="#C0D0F0" fill-opacity="0.50" stroke="#6495ED" stroke-width="1"/>
<circle cx="10.00" cy="10.00" r="3" fill="#6495ED"/>
<circle cx="80.00" cy="10.00" r="3" fill="#6495ED"/>
<circle cx="120.00" cy="70.00" r="3" fill="#6495ED"/>
<circle cx="100.00" cy="10.00" r="3" fill="#6495ED"/>
<circle cx="160.00" cy="30.00" r="3" fill="#6495ED"/>
<circle cx="190.00" cy="90.00" r="3" fill="#6495ED"/>
<circle cx="40.00" cy="80.00" r="3" fill="#6495ED"/>
<circle cx="180.00" cy="110.00" r="3" fill="#6495ED"/>
<circle cx="140.00" cy="180.00" r="3" fill="#6495ED"/>
<circle cx="120.00" cy="130.00" r="3" fill="#6495ED"/>
<circle cx="120.00" cy="190.00" r="3" fill="#6495ED"/>
<circle cx="100.00" cy="140.00" r="3" fill="#6495ED"/>
<circle cx="80.00" cy="150.00" r="3" fill="#6495ED"/>
<circle cx="50.00" cy="190.00" r="3" fill="#6495ED"/>
<circle cx="30.00" cy="170.00" r="3" fill="#6495ED"/>
<circle cx="10.00" cy="10.00" r="3" fill="#6495ED"/>
</svg>
