<svg xmlns="http://www.w3.org/2000/svg" width="200" height="200" viewBox="0 0 200 200">
<rect width="200" height="200" fill="white"/>
<path d="M 10.0000,10.0000 L 30.0000,40.0000 L 40.0000,90.0000 L 100.0000,130.0000 L 120.0000,190.0000 L 10.0000,190.0000 L 10.0000,10.0000 Z" fill="#C0D0F0" fill-opacity="0.50" stroke="#6495ED" stroke-width="2"/>
<path d="M 100.0000,10.0000 L 10.0000,10.0000 L 30.0000,40.0000 L 40.0000,90.0000 L 50.0000,120.0000 L 74.0000,89.5000 L 100.0000,70.0000 L 140.0000,80.0000 L 140.0000,40.0000 L 100.0000,10.0000 Z" fill="#C0D0F0" fill-opacity="0.50" stroke="#6495ED" stroke-width="2"/>
<path d="M 140.0000,10.0000 L 190.0000,10.0000 L 190.0000,120.0000 L 140.0000,120.0000 L 140.0000,10.0000 Z" fill="#C0D0F0" fill-opacity="0.50" stroke="#6495ED" stroke-width="2"/>
<path d="M 180.0000,160.0000 L 120.0000,190.0000 L 100.0000,130.0000 L 140.0000,120.0000 L 190.0000,120.0000 L 180.0000,160.0000 Z" fill="#C0D0F0" fill-opacity="0.50" stroke="#6495ED" stroke-width="2"/>
<polyline points="40.00,90.00 100.00,130.00" fill="none" stroke="#770000" stroke-width="4" stroke-linecap="round" stroke-linejoin="round"/>
<circle cx="40.00" cy="90.00" r="5" fill="#770000"/>
<circle cx="100.00" cy="130.00" r="5" fill="#770000"/>
<polyline points="100.00,70.00 140.00,80.00 140.00,40.00 100.00,10.00" fill="none" stroke="#770000" stroke-width="4" stroke-linecap="round" stroke-linejoin="round"/>
<circle cx="100.00" cy="70.00" r="5" fill="#770000"/>
<circle cx="100.00" cy="10.00" r="5" fill="#770000"/>
<polyline points="40.00,90.00 50.00,120.00 74.00,89.50" fill="none" stroke="#770000" stroke-width="4" stroke-linecap="round" stroke-linejoin="round"/>
<circle cx="40.00" cy="90.00" r="5" fill="#770000"/>
<circle cx="74.00" cy="89.50" r="5" fill="#770000"/>
<polyline points="140.00,120.00 140.00,10.00" fill="none" stroke="#770000" stroke-width="4" stroke-linecap="round" stroke-linejoin="round"/>
<circle cx="140.00" cy="120.00" r="5" fill="#770000"/>
<circle cx="140.00" cy="10.00" r="5" fill="#770000"/>
</svg>
