<svg xmlns="http://www.w3.org/2000/svg" width="200" height="200" viewBox="0 0 200 200">
<rect width="200" height="200" fill="white"/>
<circle cx="26.00" cy="175.00" r="5" fill="#6495ED"/>
<polyline points="26.00,125.00 101.00,100.00" fill="none" stroke="#6495ED" stroke-width="4" stroke-linecap="round" stroke-linejoin="round"/>
<path d="M 76.0000,200.0000 L 76.0000,125.0000 L 26.0000,150.0000 L 76.0000,200.0000 Z" fill="#C0D0F0" fill-opacity="0.50" stroke="#6495ED" stroke-width="2"/>
<path d="M 101.0000,200.0000 L 101.0000,125.0000 L 176.0000,125.0000 L 176.0000,200.0000 L 101.0000,200.0000 ZM 151.0000,175.0000 L 126.0000,150.0000 L 151.0000,150.0000 L 151.0000,175.0000 Z" fill="#C0D0F0" fill-opacity="0.50" stroke="#6495ED" stroke-width="2"/>
<path d="M 26.0000,75.0000 L 26.0000,0.0000 L 126.0000,0.0000 L 126.0000,75.0000 L 26.0000,75.0000 ZM 51.0000,50.0000 L 101.0000,50.0000 L 76.0000,25.0000 L 51.0000,50.0000 Z" fill="#C0D0F0" fill-opacity="0.50" stroke="#6495ED" stroke-width="2"/>
<path d="M 151.0000,100.0000 L 151.0000,0.0000 L 176.0000,25.0000 L 151.0000,100.0000 Z" fill="#C0D0F0" fill-opacity="0.50" stroke="#6495ED" stroke-width="2"/>
</svg>
