<svg xmlns="http://www.w3.org/2000/svg" width="200" height="200" viewBox="0 0 200 200">
<rect width="200" height="200" fill="white"/>
<path d="M 74.0000,194.0000 L 74.0000,186.0000 L 54.0000,186.0000 L 74.0000,194.0000 Z" fill="#ff0000" fill-opacity="0.13" stroke="#770000" stroke-width="1"/>
<path d="M 54.0000,194.0000 L 34.0000,186.0000 L 34.0000,194.0000 L 54.0000,194.0000 Z" fill="#ff0000" fill-opacity="0.13" stroke="#770000" stroke-width="1"/>
<path d="M 10.0000,194.0000 L 6.0000,190.0000 L 7.0000,193.0000 L 10.0000,194.0000 Z" fill="#ff0000" fill-opacity="0.13" stroke="#770000" stroke-width="1"/>
<path d="M 6.0000,170.0000 L 14.0000,166.0000 L 6.0000,150.0000 L 6.0000,170.0000 Z" fill="#ff0000" fill-opacity="0.13" stroke="#770000" stroke-width="1"/>
<path d="M 6.0000,110.0000 L 14.0000,126.0000 L 14.0000,106.0000 L 6.0000,110.0000 Z" fill="#ff0000" fill-opacity="0.13" stroke="#770000" stroke-width="1"/>
<path d="M 6.0000,90.0000 L 14.0000,86.0000 L 6.0000,70.0000 L 6.0000,90.0000 Z" fill="#ff0000" fill-opacity="0.13" stroke="#770000" stroke-width="1"/>
<path d="M 150.0000,186.0000 L 14.0000,66.0000 L 134.0000,186.0000 L 150.0000,186.0000 Z" fill="#ff0000" fill-opacity="0.13" stroke="#770000" stroke-width="1"/>
<path d="M 154.0000,186.0000 L 14.0000,46.0000 L 150.0000,186.0000 L 154.0000,186.0000 Z" fill="#ff0000" fill-opacity="0.13" stroke="#770000" stroke-width="1"/>
<path d="M 154.0000,186.0000 L 150.0000,186.0000 L 154.0000,194.0000 L 154.0000,186.0000 Z" fill="#ff0000" fill-opacity="0.13" stroke="#770000" stroke-width="1"/>
<path d="M 6.0000,150.0000 L 14.0000,146.0000 L 6.0000,130.0000 L 6.0000,150.0000 Z" fill="#ff0000" fill-opacity="0.13" stroke="#770000" stroke-width="1"/>
<path d="M 6.0000,30.0000 L 14.0000,46.0000 L 14.0000,26.0000 L 6.0000,30.0000 Z" fill="#ff0000" fill-opacity="0.13" stroke="#770000" stroke-width="1"/>
<path d="M 150.0000,186.0000 L 134.0000,186.0000 L 134.0000,194.0000 L 150.0000,186.0000 Z" fill="#ff0000" fill-opacity="0.13" stroke="#770000" stroke-width="1"/>
<path d="M 150.0000,186.0000 L 134.0000,194.0000 L 154.0000,194.0000 L 150.0000,186.0000 Z" fill="#ff0000" fill-opacity="0.13" stroke="#770000" stroke-width="1"/>
<path d="M 134.0000,194.0000 L 114.0000,186.0000 L 114.0000,194.0000 L 134.0000,194.0000 Z" fill="#ff0000" fill-opacity="0.13" stroke="#770000" stroke-width="1"/>
<path d="M 114.0000,194.0000 L 94.0000,186.0000 L 94.0000,194.0000 L 114.0000,194.0000 Z" fill="#ff0000" fill-opacity="0.13" stroke="#770000" stroke-width="1"/>
<path d="M 94.0000,194.0000 L 94.0000,186.0000 L 74.0000,186.0000 L 94.0000,194.0000 Z" fill="#ff0000" fill-opacity="0.13" stroke="#770000" stroke-width="1"/>
<path d="M 14.0000,106.0000 L 94.0000,186.0000 L 14.0000,86.0000 L 14.0000,106.0000 Z" fill="#ff0000" fill-opacity="0.13" stroke="#770000" stroke-width="1"/>
<path d="M 14.0000,6.0000 L 14.0000,26.0000 L 154.0000,186.0000 L 14.0000,6.0000 Z" fill="#ff0000" fill-opacity="0.13" stroke="#770000" stroke-width="1"/>
<path d="M 34.0000,194.0000 L 34.0000,186.0000 L 14.0000,186.0000 L 34.0000,194.0000 Z" fill="#ff0000" fill-opacity="0.13" stroke="#770000" stroke-width="1"/>
<path d="M 34.0000,194.0000 L 14.0000,186.0000 L 14.0000,194.0000 L 34.0000,194.0000 Z" fill="#ff0000" fill-opacity="0.13" stroke="#770000" stroke-width="1"/>
<path d="M 14.0000,194.0000 L 14.0000,186.0000 L 10.0000,194.0000 L 14.0000,194.0000 Z" fill="#ff0000" fill-opacity="0.13" stroke="#770000" stroke-width="1"/>
<path d="M 6.0000,130.0000 L 14.0000,126.0000 L 6.0000,110.0000 L 6.0000,130.0000 Z" fill="#ff0000" fill-opacity="0.13" stroke="#770000" stroke-width="1"/>
<path d="M 6.0000,70.0000 L 14.0000,86.0000 L 14.0000,66.0000 L 6.0000,70.0000 Z" fill="#ff0000" fill-opacity="0.13" stroke="#770000" stroke-width="1"/>
<path d="M 6.0000,30.0000 L 14.0000,26.0000 L 6.0000,10.0000 L 6.0000,30.0000 Z" fill="#ff0000" fill-opacity="0.13" stroke="#770000" stroke-width="1"/>
<path d="M 134.0000,194.0000 L 134.0000,186.0000 L 114.0000,186.0000 L 134.0000,194.0000 Z" fill="#ff0000" fill-opacity="0.13" stroke="#770000" stroke-width="1"/>
<path d="M 74.0000,186.0000 L 94.0000,186.0000 L 14.0000,106.0000 L 74.0000,186.0000 Z" fill="#ff0000" fill-opacity="0.13" stroke="#770000" stroke-width="1"/>
<path d="M 34.0000,186.0000 L 14.0000,146.0000 L 14.0000,166.0000 L 34.0000,186.0000 Z" fill="#ff0000" fill-opacity="0.13" stroke="#770000" stroke-width="1"/>
<path d="M 14.0000,66.0000 L 114.0000,186.0000 L 134.0000,186.0000 L 14.0000,66.0000 Z" fill="#ff0000" fill-opacity="0.13" stroke="#770000" stroke-width="1"/>
<path d="M 74.0000,194.0000 L 54.0000,186.0000 L 54.0000,194.0000 L 74.0000,194.0000 Z" fill="#ff0000" fill-opacity="0.13" stroke="#770000" stroke-width="1"/>
<path d="M 54.0000,194.0000 L 54.0000,186.0000 L 34.0000,186.0000 L 54.0000,194.0000 Z" fill="#ff0000" fill-opacity="0.13" stroke="#770000" stroke-width="1"/>
<path d="M 10.0000,194.0000 L 7.0000,193.0000 L 8.0000,194.0000 L 10.0000,194.0000 Z" fill="#ff0000" fill-opacity="0.13" stroke="#770000" stroke-width="1"/>
<path d="M 6.0000,190.0000 L 14.0000,186.0000 L 6.0000,170.0000 L 6.0000,190.0000 Z" fill="#ff0000" fill-opacity="0.13" stroke="#770000" stroke-width="1"/>
<path d="M 6.0000,170.0000 L 14.0000,186.0000 L 14.0000,166.0000 L 6.0000,170.0000 Z" fill="#ff0000" fill-opacity="0.13" stroke="#770000" stroke-width="1"/>
<path d="M 6.0000,50.0000 L 14.0000,66.0000 L 14.0000,46.0000 L 6.0000,50.0000 Z" fill="#ff0000" fill-opacity="0.13" stroke="#770000" stroke-width="1"/>
<path d="M 114.0000,194.0000 L 114.0000,186.0000 L 94.0000,186.0000 L 114.0000,194.0000 Z" fill="#ff0000" fill-opacity="0.13" stroke="#770000" stroke-width="1"/>
<path d="M 74.0000,186.0000 L 14.0000,126.0000 L 54.0000,186.0000 L 74.0000,186.0000 Z" fill="#ff0000" fill-opacity="0.13" stroke="#770000" stroke-width="1"/>
<path d="M 54.0000,186.0000 L 14.0000,126.0000 L 14.0000,146.0000 L 54.0000,186.0000 Z" fill="#ff0000" fill-opacity="0.13" stroke="#770000" stroke-width="1"/>
<path d="M 74.0000,194.0000 L 94.0000,194.0000 L 74.0000,186.0000 L 74.0000,194.0000 Z" fill="#ff0000" fill-opacity="0.13" stroke="#770000" stroke-width="1"/>
<path d="M 10.0000,194.0000 L 14.0000,186.0000 L 6.0000,190.0000 L 10.0000,194.0000 Z" fill="#ff0000" fill-opacity="0.13" stroke="#770000" stroke-width="1"/>
<path d="M 7.0000,193.0000 L 6.0000,190.0000 L 6.0000,192.0000 L 7.0000,193.0000 Z" fill="#ff0000" fill-opacity="0.13" stroke="#770000" stroke-width="1"/>
<path d="M 6.0000,150.0000 L 14.0000,166.0000 L 14.0000,146.0000 L 6.0000,150.0000 Z" fill="#ff0000" fill-opacity="0.13" stroke="#770000" stroke-width="1"/>
<path d="M 6.0000,70.0000 L 14.0000,66.0000 L 6.0000,50.0000 L 6.0000,70.0000 Z" fill="#ff0000" fill-opacity="0.13" stroke="#770000" stroke-width="1"/>
<path d="M 6.0000,50.0000 L 14.0000,46.0000 L 6.0000,30.0000 L 6.0000,50.0000 Z" fill="#ff0000" fill-opacity="0.13" stroke="#770000" stroke-width="1"/>
<path d="M 14.0000,46.0000 L 14.0000,66.0000 L 150.0000,186.0000 L 14.0000,46.0000 Z" fill="#ff0000" fill-opacity="0.13" stroke="#770000" stroke-width="1"/>
<path d="M 74.0000,186.0000 L 14.0000,106.0000 L 14.0000,126.0000 L 74.0000,186.0000 Z" fill="#ff0000" fill-opacity="0.13" stroke="#770000" stroke-width="1"/>
<path d="M 14.0000,86.0000 L 94.0000,186.0000 L 114.0000,186.0000 L 14.0000,86.0000 Z" fill="#ff0000" fill-opacity="0.13" stroke="#770000" stroke-width="1"/>
<path d="M 6.0000,6.0000 L 6.0000,10.0000 L 14.0000,6.0000 L 6.0000,6.0000 Z" fill="#ff0000" fill-opacity="0.13" stroke="#770000" stroke-width="1"/>
<path d="M 14.0000,6.0000 L 6.0000,10.0000 L 14.0000,26.0000 L 14.0000,6.0000 Z" fill="#ff0000" fill-opacity="0.13" stroke="#770000" stroke-width="1"/>
<path d="M 154.0000,186.0000 L 14.0000,26.0000 L 14.0000,46.0000 L 154.0000,186.0000 Z" fill="#ff0000" fill-opacity="0.13" stroke="#770000" stroke-width="1"/>
<path d="M 6.0000,130.0000 L 14.0000,146.0000 L 14.0000,126.0000 L 6.0000,130.0000 Z" fill="#ff0000" fill-opacity="0.13" stroke="#770000" stroke-width="1"/>
<path d="M 6.0000,110.0000 L 14.0000,106.0000 L 6.0000,90.0000 L 6.0000,110.0000 Z" fill="#ff0000" fill-opacity="0.13" stroke="#770000" stroke-width="1"/>
<path d="M 6.0000,90.0000 L 14.0000,106.0000 L 14.0000,86.0000 L 6.0000,90.0000 Z" fill="#ff0000" fill-opacity="0.13" stroke="#770000" stroke-width="1"/>
<path d="M 54.0000,186.0000 L 14.0000,146.0000 L 34.0000,186.0000 L 54.0000,186.0000 Z" fill="#ff0000" fill-opacity="0.13" stroke="#770000" stroke-width="1"/>
<path d="M 34.0000,186.0000 L 14.0000,166.0000 L 14.0000,186.0000 L 34.0000,186.0000 Z" fill="#ff0000" fill-opacity="0.13" stroke="#770000" stroke-width="1"/>
<path d="M 14.0000,86.0000 L 114.0000,186.0000 L 14.0000,66.0000 L 14.0000,86.0000 Z" fill="#ff0000" fill-opacity="0.13" stroke="#770000" stroke-width="1"/>
<circle cx="14.00" cy="186.00" r="5" fill="#6495ED"/>
<circle cx="34.00" cy="186.00" r="5" fill="#6495ED"/>
<circle cx="54.00" cy="186.00" r="5" fill="#6495ED"/>
<circle cx="74.00" cy="186.00" r="5" fill="#6495ED"/>
<circle cx="94.00" cy="186.00" r="5" fill="#6495ED"/>
<circle cx="114.00" cy="186.00" r="5" fill="#6495ED"/>
<circle cx="134.00" cy="186.00" r="5" fill="#6495ED"/>
<circle cx="150.00" cy="186.00" r="5" fill="#6495ED"/>
<circle cx="154.00" cy="186.00" r="5" fill="#6495ED"/>
<circle cx="154.00" cy="194.00" r="5" fill="#6495ED"/>
<circle cx="134.00" cy="194.00" r="5" fill="#6495ED"/>
<circle cx="114.00" cy="194.00" r="5" fill="#6495ED"/>
<circle cx="94.00" cy="194.00" r="5" fill="#6495ED"/>
<circle cx="74.00" cy="194.00" r="5" fill="#6495ED"/>
<circle cx="54.00" cy="194.00" r="5" fill="#6495ED"/>
<circle cx="34.00" cy="194.00" r="5" fill="#6495ED"/>
<circle cx="14.00" cy="194.00" r="5" fill="#6495ED"/>
<circle cx="10.00" cy="194.00" r="5" fill="#6495ED"/>
<circle cx="8.00" cy="194.00" r="5" fill="#6495ED"/>
<circle cx="7.00" cy="193.00" r="5" fill="#6495ED"/>
<circle cx="6.00" cy="192.00" r="5" fill="#6495ED"/>
<circle cx="6.00" cy="190.00" r="5" fill="#6495ED"/>
<circle cx="6.00" cy="170.00" r="5" fill="#6495ED"/>
<circle cx="6.00" cy="150.00" r="5" fill="#6495ED"/>
<circle cx="6.00" cy="130.00" r="5" fill="#6495ED"/>
<circle cx="6.00" cy="110.00" r="5" fill="#6495ED"/>
<circle cx="6.00" cy="90.00" r="5" fill="#6495ED"/>
<circle cx="6.00" cy="70.00" r="5" fill="#6495ED"/>
<circle cx="6.00" cy="50.00" r="5" fill="#6495ED"/>
<circle cx="6.00" cy="30.00" r="5" fill="#6495ED"/>
<circle cx="6.00" cy="10.00" r="5" fill="#6495ED"/>
<circle cx="6.00" cy="6.00" r="5" fill="#6495ED"/>
<circle cx="14.00" cy="6.00" r="5" fill="#6495ED"/>
<circle cx="14.00" cy="26.00" r="5" fill="#6495ED"/>
<circle cx="14.00" cy="46.00" r="5" fill="#6495ED"/>
<circle cx="14.00" cy="66.00" r="5" fill="#6495ED"/>
<circle cx="14.00" cy="86.00" r="5" fill="#6495ED"/>
<circle cx="14.00" cy="106.00" r="5" fill="#6495ED"/>
<circle cx="14.00" cy="126.00" r="5" fill="#6495ED"/>
<circle cx="14.00" cy="146.00" r="5" fill="#6495ED"/>
<circle cx="14.00" cy="166.00" r="5" fill="#6495ED"/>
<circle cx="14.00" cy="186.00" r="5" fill="#6495ED"/>
</svg>
