<svg xmlns="http://www.w3.org/2000/svg" width="200" height="200" viewBox="0 0 200 200">
<rect width="200" height="200" fill="white"/>
<path d="M 74.3000,26.7000 L 113.5000,26.7000 L 111.7000,28.5000 L 75.5000,117.3000 L 75.5000,173.2000 L 77.3000,175.0000 L 41.2000,175.0000 L 43.2000,173.2000 L 43.2000,117.3000 L 6.8000,28.5000 L 5.0000,26.7000 L 44.2000,26.7000 L 42.4000,28.5000 L 51.2000,51.2000 L 59.3000,79.7000 L 67.5000,50.6000 L 76.1000,28.5000 L 74.3000,26.7000 Z" fill="#ff0000" fill-opacity="0.13" stroke="#770000" stroke-width="2"/>
<path d="M 143.4000,58.4000 L 145.6000,58.4000 L 147.8000,58.6000 L 150.0000,58.8000 L 152.0000,59.0000 L 154.3000,59.4000 L 156.3000,59.8000 L 158.1000,60.3000 L 160.1000,60.9000 L 161.9000,61.5000 L 163.7000,62.3000 L 165.5000,63.1000 L 167.1000,63.9000 L 168.7000,64.9000 L 170.3000,65.9000 L 171.7000,67.1000 L 173.1000,68.3000 L 174.6000,69.5000 L 175.8000,70.9000 L 177.0000,72.3000 L 178.0000,73.9000 L 179.0000,75.5000 L 180.0000,77.1000 L 181.0000,78.7000 L 181.8000,80.5000 L 182.6000,82.4000 L 183.2000,84.4000 L 183.8000,86.4000 L 184.2000,88.4000 L 184.6000,90.4000 L 184.8000,92.6000 L 185.0000,94.8000 L 185.0000,97.2000 L 185.0000,137.0000 L 185.0000,139.4000 L 184.8000,141.6000 L 184.6000,143.9000 L 184.2000,145.9000 L 183.8000,147.9000 L 183.4000,149.9000 L 182.8000,151.9000 L 182.0000,153.7000 L 181.2000,155.5000 L 180.4000,157.1000 L 179.4000,158.7000 L 178.4000,160.3000 L 177.2000,161.7000 L 176.0000,163.1000 L 174.8000,164.6000 L 173.3000,165.8000 L 171.9000,167.0000 L 170.3000,168.0000 L 168.9000,169.2000 L 167.3000,170.0000 L 165.5000,171.0000 L 163.9000,171.8000 L 162.1000,172.6000 L 160.3000,173.4000 L 158.5000,174.0000 L 156.5000,174.6000 L 154.5000,175.0000 L 152.4000,175.4000 L 150.2000,175.8000 L 148.0000,176.0000 L 145.8000,176.0000 L 143.6000,176.0000 L 141.4000,176.0000 L 139.2000,175.8000 L 137.0000,175.6000 L 134.8000,175.4000 L 132.8000,175.0000 L 130.7000,174.6000 L 128.7000,174.0000 L 126.7000,173.4000 L 124.9000,172.8000 L 123.1000,172.0000 L 121.3000,171.2000 L 119.7000,170.2000 L 118.1000,169.2000 L 116.5000,168.2000 L 115.1000,167.2000 L 113.7000,166.0000 L 112.3000,164.8000 L 111.0000,163.3000 L 109.8000,161.9000 L 108.8000,160.5000 L 107.8000,158.9000 L 106.8000,157.3000 L 105.8000,155.5000 L 105.0000,153.7000 L 104.2000,151.9000 L 103.6000,149.9000 L 103.0000,147.9000 L 102.6000,145.9000 L 102.2000,143.7000 L 102.0000,141.4000 L 101.8000,139.2000 L 101.8000,137.0000 L 101.8000,97.2000 L 101.8000,94.8000 L 102.0000,92.6000 L 102.2000,90.4000 L 102.6000,88.4000 L 103.0000,86.4000 L 103.4000,84.4000 L 104.0000,82.4000 L 104.8000,80.5000 L 105.6000,78.7000 L 106.4000,77.1000 L 107.4000,75.5000 L 108.4000,73.9000 L 109.6000,72.5000 L 110.8000,71.1000 L 112.1000,69.7000 L 113.5000,68.5000 L 114.9000,67.3000 L 116.5000,66.3000 L 117.9000,65.3000 L 119.7000,64.3000 L 121.3000,63.3000 L 123.1000,62.5000 L 124.9000,61.7000 L 126.7000,61.1000 L 128.7000,60.5000 L 130.5000,59.8000 L 132.5000,59.4000 L 134.8000,59.0000 L 136.8000,58.8000 L 139.0000,58.6000 L 141.2000,58.4000 L 143.4000,58.4000 ZM 153.2000,96.8000 L 150.2000,91.4000 L 143.6000,89.4000 L 136.8000,91.2000 L 133.8000,96.8000 L 133.8000,137.0000 L 136.6000,142.4000 L 143.2000,144.5000 L 149.8000,142.6000 L 153.2000,137.0000 L 153.2000,96.8000 Z" fill="#ff0000" fill-opacity="0.13" stroke="#770000" stroke-width="2"/>
</svg>
