<svg xmlns="http://www.w3.org/2000/svg" width="200" height="200" viewBox="0 0 200 200">
<rect width="200" height="200" fill="white"/>
<path d="M 190.0000,50.0000 L 20.0000,190.0000 L 160.0000,130.0000 L 190.0000,50.0000 Z" fill="#C0D0F0" fill-opacity="0.50" stroke="#6495ED" stroke-width="2"/>
<path d="M 110.0000,40.0000 L 109.4236,45.8527 L 107.7164,51.4805 L 104.9441,56.6671 L 101.2132,61.2132 L 96.6671,64.9441 L 91.4805,67.7164 L 85.8527,69.4236 L 80.0000,70.0000 L 74.1473,69.4236 L 68.5195,67.7164 L 63.3329,64.9441 L 58.7868,61.2132 L 55.0559,56.6671 L 52.2836,51.4805 L 50.5764,45.8527 L 50.0000,40.0000 L 50.5764,34.1473 L 52.2836,28.5195 L 55.0559,23.3329 L 58.7868,18.7868 L 63.3329,15.0559 L 68.5195,12.2836 L 74.1473,10.5764 L 80.0000,10.0000 L 85.8527,10.5764 L 91.4805,12.2836 L 96.6671,15.0559 L 101.2132,18.7868 L 104.9441,23.3329 L 107.7164,28.5195 L 109.4236,34.1473 L 110.0000,40.0000 Z" fill="#00ffa0" fill-opacity="0.25" stroke="#7ACAC4" stroke-width="2"/>
<polyline points="20.00,190.00 91.48,12.28" fill="none" stroke="#770000" stroke-width="4" stroke-linecap="round" stroke-linejoin="round"/>
</svg>
