<svg xmlns="http://www.w3.org/2000/svg" width="200" height="200" viewBox="0 0 200 200">
<rect width="200" height="200" fill="white"/>
<path d="M 28.2691,70.7694 L 26.2436,74.4303 L 24.6187,78.2859 L 23.4129,82.2922 L 22.6397,86.4041 L 22.3079,90.5748 L 22.4214,94.7572 L 22.9788,98.9039 L 23.9738,102.9678 L 25.3951,106.9029 L 27.2266,110.6646 L 29.4476,114.2104 L 32.0329,117.4999 L 34.9532,120.4961 L 38.1755,123.1648 L 41.6632,125.4760 L 45.3767,127.4033 L 49.2741,128.9250 L 53.3112,130.0238 L 57.4422,130.6872 L 61.6203,130.9078 L 65.7982,130.6831 L 69.9285,130.0155 L 73.9645,128.9127 L 77.8603,127.3871 L 81.5720,125.4561 L 85.0574,123.1415 L 88.2770,120.4695 L 91.1943,117.4705 L 93.7763,114.1783 L 95.9938,110.6304 L 97.8216,106.8668 L 99.2390,102.9303 L 100.2299,98.8654 L 100.7832,94.7182 L 100.8925,90.5357 L 100.5566,86.3653 L 99.7793,82.2542 L 98.5694,78.2490 L 96.9407,74.3952 L 94.9116,70.7362 L 92.5050,67.3137 L 89.7483,64.1664 L 86.6726,61.3299 L 83.3129,58.8364 L 79.7072,56.7142 L 75.8963,54.9872 L 71.9234,53.6751 L 67.8336,52.7928 L 63.6732,52.3501 L 59.4892,52.3522 L 55.3292,52.7990 L 51.2403,53.6854 L 47.2687,55.0015 L 43.4596,56.7322 L 39.8560,58.8581 L 36.4987,61.3549 L 33.4259,64.1944 L 30.6723,67.3445 L 28.2691,70.7694 L 28.2691,70.7694 Z" fill="#ffff99" stroke="yellow" stroke-width="0"/>
<polyline points="10.00,100.00 60.00,20.00 130.00,50.00 190.00,40.00" fill="none" stroke="#6495ED" stroke-width="4" stroke-linecap="round" stroke-linejoin="round"/>
<polyline points="20.00,150.00 70.00,130.00 90.00,180.00 110.00,160.00" fill="none" stroke="#6495ED" stroke-width="4" stroke-linecap="round" stroke-linejoin="round"/>
<polyline points="160.00,170.00 100.00,100.00 180.00,100.00" fill="none" stroke="#6495ED" stroke-width="4" stroke-linecap="round" stroke-linejoin="round"/>
<polyline points="61.60,91.60 28.27,70.77" fill="none" stroke="#770000" stroke-width="4" stroke-linecap="round" stroke-linejoin="round"/>
<circle cx="61.60" cy="91.60" r="5" fill="#770000"/>
<circle cx="28.27" cy="70.77" r="5" fill="#770000"/>
</svg>
