<svg xmlns="http://www.w3.org/2000/svg" width="200" height="200" viewBox="0 0 200 200">
<rect width="200" height="200" fill="white"/>
<path d="M 115.7311,177.1390 L 119.6694,176.0063 L 123.4649,174.4615 L 127.0747,172.5219 L 130.4579,170.2097 L 133.5762,167.5509 L 136.3942,164.5758 L 138.8800,161.3179 L 141.0054,157.8143 L 142.7464,154.1047 L 144.0832,150.2310 L 145.0006,146.2371 L 145.4884,142.1684 L 145.5409,138.0708 L 145.1576,133.9909 L 144.3427,129.9749 L 143.1057,126.0682 L 141.4603,122.3151 L 139.4254,118.7582 L 137.0239,115.4377 L 134.2831,112.3914 L 131.2339,109.6536 L 127.9111,107.2554 L 124.3522,105.2240 L 120.5975,103.5824 L 116.6895,102.3492 L 112.6727,101.5383 L 108.5924,101.1591 L 104.4949,101.2157 L 100.4266,101.7075 L 96.4337,102.6289 L 92.5613,103.9696 L 88.8534,105.7142 L 85.3519,107.8431 L 82.0966,110.3322 L 79.1242,113.1531 L 76.4686,116.2740 L 74.1597,119.6595 L 72.2237,123.2713 L 70.6827,127.0684 L 69.5539,131.0077 L 68.8503,135.0448 L 68.5798,139.1337 L 68.7455,143.2282 L 69.3454,147.2820 L 70.3728,151.2489 L 71.8161,155.0843 L 73.6588,158.7444 L 75.8802,162.1880 L 78.4550,165.3759 L 81.3541,168.2721 L 84.5446,170.8438 L 87.9903,173.0617 L 91.6524,174.9008 L 95.4891,176.3403 L 99.4571,177.3637 L 103.5114,177.9596 L 107.6061,178.1212 L 111.6948,177.8466 L 115.7311,177.1390 L 115.7311,177.1390 Z" fill="#ffff99" stroke="yellow" stroke-width="0"/>
<path d="M 90.0000,10.0000 L 10.0000,100.0000 L 60.0000,190.0000 L 190.0000,160.0000 L 120.0000,100.0000 L 190.0000,20.0000 L 90.0000,10.0000 Z" fill="#C0D0F0" fill-opacity="0.50" stroke="#6495ED" stroke-width="2"/>
<circle cx="70.00" cy="150.00" r="5" fill="#6495ED"/>
<circle cx="60.00" cy="70.00" r="5" fill="#6495ED"/>
<circle cx="130.00" cy="50.00" r="5" fill="#6495ED"/>
<circle cx="80.00" cy="110.00" r="5" fill="#6495ED"/>
<path d="M 90.0000,10.0000 L 10.0000,100.0000 L 60.0000,190.0000 L 190.0000,160.0000 L 120.0000,100.0000 L 190.0000,20.0000 L 90.0000,10.0000 Z" fill="#00ffa0" fill-opacity="0.25" stroke="#7ACAC4" stroke-width="2"/>
<polyline points="107.07,139.63 115.73,177.14" fill="none" stroke="#770000" stroke-width="4" stroke-linecap="round" stroke-linejoin="round"/>
<circle cx="107.07" cy="139.63" r="5" fill="#770000"/>
<circle cx="115.73" cy="177.14" r="5" fill="#770000"/>
</svg>
