<svg xmlns="http://www.w3.org/2000/svg" width="200" height="200" viewBox="0 0 200 200">
<rect width="200" height="200" fill="white"/>
<path d="M 135.5971,85.0000 L 134.3848,97.3096 L 130.7942,109.1462 L 124.9634,120.0549 L 117.1164,129.6164 L 107.5549,137.4634 L 96.6462,143.2942 L 84.8096,146.8848 L 72.5000,148.0971 L 60.1904,146.8848 L 48.3538,143.2942 L 37.4451,137.4634 L 27.8836,129.6164 L 20.0366,120.0549 L 14.2058,109.1462 L 10.6152,97.3096 L 9.4029,85.0000 L 10.6152,72.6904 L 14.2058,60.8538 L 20.0366,49.9451 L 27.8836,40.3836 L 37.4451,32.5366 L 48.3538,26.7058 L 60.1904,23.1152 L 72.5000,21.9029 L 84.8096,23.1152 L 96.6462,26.7058 L 107.5549,32.5366 L 117.1164,40.3836 L 124.9634,49.9451 L 130.7942,60.8538 L 134.3848,72.6904 L 135.5971,85.0000 Z" fill="#ff0000" fill-opacity="0.13" stroke="#770000" stroke-width="2"/>
<polyline points="55.00,125.00 125.00,50.00" fill="none" stroke="#6495ED" stroke-width="4" stroke-linecap="round" stroke-linejoin="round"/>
<circle cx="20.00" cy="120.00" r="5" fill="#6495ED"/>
</svg>
