<svg xmlns="http://www.w3.org/2000/svg" width="200" height="200" viewBox="0 0 200 200">
<rect width="200" height="200" fill="white"/>
<path d="M 149.0000,120.0000 L 146.0000,129.0000 L 142.0000,138.0000 L 135.0000,145.0000 L 128.0000,152.0000 L 119.0000,156.0000 L 110.0000,159.0000 L 100.0000,160.0000 L 90.0000,159.0000 L 81.0000,156.0000 L 72.0000,152.0000 L 65.0000,145.0000 L 64.0000,144.0000 L 14.0000,194.0000 L 13.0000,194.0000 L 12.0000,195.0000 L 11.0000,195.0000 L 10.0000,195.0000 L 9.0000,195.0000 L 8.0000,195.0000 L 7.0000,194.0000 L 6.0000,194.0000 L 6.0000,193.0000 L 5.0000,192.0000 L 5.0000,191.0000 L 5.0000,190.0000 L 5.0000,189.0000 L 5.0000,188.0000 L 6.0000,187.0000 L 6.0000,186.0000 L 56.7692,135.2308 L 54.0000,129.0000 L 51.0000,120.0000 L 50.0000,110.0000 L 51.0000,100.0000 L 54.0000,91.0000 L 58.0000,82.0000 L 65.0000,75.0000 L 72.0000,68.0000 L 81.0000,64.0000 L 90.0000,61.0000 L 100.0000,60.0000 L 110.0000,61.0000 L 119.0000,64.0000 L 125.2308,66.7692 L 186.0000,6.0000 L 187.0000,6.0000 L 188.0000,5.0000 L 189.0000,5.0000 L 190.0000,5.0000 L 191.0000,5.0000 L 192.0000,5.0000 L 193.0000,6.0000 L 194.0000,6.0000 L 194.0000,7.0000 L 195.0000,8.0000 L 195.0000,9.0000 L 195.0000,10.0000 L 195.0000,11.0000 L 195.0000,12.0000 L 194.0000,13.0000 L 194.0000,14.0000 L 134.0000,74.0000 L 135.0000,75.0000 L 142.0000,82.0000 L 146.0000,91.0000 L 149.0000,100.0000 L 150.0000,110.0000 L 149.0000,120.0000 Z" fill="#ff0000" fill-opacity="0.13" stroke="#770000" stroke-width="2"/>
</svg>
