<svg xmlns="http://www.w3.org/2000/svg" width="200" height="200" viewBox="0 0 200 200">
<rect width="200" height="200" fill="white"/>
<path d="M 91.0000,150.0000 L 79.0000,178.0000 L 51.0000,190.0000 L 23.0000,178.0000 L 11.0000,150.0000 L 23.0000,122.0000 L 51.0000,110.0000 L 79.0000,122.0000 L 91.0000,150.0000 Z" fill="#C0D0F0" fill-opacity="0.50" stroke="#6495ED" stroke-width="2"/>
<path d="M 91.0000,100.0000 L 79.0000,128.0000 L 51.0000,140.0000 L 23.0000,128.0000 L 11.0000,100.0000 L 23.0000,72.0000 L 51.0000,60.0000 L 79.0000,72.0000 L 91.0000,100.0000 Z" fill="#C0D0F0" fill-opacity="0.50" stroke="#6495ED" stroke-width="2"/>
<path d="M 91.0000,50.0000 L 79.0000,78.0000 L 51.0000,90.0000 L 23.0000,78.0000 L 11.0000,50.0000 L 23.0000,22.0000 L 51.0000,10.0000 L 79.0000,22.0000 L 91.0000,50.0000 Z" fill="#C0D0F0" fill-opacity="0.50" stroke="#6495ED" stroke-width="2"/>
<path d="M 141.0000,150.0000 L 129.0000,178.0000 L 101.0000,190.0000 L 73.0000,178.0000 L 61.0000,150.0000 L 73.0000,122.0000 L 101.0000,110.0000 L 129.0000,122.0000 L 141.0000,150.0000 Z" fill="#C0D0F0" fill-opacity="0.50" stroke="#6495ED" stroke-width="2"/>
<path d="M 141.0000,100.0000 L 129.0000,128.0000 L 101.0000,140.0000 L 73.0000,128.0000 L 61.0000,100.0000 L 73.0000,72.0000 L 101.0000,60.0000 L 129.0000,72.0000 L 141.0000,100.0000 Z" fill="#C0D0F0" fill-opacity="0.50" stroke="#6495ED" stroke-width="2"/>
<path d="M 141.0000,50.0000 L 129.0000,78.0000 L 101.0000,90.0000 L 73.0000,78.0000 L 61.0000,50.0000 L 73.0000,22.0000 L 101.0000,10.0000 L 129.0000,22.0000 L 141.0000,50.0000 Z" fill="#C0D0F0" fill-opacity="0.50" stroke="#6495ED" stroke-width="2"/>
</svg>
