<svg xmlns="http://www.w3.org/2000/svg" width="200" height="200" viewBox="0 0 200 200">
<rect width="200" height="200" fill="white"/>
<path d="M 142.1190,123.6719 L 141.2511,132.4833 L 138.6809,140.9561 L 134.5072,148.7647 L 128.8902,155.6090 L 122.0459,161.2259 L 114.2373,165.3997 L 105.7645,167.9699 L 96.9531,168.8377 L 88.1417,167.9699 L 79.6689,165.3997 L 71.8603,161.2259 L 65.0160,155.6090 L 59.3991,148.7647 L 55.2253,140.9561 L 52.6551,132.4833 L 51.7873,123.6719 L 52.6551,114.8605 L 55.2253,106.3877 L 59.3991,98.5791 L 65.0160,91.7348 L 71.8603,86.1178 L 79.6689,81.9441 L 88.1417,79.3739 L 96.9531,78.5060 L 105.7645,79.3739 L 114.2373,81.9441 L 122.0459,86.1178 L 128.8902,91.7348 L 134.5072,98.5791 L 138.6809,106.3877 L 141.2511,114.8605 L 142.1190,123.6719 Z" fill="#ffff99" stroke="yellow" stroke-width="0"/>
<path d="M 40.0000,20.0000 L 110.0000,40.0000 L 180.0000,20.0000 L 180.0000,80.0000 L 140.0000,110.0000 L 160.0000,160.0000 L 80.0000,190.0000 L 70.0000,160.0000 L 20.0000,150.0000 L 40.0000,20.0000 ZM 60.0000,60.0000 L 50.0000,110.0000 L 90.0000,60.0000 L 60.0000,60.0000 Z" fill="#C0D0F0" fill-opacity="0.50" stroke="#6495ED" stroke-width="2"/>
<circle cx="96.95" cy="123.67" r="4" fill="#770000"/>
<circle cx="140.00" cy="110.00" r="4" fill="#770000"/>
<polyline points="96.95,123.67 140.00,110.00" fill="none" stroke="#770000" stroke-width="4" stroke-linecap="round" stroke-linejoin="round"/>
</svg>
