<svg xmlns="http://www.w3.org/2000/svg" width="200" height="200" viewBox="0 0 200 200">
<rect width="200" height="200" fill="white"/>
<polyline points="20.00,20.00 50.00,100.00 110.00,50.00 170.00,80.00" fill="none" stroke="#770000" stroke-width="4" stroke-linecap="round" stroke-linejoin="round"/>
<polyline points="20.00,190.00 80.00,170.00 90.00,80.00" fill="none" stroke="#770000" stroke-width="4" stroke-linecap="round" stroke-linejoin="round"/>
<polyline points="90.00,80.00 130.00,70.00" fill="none" stroke="#770000" stroke-width="4" stroke-linecap="round" stroke-linejoin="round"/>
<polyline points="130.00,70.00 130.00,130.00 160.00,160.00 180.00,110.00 140.00,120.00" fill="none" stroke="#770000" stroke-width="4" stroke-linecap="round" stroke-linejoin="round"/>
<polyline points="50.00,160.00 70.00,160.00 80.00,130.00 60.00,140.00 50.00,160.00" fill="none" stroke="#770000" stroke-width="4" stroke-linecap="round" stroke-linejoin="round"/>
<polyline points="20.00,20.00 20.00,50.00 50.00,50.00 50.00,100.00 110.00,50.00 150.00,60.00 170.00,80.00" fill="none" stroke="#6495ED" stroke-width="1" stroke-linecap="round" stroke-linejoin="round"/>
<polyline points="20.00,190.00 80.00,170.00 90.00,80.00" fill="none" stroke="#6495ED" stroke-width="1" stroke-linecap="round" stroke-linejoin="round"/>
<polyline points="90.00,80.00 130.00,70.00" fill="none" stroke="#6495ED" stroke-width="1" stroke-linecap="round" stroke-linejoin="round"/>
<polyline points="130.00,70.00 130.00,130.00 160.00,160.00 180.00,140.00 180.00,110.00 140.00,120.00" fill="none" stroke="#6495ED" stroke-width="1" stroke-linecap="round" stroke-linejoin="round"/>
<polyline points="50.00,160.00 70.00,160.00 80.00,130.00 70.00,140.00 60.00,140.00 50.00,150.00 50.00,160.00" fill="none" stroke="#6495ED" stroke-width="1" stroke-linecap="round" stroke-linejoin="round"/>
</svg>
