<svg xmlns="http://www.w3.org/2000/svg" width="200" height="200" viewBox="0 0 200 200">
<rect width="200" height="200" fill="white"/>
<path d="M 131.0000,42.0000 L 136.0000,37.0000 L 161.0000,35.0000 L 173.0000,44.0000 L 179.0000,52.0000 L 169.0000,60.0000 L 186.0000,56.0000 L 190.0000,63.0000 L 185.0000,69.0000 L 174.0000,72.0000 L 174.0000,76.0000 L 166.0000,81.0000 L 158.0000,79.0000 L 158.0000,85.0000 L 165.0000,93.0000 L 161.0000,103.0000 L 166.0000,112.0000 L 166.0000,121.0000 L 158.0000,143.0000 L 145.0000,143.0000 L 112.0000,147.0000 L 111.0000,153.0000 L 93.0000,157.0000 L 90.0000,152.0000 L 88.0000,160.0000 L 80.0000,161.0000 L 68.0000,168.0000 L 51.0000,167.0000 L 40.0000,169.0000 L 39.0000,166.0000 L 49.0000,162.0000 L 34.0000,162.0000 L 25.0000,166.0000 L 28.0000,161.0000 L 36.0000,160.0000 L 44.0000,154.0000 L 24.0000,159.0000 L 17.0000,159.0000 L 14.0000,154.0000 L 19.0000,150.0000 L 33.0000,146.0000 L 21.0000,145.0000 L 13.0000,148.0000 L 11.0000,143.0000 L 22.0000,140.0000 L 34.0000,141.0000 L 41.0000,132.0000 L 75.0000,128.0000 L 62.0000,123.0000 L 56.0000,130.0000 L 46.0000,128.0000 L 31.0000,131.0000 L 46.0000,124.0000 L 52.0000,118.0000 L 47.0000,116.0000 L 56.0000,110.0000 L 66.0000,110.0000 L 64.0000,106.0000 L 56.0000,109.0000 L 33.0000,103.0000 L 36.0000,100.0000 L 23.0000,100.0000 L 22.0000,93.0000 L 29.0000,94.0000 L 31.0000,88.0000 L 46.0000,84.0000 L 36.0000,82.0000 L 28.0000,69.0000 L 53.0000,68.0000 L 59.0000,73.0000 L 62.0000,69.0000 L 76.0000,70.0000 L 80.0000,65.0000 L 89.0000,63.0000 L 87.0000,57.0000 L 73.0000,55.0000 L 80.0000,50.0000 L 88.0000,50.0000 L 85.0000,43.0000 L 99.0000,38.0000 L 116.0000,42.0000 L 115.0000,35.0000 L 123.0000,35.0000 L 122.0000,30.0000 L 134.0000,36.0000 L 131.0000,42.0000 Z" fill="#C0D0F0" fill-opacity="0.50" stroke="#6495ED" stroke-width="1"/>
<path d="M 131.0000,42.0000 L 116.0000,42.0000 L 99.0000,38.0000 L 89.0000,63.0000 L 76.0000,70.0000 L 59.0000,73.0000 L 28.0000,69.0000 L 46.0000,84.0000 L 36.0000,100.0000 L 64.0000,106.0000 L 75.0000,128.0000 L 41.0000,132.0000 L 33.0000,146.0000 L 68.0000,168.0000 L 90.0000,152.0000 L 112.0000,147.0000 L 145.0000,143.0000 L 158.0000,143.0000 L 161.0000,103.0000 L 158.0000,85.0000 L 158.0000,79.0000 L 190.0000,63.0000 L 169.0000,60.0000 L 179.0000,52.0000 L 161.0000,35.0000 L 131.0000,42.0000 Z" fill="#ff0000" fill-opacity="0.13" stroke="#770000" stroke-width="1"/>
</svg>
