<svg xmlns="http://www.w3.org/2000/svg" width="200" height="200" viewBox="0 0 200 200">
<rect width="200" height="200" fill="white"/>
<path d="M 110.8000,64.8000 L 87.7000,118.8000 L 113.2000,180.0000 L 79.0000,180.0000 L 59.6000,167.4000 L 56.9000,173.7000 L 55.6000,176.8000 L 54.2000,180.0000 L 20.0000,180.0000 L 21.7000,176.4000 L 41.9000,133.2000 L 47.0000,122.4000 L 22.6000,64.8000 L 110.8000,64.8000 Z" fill="#ff0000" fill-opacity="0.13" stroke="#770000" stroke-width="2"/>
<path d="M 187.0000,148.0000 L 187.0000,181.8000 L 165.0000,180.0000 L 162.2000,179.6000 L 160.8000,179.4000 L 158.0000,178.8000 L 155.4000,177.8000 L 154.0000,177.2000 L 151.4000,176.0000 L 148.8000,174.4000 L 147.6000,173.6000 L 145.2000,171.8000 L 143.0000,169.6000 L 141.0000,167.2000 L 139.0000,164.4000 L 138.2000,162.8000 L 136.6000,159.2000 L 135.8000,157.4000 L 135.2000,155.4000 L 122.2000,96.4000 L 122.2000,62.2000 L 133.0000,29.2000 L 168.8000,29.2000 L 185.0000,62.2000 L 187.0000,148.0000 Z" fill="#ff0000" fill-opacity="0.13" stroke="#770000" stroke-width="2"/>
<path d="M 56.6000,64.8000 L 57.8000,68.1000 L 59.0000,71.4000 L 60.2000,74.7000 L 61.4000,78.0000 L 62.4000,81.6000 L 63.5000,85.3000 L 64.5000,88.9000 L 65.6000,92.6000 L 66.6000,96.2000 L 67.7000,92.6000 L 68.8000,88.9000 L 69.8000,85.3000 L 70.9000,81.6000 L 72.0000,78.0000 L 73.2000,74.7000 L 74.4000,71.4000 L 75.6000,68.1000 L 76.8000,64.8000 L 80.6000,64.8000 L 84.4000,64.8000 L 88.1000,64.8000 L 91.9000,64.8000 L 95.7000,64.8000 L 99.5000,64.8000 L 103.2000,64.8000 L 107.0000,64.8000 L 110.8000,64.8000 L 109.3000,68.4000 L 107.7000,72.0000 L 106.2000,75.6000 L 104.6000,79.2000 L 103.1000,82.8000 L 101.6000,86.4000 L 100.0000,90.0000 L 98.5000,93.6000 L 97.0000,97.2000 L 95.4000,100.8000 L 93.9000,104.4000 L 92.4000,108.0000 L 90.8000,111.6000 L 89.3000,115.2000 L 87.7000,118.8000 L 86.2000,122.4000 L 87.9000,126.0000 L 89.6000,129.6000 L 91.3000,133.2000 L 93.0000,136.8000 L 94.6000,140.4000 L 96.3000,144.0000 L 98.0000,147.6000 L 99.7000,151.2000 L 101.4000,154.8000 L 103.1000,158.4000 L 104.8000,162.0000 L 106.4000,165.6000 L 108.1000,169.2000 L 109.8000,172.8000 L 111.5000,176.4000 L 113.2000,180.0000 L 109.4000,180.0000 L 105.6000,180.0000 L 101.8000,180.0000 L 98.0000,180.0000 L 94.2000,180.0000 L 90.4000,180.0000 L 86.6000,180.0000 L 82.8000,180.0000 L 79.0000,180.0000 L 77.6000,176.6000 L 76.1000,173.3000 L 74.6000,170.0000 L 73.2000,166.6000 L 72.1000,163.4000 L 71.0000,160.2000 L 69.9000,157.0000 L 68.8000,153.8000 L 67.7000,150.6000 L 66.6000,147.4000 L 65.4000,150.7000 L 64.3000,154.1000 L 63.1000,157.4000 L 61.9000,160.7000 L 60.8000,164.1000 L 59.6000,167.4000 L 58.2000,170.5000 L 56.9000,173.7000 L 55.6000,176.8000 L 54.2000,180.0000 L 50.4000,180.0000 L 46.6000,180.0000 L 42.8000,180.0000 L 39.0000,180.0000 L 35.2000,180.0000 L 31.4000,180.0000 L 27.6000,180.0000 L 23.8000,180.0000 L 20.0000,180.0000 L 21.7000,176.4000 L 23.4000,172.8000 L 25.1000,169.2000 L 26.8000,165.6000 L 28.4000,162.0000 L 30.1000,158.4000 L 31.8000,154.8000 L 33.5000,151.2000 L 35.2000,147.6000 L 36.9000,144.0000 L 38.6000,140.4000 L 40.2000,136.8000 L 41.9000,133.2000 L 43.6000,129.6000 L 45.3000,126.0000 L 47.0000,122.4000 L 45.5000,118.8000 L 44.0000,115.2000 L 42.4000,111.6000 L 40.9000,108.0000 L 39.4000,104.4000 L 37.8000,100.8000 L 36.3000,97.2000 L 34.8000,93.6000 L 33.3000,90.0000 L 31.8000,86.4000 L 30.2000,82.8000 L 28.7000,79.2000 L 27.2000,75.6000 L 25.7000,72.0000 L 24.1000,68.4000 L 22.6000,64.8000 L 26.4000,64.8000 L 30.2000,64.8000 L 33.9000,64.8000 L 37.7000,64.8000 L 41.5000,64.8000 L 45.3000,64.8000 L 49.0000,64.8000 L 52.8000,64.8000 L 56.6000,64.8000 Z" fill="#C0D0F0" fill-opacity="0.50" stroke="#6495ED" stroke-width="1"/>
<path d="M 175.6000,149.6000 L 178.6000,149.6000 L 181.5000,149.6000 L 184.4000,149.6000 L 187.0000,148.0000 L 187.0000,151.8000 L 187.0000,155.5000 L 187.0000,159.3000 L 187.0000,163.0000 L 187.0000,166.8000 L 187.0000,170.5000 L 187.0000,174.3000 L 187.0000,178.0000 L 187.0000,181.8000 L 184.2000,180.4000 L 180.7000,180.4000 L 177.2000,180.4000 L 173.6000,180.4000 L 172.2000,180.4000 L 170.8000,180.4000 L 169.2000,180.2000 L 167.8000,180.2000 L 166.4000,180.0000 L 165.0000,180.0000 L 163.6000,179.8000 L 162.2000,179.6000 L 160.8000,179.4000 L 159.4000,179.0000 L 158.0000,178.8000 L 156.8000,178.2000 L 155.4000,177.8000 L 154.0000,177.2000 L 152.8000,176.6000 L 151.4000,176.0000 L 150.2000,175.2000 L 148.8000,174.4000 L 147.6000,173.6000 L 146.4000,172.6000 L 145.2000,171.8000 L 144.2000,170.6000 L 143.0000,169.6000 L 142.0000,168.4000 L 141.0000,167.2000 L 140.0000,165.8000 L 139.0000,164.4000 L 138.2000,162.8000 L 137.4000,161.0000 L 136.6000,159.2000 L 135.8000,157.4000 L 135.2000,155.4000 L 135.2000,151.6000 L 135.2000,147.8000 L 135.2000,144.0000 L 135.2000,140.2000 L 135.2000,136.4000 L 135.2000,132.6000 L 135.2000,128.8000 L 135.2000,125.0000 L 135.2000,121.2000 L 135.2000,117.4000 L 135.2000,113.6000 L 135.2000,109.8000 L 135.2000,106.0000 L 135.2000,102.2000 L 135.2000,98.4000 L 135.2000,94.6000 L 131.6000,94.6000 L 128.0000,94.6000 L 124.4000,94.6000 L 122.2000,96.4000 L 122.2000,92.6000 L 122.2000,88.8000 L 122.2000,85.0000 L 122.2000,81.2000 L 122.2000,77.4000 L 122.2000,73.6000 L 122.2000,69.8000 L 122.2000,66.0000 L 122.2000,62.2000 L 124.4000,64.2000 L 128.0000,64.2000 L 131.6000,64.2000 L 135.2000,64.2000 L 135.2000,60.5000 L 135.2000,56.9000 L 135.2000,53.2000 L 135.2000,49.5000 L 135.2000,45.9000 L 135.2000,42.2000 L 135.2000,38.5000 L 135.2000,34.9000 L 135.2000,31.2000 L 133.0000,29.2000 L 137.0000,29.2000 L 141.0000,29.2000 L 145.0000,29.2000 L 148.9000,29.2000 L 152.9000,29.2000 L 156.9000,29.2000 L 160.9000,29.2000 L 164.8000,29.2000 L 168.8000,29.2000 L 166.6000,31.6000 L 166.6000,35.2000 L 166.6000,38.8000 L 166.6000,42.5000 L 166.6000,46.1000 L 166.6000,49.7000 L 166.6000,53.3000 L 166.6000,57.0000 L 166.6000,60.6000 L 166.6000,64.2000 L 169.9000,64.2000 L 173.1000,64.2000 L 176.3000,64.2000 L 179.6000,64.2000 L 182.8000,64.2000 L 185.0000,62.2000 L 185.0000,66.0000 L 185.0000,69.8000 L 185.0000,73.6000 L 185.0000,77.4000 L 185.0000,81.2000 L 185.0000,85.0000 L 185.0000,88.8000 L 185.0000,92.6000 L 185.0000,96.4000 L 182.8000,94.6000 L 179.6000,94.6000 L 176.3000,94.6000 L 173.1000,94.6000 L 169.9000,94.6000 L 166.6000,94.6000 L 166.6000,98.4000 L 166.6000,102.3000 L 166.6000,106.1000 L 166.6000,110.0000 L 166.6000,113.8000 L 166.6000,117.7000 L 166.6000,121.5000 L 166.6000,125.4000 L 166.6000,129.2000 L 166.6000,133.1000 L 166.6000,136.9000 L 166.6000,140.8000 L 166.6000,144.6000 L 166.8000,145.2000 L 167.2000,145.6000 L 167.6000,146.2000 L 168.0000,146.6000 L 168.4000,147.0000 L 168.8000,147.4000 L 169.4000,147.8000 L 170.0000,148.2000 L 170.6000,148.6000 L 171.2000,148.8000 L 172.0000,149.0000 L 172.6000,149.2000 L 173.4000,149.4000 L 174.0000,149.6000 L 174.8000,149.6000 L 175.6000,149.6000 Z" fill="#C0D0F0" fill-opacity="0.50" stroke="#6495ED" stroke-width="1"/>
</svg>
