<svg xmlns="http://www.w3.org/2000/svg" width="200" height="200" viewBox="0 0 200 200">
<rect width="200" height="200" fill="white"/>
<path d="M 90.0000,90.0000 L 80.0000,20.0000 L 50.0000,40.0000 L 10.0000,30.0000 L 10.0000,60.0000 L 20.0000,90.0000 L 90.0000,90.0000 Z" fill="#C0D0F0" fill-opacity="0.50" stroke="#6495ED" stroke-width="1"/>
<path d="M 40.0000,120.0000 L 100.0000,100.0000 L 120.0000,40.0000 L 170.0000,20.0000 L 190.0000,130.0000 L 140.0000,190.0000 L 110.0000,160.0000 L 60.0000,160.0000 L 40.0000,120.0000 ZM 180.0000,130.0000 L 170.0000,90.0000 L 142.5000,71.5000 L 128.5000,122.5000 L 90.0000,140.0000 L 180.0000,130.0000 Z" fill="#C0D0F0" fill-opacity="0.50" stroke="#6495ED" stroke-width="1"/>
<path d="M 90.0000,90.0000 L 80.0000,20.0000 L 10.0000,30.0000 L 20.0000,90.0000 L 90.0000,90.0000 Z" fill="#ff0000" fill-opacity="0.13" stroke="#770000" stroke-width="2"/>
<path d="M 40.0000,120.0000 L 100.0000,100.0000 L 170.0000,20.0000 L 190.0000,130.0000 L 140.0000,190.0000 L 40.0000,120.0000 ZM 180.0000,130.0000 L 142.5000,71.5000 L 90.0000,140.0000 L 180.0000,130.0000 Z" fill="#ff0000" fill-opacity="0.13" stroke="#770000" stroke-width="2"/>
</svg>
