<svg xmlns="http://www.w3.org/2000/svg" width="200" height="200" viewBox="0 0 200 200">
<rect width="200" height="200" fill="white"/>
<path d="M 150.0000,110.0000 L 149.0393,119.7545 L 146.1940,129.1342 L 141.5735,137.7785 L 135.3553,145.3553 L 127.7785,151.5735 L 119.1342,156.1940 L 109.7545,159.0393 L 100.0000,160.0000 L 90.2455,159.0393 L 80.8658,156.1940 L 72.2215,151.5735 L 64.6447,145.3553 L 58.4265,137.7785 L 53.8060,129.1342 L 50.9607,119.7545 L 50.0000,110.0000 L 50.9607,100.2455 L 53.8060,90.8658 L 58.4265,82.2215 L 64.6447,74.6447 L 72.2215,68.4265 L 80.8658,63.8060 L 90.2455,60.9607 L 100.0000,60.0000 L 109.7545,60.9607 L 119.1342,63.8060 L 127.7785,68.4265 L 135.3553,74.6447 L 141.5735,82.2215 L 146.1940,90.8658 L 149.0393,100.2455 L 150.0000,110.0000 Z" fill="#C0D0F0" fill-opacity="0.50" stroke="#6495ED" stroke-width="2"/>
<polyline points="10.00,190.00 190.00,10.00" fill="none" stroke="#7ACAC4" stroke-width="4" stroke-linecap="round" stroke-linejoin="round"/>
</svg>
