<svg xmlns="http://www.w3.org/2000/svg" width="200" height="200" viewBox="0 0 200 200">
<rect width="200" height="200" fill="white"/>
<path d="M 119.0000,177.0000 L 85.0000,165.0000 L 68.0000,171.0000 L 66.0000,172.0000 L 32.0000,144.0000 L 22.0000,136.0000 L 29.8261,100.0000 L 119.0000,100.0000 L 119.0000,177.0000 Z" fill="#C0D0F0" fill-opacity="0.50" stroke="#6495ED" stroke-width="2"/>
<path d="M 132.0000,190.0000 L 119.0000,177.0000 L 119.0000,144.0000 L 186.0000,144.0000 L 186.0000,148.0000 L 178.0000,166.0000 L 168.0000,182.0000 L 147.0000,187.0000 L 132.0000,190.0000 Z" fill="#C0D0F0" fill-opacity="0.50" stroke="#6495ED" stroke-width="2"/>
<path d="M 119.0000,144.0000 L 119.0000,100.0000 L 190.0000,100.0000 L 185.0000,121.0000 L 186.0000,144.0000 L 119.0000,144.0000 Z" fill="#C0D0F0" fill-opacity="0.50" stroke="#6495ED" stroke-width="2"/>
<path d="M 29.8261,100.0000 L 32.0000,90.0000 L 40.0000,81.0000 L 36.0000,50.0000 L 57.0000,42.0000 L 75.0000,29.0000 L 92.0000,18.0000 L 114.0000,16.0000 L 114.0000,100.0000 L 29.8261,100.0000 Z" fill="#C0D0F0" fill-opacity="0.50" stroke="#6495ED" stroke-width="2"/>
<path d="M 114.0000,16.0000 L 132.0000,14.0000 L 146.0000,22.0000 L 176.0000,16.0000 L 179.0000,38.0000 L 184.0000,59.0000 L 190.0000,78.0000 L 190.0000,100.0000 L 114.0000,100.0000 L 114.0000,16.0000 Z" fill="#C0D0F0" fill-opacity="0.50" stroke="#6495ED" stroke-width="2"/>
</svg>
