<svg xmlns="http://www.w3.org/2000/svg" width="200" height="200" viewBox="0 0 200 200">
<rect width="200" height="200" fill="white"/>
<path d="M 10.0000,190.0000 L 10.0000,185.0000 L 26.0000,183.0000 L 10.0000,190.0000 Z" fill="#ff0000" fill-opacity="0.13" stroke="#770000" stroke-width="1"/>
<path d="M 25.0000,17.0000 L 10.0000,15.0000 L 10.0000,10.0000 L 25.0000,17.0000 Z" fill="#ff0000" fill-opacity="0.13" stroke="#770000" stroke-width="1"/>
<path d="M 126.0000,25.0000 L 121.0000,11.0000 L 139.0000,13.0000 L 126.0000,25.0000 Z" fill="#ff0000" fill-opacity="0.13" stroke="#770000" stroke-width="1"/>
<path d="M 137.0000,31.0000 L 139.0000,13.0000 L 154.0000,18.0000 L 137.0000,31.0000 Z" fill="#ff0000" fill-opacity="0.13" stroke="#770000" stroke-width="1"/>
<path d="M 149.0000,43.0000 L 167.0000,23.0000 L 177.0000,31.0000 L 149.0000,43.0000 Z" fill="#ff0000" fill-opacity="0.13" stroke="#770000" stroke-width="1"/>
<path d="M 153.0000,59.0000 L 189.0000,48.0000 L 190.0000,59.0000 L 153.0000,59.0000 Z" fill="#ff0000" fill-opacity="0.13" stroke="#770000" stroke-width="1"/>
<path d="M 153.0000,59.0000 L 188.0000,72.0000 L 186.0000,77.0000 L 153.0000,59.0000 Z" fill="#ff0000" fill-opacity="0.13" stroke="#770000" stroke-width="1"/>
<path d="M 186.0000,77.0000 L 184.0000,83.0000 L 180.0000,87.0000 L 186.0000,77.0000 Z" fill="#ff0000" fill-opacity="0.13" stroke="#770000" stroke-width="1"/>
<path d="M 149.0000,77.0000 L 176.0000,92.0000 L 170.0000,96.0000 L 149.0000,77.0000 Z" fill="#ff0000" fill-opacity="0.13" stroke="#770000" stroke-width="1"/>
<path d="M 147.0000,82.0000 L 164.0000,99.0000 L 151.0000,104.0000 L 147.0000,82.0000 Z" fill="#ff0000" fill-opacity="0.13" stroke="#770000" stroke-width="1"/>
<path d="M 121.0000,98.0000 L 136.0000,108.0000 L 119.0000,111.0000 L 121.0000,98.0000 Z" fill="#ff0000" fill-opacity="0.13" stroke="#770000" stroke-width="1"/>
<path d="M 85.0000,101.0000 L 73.0000,111.0000 L 73.0000,100.0000 L 85.0000,101.0000 Z" fill="#ff0000" fill-opacity="0.13" stroke="#770000" stroke-width="1"/>
<path d="M 89.0000,183.0000 L 106.0000,185.0000 L 106.0000,190.0000 L 89.0000,183.0000 Z" fill="#ff0000" fill-opacity="0.13" stroke="#770000" stroke-width="1"/>
<path d="M 83.0000,182.0000 L 10.0000,190.0000 L 26.0000,183.0000 L 83.0000,182.0000 Z" fill="#ff0000" fill-opacity="0.13" stroke="#770000" stroke-width="1"/>
<path d="M 100.0000,10.0000 L 25.0000,17.0000 L 10.0000,10.0000 L 100.0000,10.0000 Z" fill="#ff0000" fill-opacity="0.13" stroke="#770000" stroke-width="1"/>
<path d="M 121.0000,11.0000 L 109.0000,21.0000 L 100.0000,10.0000 L 121.0000,11.0000 Z" fill="#ff0000" fill-opacity="0.13" stroke="#770000" stroke-width="1"/>
<path d="M 189.0000,48.0000 L 152.0000,53.0000 L 184.0000,39.0000 L 189.0000,48.0000 Z" fill="#ff0000" fill-opacity="0.13" stroke="#770000" stroke-width="1"/>
<path d="M 153.0000,59.0000 L 190.0000,59.0000 L 188.0000,72.0000 L 153.0000,59.0000 Z" fill="#ff0000" fill-opacity="0.13" stroke="#770000" stroke-width="1"/>
<path d="M 147.0000,82.0000 L 170.0000,96.0000 L 164.0000,99.0000 L 147.0000,82.0000 Z" fill="#ff0000" fill-opacity="0.13" stroke="#770000" stroke-width="1"/>
<path d="M 139.0000,90.0000 L 151.0000,104.0000 L 136.0000,108.0000 L 139.0000,90.0000 Z" fill="#ff0000" fill-opacity="0.13" stroke="#770000" stroke-width="1"/>
<path d="M 73.0000,111.0000 L 85.0000,101.0000 L 86.0000,111.0000 L 73.0000,111.0000 Z" fill="#ff0000" fill-opacity="0.13" stroke="#770000" stroke-width="1"/>
<path d="M 83.0000,182.0000 L 89.0000,183.0000 L 106.0000,190.0000 L 83.0000,182.0000 Z" fill="#ff0000" fill-opacity="0.13" stroke="#770000" stroke-width="1"/>
<path d="M 83.0000,182.0000 L 26.0000,183.0000 L 31.0000,181.0000 L 83.0000,182.0000 Z" fill="#ff0000" fill-opacity="0.13" stroke="#770000" stroke-width="1"/>
<path d="M 100.0000,10.0000 L 30.0000,19.0000 L 25.0000,17.0000 L 100.0000,10.0000 Z" fill="#ff0000" fill-opacity="0.13" stroke="#770000" stroke-width="1"/>
<path d="M 189.0000,48.0000 L 153.0000,59.0000 L 152.0000,53.0000 L 189.0000,48.0000 Z" fill="#ff0000" fill-opacity="0.13" stroke="#770000" stroke-width="1"/>
<path d="M 176.0000,92.0000 L 151.0000,72.0000 L 180.0000,87.0000 L 176.0000,92.0000 Z" fill="#ff0000" fill-opacity="0.13" stroke="#770000" stroke-width="1"/>
<path d="M 91.0000,101.0000 L 86.0000,111.0000 L 85.0000,101.0000 L 91.0000,101.0000 Z" fill="#ff0000" fill-opacity="0.13" stroke="#770000" stroke-width="1"/>
<path d="M 10.0000,190.0000 L 83.0000,182.0000 L 106.0000,190.0000 L 10.0000,190.0000 Z" fill="#ff0000" fill-opacity="0.13" stroke="#770000" stroke-width="1"/>
<path d="M 76.0000,22.0000 L 100.0000,10.0000 L 80.0000,21.0000 L 76.0000,22.0000 Z" fill="#ff0000" fill-opacity="0.13" stroke="#770000" stroke-width="1"/>
<path d="M 86.0000,111.0000 L 91.0000,101.0000 L 100.0000,111.0000 L 86.0000,111.0000 Z" fill="#ff0000" fill-opacity="0.13" stroke="#770000" stroke-width="1"/>
<path d="M 79.0000,180.0000 L 83.0000,182.0000 L 31.0000,181.0000 L 79.0000,180.0000 Z" fill="#ff0000" fill-opacity="0.13" stroke="#770000" stroke-width="1"/>
<path d="M 102.0000,101.0000 L 100.0000,111.0000 L 91.0000,101.0000 L 102.0000,101.0000 Z" fill="#ff0000" fill-opacity="0.13" stroke="#770000" stroke-width="1"/>
<path d="M 34.0000,179.0000 L 79.0000,180.0000 L 31.0000,181.0000 L 34.0000,179.0000 Z" fill="#ff0000" fill-opacity="0.13" stroke="#770000" stroke-width="1"/>
<path d="M 112.0000,100.0000 L 100.0000,111.0000 L 102.0000,101.0000 L 112.0000,100.0000 Z" fill="#ff0000" fill-opacity="0.13" stroke="#770000" stroke-width="1"/>
<path d="M 37.0000,176.0000 L 79.0000,180.0000 L 34.0000,179.0000 L 37.0000,176.0000 Z" fill="#ff0000" fill-opacity="0.13" stroke="#770000" stroke-width="1"/>
<path d="M 100.0000,111.0000 L 112.0000,100.0000 L 119.0000,111.0000 L 100.0000,111.0000 Z" fill="#ff0000" fill-opacity="0.13" stroke="#770000" stroke-width="1"/>
<path d="M 79.0000,180.0000 L 37.0000,176.0000 L 77.0000,177.0000 L 79.0000,180.0000 Z" fill="#ff0000" fill-opacity="0.13" stroke="#770000" stroke-width="1"/>
<path d="M 119.0000,111.0000 L 112.0000,100.0000 L 121.0000,98.0000 L 119.0000,111.0000 Z" fill="#ff0000" fill-opacity="0.13" stroke="#770000" stroke-width="1"/>
<path d="M 77.0000,177.0000 L 37.0000,176.0000 L 75.0000,173.0000 L 77.0000,177.0000 Z" fill="#ff0000" fill-opacity="0.13" stroke="#770000" stroke-width="1"/>
<path d="M 136.0000,108.0000 L 121.0000,98.0000 L 128.0000,96.0000 L 136.0000,108.0000 Z" fill="#ff0000" fill-opacity="0.13" stroke="#770000" stroke-width="1"/>
<path d="M 38.0000,171.0000 L 75.0000,173.0000 L 37.0000,176.0000 L 38.0000,171.0000 Z" fill="#ff0000" fill-opacity="0.13" stroke="#770000" stroke-width="1"/>
<path d="M 134.0000,93.0000 L 136.0000,108.0000 L 128.0000,96.0000 L 134.0000,93.0000 Z" fill="#ff0000" fill-opacity="0.13" stroke="#770000" stroke-width="1"/>
<path d="M 75.0000,173.0000 L 38.0000,171.0000 L 74.0000,168.0000 L 75.0000,173.0000 Z" fill="#ff0000" fill-opacity="0.13" stroke="#770000" stroke-width="1"/>
<path d="M 139.0000,90.0000 L 136.0000,108.0000 L 134.0000,93.0000 L 139.0000,90.0000 Z" fill="#ff0000" fill-opacity="0.13" stroke="#770000" stroke-width="1"/>
<path d="M 74.0000,168.0000 L 38.0000,171.0000 L 73.0000,161.0000 L 74.0000,168.0000 Z" fill="#ff0000" fill-opacity="0.13" stroke="#770000" stroke-width="1"/>
<path d="M 151.0000,104.0000 L 139.0000,90.0000 L 143.0000,86.0000 L 151.0000,104.0000 Z" fill="#ff0000" fill-opacity="0.13" stroke="#770000" stroke-width="1"/>
<path d="M 39.0000,157.0000 L 73.0000,161.0000 L 38.0000,171.0000 L 39.0000,157.0000 Z" fill="#ff0000" fill-opacity="0.13" stroke="#770000" stroke-width="1"/>
<path d="M 151.0000,104.0000 L 143.0000,86.0000 L 147.0000,82.0000 L 151.0000,104.0000 Z" fill="#ff0000" fill-opacity="0.13" stroke="#770000" stroke-width="1"/>
<path d="M 73.0000,161.0000 L 39.0000,157.0000 L 73.0000,111.0000 L 73.0000,161.0000 Z" fill="#ff0000" fill-opacity="0.13" stroke="#770000" stroke-width="1"/>
<path d="M 170.0000,96.0000 L 147.0000,82.0000 L 149.0000,77.0000 L 170.0000,96.0000 Z" fill="#ff0000" fill-opacity="0.13" stroke="#770000" stroke-width="1"/>
<path d="M 73.0000,111.0000 L 39.0000,157.0000 L 73.0000,100.0000 L 73.0000,111.0000 Z" fill="#ff0000" fill-opacity="0.13" stroke="#770000" stroke-width="1"/>
<path d="M 176.0000,92.0000 L 149.0000,77.0000 L 151.0000,72.0000 L 176.0000,92.0000 Z" fill="#ff0000" fill-opacity="0.13" stroke="#770000" stroke-width="1"/>
<path d="M 39.0000,39.0000 L 73.0000,100.0000 L 39.0000,157.0000 L 39.0000,39.0000 Z" fill="#ff0000" fill-opacity="0.13" stroke="#770000" stroke-width="1"/>
<path d="M 180.0000,87.0000 L 151.0000,72.0000 L 186.0000,77.0000 L 180.0000,87.0000 Z" fill="#ff0000" fill-opacity="0.13" stroke="#770000" stroke-width="1"/>
<path d="M 73.0000,100.0000 L 39.0000,39.0000 L 73.0000,29.0000 L 73.0000,100.0000 Z" fill="#ff0000" fill-opacity="0.13" stroke="#770000" stroke-width="1"/>
<path d="M 186.0000,77.0000 L 151.0000,72.0000 L 153.0000,59.0000 L 186.0000,77.0000 Z" fill="#ff0000" fill-opacity="0.13" stroke="#770000" stroke-width="1"/>
<path d="M 38.0000,28.0000 L 73.0000,29.0000 L 39.0000,39.0000 L 38.0000,28.0000 Z" fill="#ff0000" fill-opacity="0.13" stroke="#770000" stroke-width="1"/>
<path d="M 151.0000,48.0000 L 184.0000,39.0000 L 152.0000,53.0000 L 151.0000,48.0000 Z" fill="#ff0000" fill-opacity="0.13" stroke="#770000" stroke-width="1"/>
<path d="M 73.0000,29.0000 L 38.0000,28.0000 L 74.0000,24.0000 L 73.0000,29.0000 Z" fill="#ff0000" fill-opacity="0.13" stroke="#770000" stroke-width="1"/>
<path d="M 184.0000,39.0000 L 151.0000,48.0000 L 177.0000,31.0000 L 184.0000,39.0000 Z" fill="#ff0000" fill-opacity="0.13" stroke="#770000" stroke-width="1"/>
<path d="M 36.0000,24.0000 L 74.0000,24.0000 L 38.0000,28.0000 L 36.0000,24.0000 Z" fill="#ff0000" fill-opacity="0.13" stroke="#770000" stroke-width="1"/>
<path d="M 149.0000,43.0000 L 177.0000,31.0000 L 151.0000,48.0000 L 149.0000,43.0000 Z" fill="#ff0000" fill-opacity="0.13" stroke="#770000" stroke-width="1"/>
<path d="M 34.0000,21.0000 L 74.0000,24.0000 L 36.0000,24.0000 L 34.0000,21.0000 Z" fill="#ff0000" fill-opacity="0.13" stroke="#770000" stroke-width="1"/>
<path d="M 146.0000,38.0000 L 167.0000,23.0000 L 149.0000,43.0000 L 146.0000,38.0000 Z" fill="#ff0000" fill-opacity="0.13" stroke="#770000" stroke-width="1"/>
<path d="M 74.0000,24.0000 L 34.0000,21.0000 L 76.0000,22.0000 L 74.0000,24.0000 Z" fill="#ff0000" fill-opacity="0.13" stroke="#770000" stroke-width="1"/>
<path d="M 167.0000,23.0000 L 146.0000,38.0000 L 154.0000,18.0000 L 167.0000,23.0000 Z" fill="#ff0000" fill-opacity="0.13" stroke="#770000" stroke-width="1"/>
<path d="M 30.0000,19.0000 L 76.0000,22.0000 L 34.0000,21.0000 L 30.0000,19.0000 Z" fill="#ff0000" fill-opacity="0.13" stroke="#770000" stroke-width="1"/>
<path d="M 154.0000,18.0000 L 146.0000,38.0000 L 142.0000,34.0000 L 154.0000,18.0000 Z" fill="#ff0000" fill-opacity="0.13" stroke="#770000" stroke-width="1"/>
<path d="M 100.0000,10.0000 L 76.0000,22.0000 L 30.0000,19.0000 L 100.0000,10.0000 Z" fill="#ff0000" fill-opacity="0.13" stroke="#770000" stroke-width="1"/>
<path d="M 154.0000,18.0000 L 142.0000,34.0000 L 137.0000,31.0000 L 154.0000,18.0000 Z" fill="#ff0000" fill-opacity="0.13" stroke="#770000" stroke-width="1"/>
<path d="M 80.0000,21.0000 L 100.0000,10.0000 L 89.0000,20.0000 L 80.0000,21.0000 Z" fill="#ff0000" fill-opacity="0.13" stroke="#770000" stroke-width="1"/>
<path d="M 139.0000,13.0000 L 137.0000,31.0000 L 132.0000,28.0000 L 139.0000,13.0000 Z" fill="#ff0000" fill-opacity="0.13" stroke="#770000" stroke-width="1"/>
<path d="M 100.0000,10.0000 L 99.0000,20.0000 L 89.0000,20.0000 L 100.0000,10.0000 Z" fill="#ff0000" fill-opacity="0.13" stroke="#770000" stroke-width="1"/>
<path d="M 139.0000,13.0000 L 132.0000,28.0000 L 126.0000,25.0000 L 139.0000,13.0000 Z" fill="#ff0000" fill-opacity="0.13" stroke="#770000" stroke-width="1"/>
<path d="M 100.0000,10.0000 L 109.0000,21.0000 L 99.0000,20.0000 L 100.0000,10.0000 Z" fill="#ff0000" fill-opacity="0.13" stroke="#770000" stroke-width="1"/>
<path d="M 121.0000,11.0000 L 126.0000,25.0000 L 118.0000,23.0000 L 121.0000,11.0000 Z" fill="#ff0000" fill-opacity="0.13" stroke="#770000" stroke-width="1"/>
<path d="M 121.0000,11.0000 L 118.0000,23.0000 L 109.0000,21.0000 L 121.0000,11.0000 Z" fill="#ff0000" fill-opacity="0.13" stroke="#770000" stroke-width="1"/>
<polyline points="26.00,183.00 31.00,181.00 34.00,179.00 37.00,176.00 38.00,171.00 39.00,157.00 39.00,39.00 38.00,28.00 36.00,24.00 34.00,21.00 30.00,19.00 25.00,17.00 10.00,15.00 10.00,10.00 100.00,10.00 121.00,11.00 139.00,13.00 154.00,18.00 167.00,23.00 177.00,31.00 184.00,39.00 189.00,48.00 190.00,59.00 188.00,72.00 186.00,77.00 184.00,83.00 180.00,87.00 176.00,92.00 170.00,96.00 164.00,99.00 151.00,104.00 136.00,108.00 119.00,111.00 100.00,111.00 86.00,111.00 73.00,111.00 73.00,161.00 74.00,168.00 75.00,173.00 77.00,177.00 79.00,180.00 83.00,182.00 89.00,183.00 106.00,185.00 106.00,190.00 10.00,190.00 10.00,185.00 26.00,183.00" fill="none" stroke="#6495ED" stroke-width="4" stroke-linecap="round" stroke-linejoin="round"/>
<polyline points="152.00,53.00 151.00,48.00 149.00,43.00 146.00,38.00 142.00,34.00 137.00,31.00 132.00,28.00 126.00,25.00 118.00,23.00 109.00,21.00 99.00,20.00 89.00,20.00 80.00,21.00 76.00,22.00 74.00,24.00 73.00,29.00 73.00,100.00 85.00,101.00 91.00,101.00 102.00,101.00 112.00,100.00 121.00,98.00 128.00,96.00 134.00,93.00 139.00,90.00 143.00,86.00 147.00,82.00 149.00,77.00 151.00,72.00 153.00,59.00 152.00,53.00" fill="none" stroke="#6495ED" stroke-width="4" stroke-linecap="round" stroke-linejoin="round"/>
</svg>
