<svg xmlns="http://www.w3.org/2000/svg" width="200" height="200" viewBox="0 0 200 200">
<rect width="200" height="200" fill="white"/>
<path d="M 90.0000,150.0000 L 89.2314,157.8036 L 86.9552,165.3073 L 83.2588,172.2228 L 78.2843,178.2843 L 72.2228,183.2588 L 65.3073,186.9552 L 57.8036,189.2314 L 50.0000,190.0000 L 42.1964,189.2314 L 34.6927,186.9552 L 27.7772,183.2588 L 21.7157,178.2843 L 16.7412,172.2228 L 13.0448,165.3073 L 10.7686,157.8036 L 10.0000,150.0000 L 10.7686,142.1964 L 13.0448,134.6927 L 16.7412,127.7772 L 21.7157,121.7157 L 27.7772,116.7412 L 34.6927,113.0448 L 42.1964,110.7686 L 50.0000,110.0000 L 57.8036,110.7686 L 65.3073,113.0448 L 72.2228,116.7412 L 78.2843,121.7157 L 83.2588,127.7772 L 86.9552,134.6927 L 89.2314,142.1964 L 90.0000,150.0000 Z" fill="#00ffa0" fill-opacity="0.25" stroke="#7ACAC4" stroke-width="2"/>
<path d="M 70.0000,150.0000 L 69.6157,153.9018 L 68.4776,157.6537 L 66.6294,161.1114 L 64.1421,164.1421 L 61.1114,166.6294 L 57.6537,168.4776 L 53.9018,169.6157 L 50.0000,170.0000 L 46.0982,169.6157 L 42.3463,168.4776 L 38.8886,166.6294 L 35.8579,164.1421 L 33.3706,161.1114 L 31.5224,157.6537 L 30.3843,153.9018 L 30.0000,150.0000 L 30.3843,146.0982 L 31.5224,142.3463 L 33.3706,138.8886 L 35.8579,135.8579 L 38.8886,133.3706 L 42.3463,131.5224 L 46.0982,130.3843 L 50.0000,130.0000 L 53.9018,130.3843 L 57.6537,131.5224 L 61.1114,133.3706 L 64.1421,135.8579 L 66.6294,138.8886 L 68.4776,142.3463 L 69.6157,146.0982 L 70.0000,150.0000 Z" fill="#C0D0F0" fill-opacity="0.50" stroke="#6495ED" stroke-width="2"/>
</svg>
