<svg xmlns="http://www.w3.org/2000/svg" width="200" height="200" viewBox="0 0 200 200">
<rect width="200" height="200" fill="white"/>
<path d="M 140.0000,60.0000 L 140.0000,78.0000 L 135.0000,95.0000 L 126.0000,100.0000 L 118.0000,101.0000 L 110.0000,106.0000 L 100.0000,114.0000 L 97.0000,127.0000 L 102.0000,141.0000 L 98.0000,151.0000 L 87.0000,162.0000 L 70.0000,170.0000 L 55.0000,171.0000 L 40.0000,170.0000 L 28.0000,162.0000 L 20.0000,150.0000 L 14.0000,134.0000 L 10.0000,116.0000 L 6.0000,100.0000 L 4.0000,81.0000 L 4.0000,57.0000 L 6.0000,34.0000 L 10.0000,20.0000 L 18.0000,9.0000 L 28.0000,5.0000 L 40.0000,10.0000 L 55.0000,11.0000 L 67.0000,14.0000 L 86.0000,21.0000 L 112.0000,35.0000 L 124.0000,42.0000 L 133.0000,52.0000 L 140.0000,60.0000 ZM 48.0000,23.0000 L 40.0000,23.0000 L 30.0000,26.0000 L 24.0000,34.0000 L 22.0000,41.0000 L 25.0000,45.0000 L 30.0000,47.0000 L 40.0000,46.0000 L 45.0000,43.0000 L 52.0000,38.0000 L 53.0000,31.0000 L 51.0000,26.0000 L 48.0000,23.0000 Z" fill="#C0D0F0" fill-opacity="0.50" stroke="#6495ED" stroke-width="2"/>
</svg>
