<svg xmlns="http://www.w3.org/2000/svg" width="200" height="200" viewBox="0 0 200 200">
<rect width="200" height="200" fill="white"/>
<path d="M 75.0000,137.0000 L 79.0000,150.0000 L 87.0000,162.0000 L 95.0000,169.0000 L 108.0000,175.0000 L 124.0000,178.0000 L 140.0000,182.0000 L 154.0000,189.0000 L 166.0000,194.0000 L 176.0000,190.0000 L 184.0000,179.0000 L 188.0000,165.0000 L 190.0000,142.0000 L 190.0000,118.0000 L 193.0000,96.0000 L 190.0000,79.0000 L 185.0000,61.0000 L 178.0000,46.0000 L 166.0000,37.0000 L 154.0000,29.0000 L 139.0000,28.0000 L 124.0000,29.0000 L 112.0000,35.0000 L 96.0000,48.0000 L 92.0000,58.0000 L 92.0000,74.0000 L 86.0000,84.0000 L 79.0000,90.0000 L 75.0000,96.0000 L 72.0000,106.0000 L 73.0000,114.0000 L 75.0000,124.0000 L 75.0000,137.0000 Z" fill="#00ffa0" fill-opacity="0.25" stroke="#7ACAC4" stroke-width="2"/>
</svg>
